<?xml version="1.0" encoding="utf-8"?>
<!-- Generator: Adobe Illustrator 27.0.0, SVG Export Plug-In . SVG Version: 6.00 Build 0)  -->
<svg version="1.1" xmlns="http://www.w3.org/2000/svg" xmlns:xlink="http://www.w3.org/1999/xlink" x="0px" y="0px"
	 viewBox="0 0 1920 1080" style="enable-background:new 0 0 1920 1080;" xml:space="preserve">
<style type="text/css">
	.st0{fill:#F4B95F;}
	.st1{fill:#C49A6C;}
	.st2{fill:#F9CC97;}
</style>
<g id="Layer_2">
	<rect class="st0" width="1920" height="1080"/>
</g>
<g id="Layer_3">
	<g>
		
			<rect x="71.06" y="369.58" transform="matrix(0.7028 -0.7114 0.7114 0.7028 -570.1028 302.1024)" class="st1" width="10.95" height="927.65"/>
		
			<rect x="200.91" y="309.11" transform="matrix(0.7028 -0.7114 0.7114 0.7028 -488.4993 376.501)" class="st1" width="10.95" height="927.65"/>
		
			<rect x="268.37" y="309.11" transform="matrix(0.7028 -0.7114 0.7114 0.7028 -468.4511 424.4923)" class="st1" width="10.95" height="927.65"/>
		
			<rect x="494.97" y="-263.49" transform="matrix(0.7071 0.7071 -0.7071 0.7071 509.6345 -203.4836)" class="st1" width="10.95" height="1553.87"/>
		
			<rect x="542.34" y="-241.97" transform="matrix(0.7071 0.7071 -0.7071 0.7071 534.9957 -232.225)" class="st1" width="10.95" height="1543.31"/>
		
			<rect x="608.98" y="-320.11" transform="matrix(0.7071 0.7071 -0.7071 0.7071 549.6218 -281.3701)" class="st1" width="10.95" height="1685.75"/>
		
			<rect x="661.19" y="-310.27" transform="matrix(0.7071 0.7071 -0.7071 0.7071 572.9778 -314.9526)" class="st1" width="10.95" height="1688.89"/>
		
			<rect x="693.15" y="-281.82" transform="matrix(0.7071 0.7071 -0.7071 0.7071 603.8232 -328.6519)" class="st1" width="10.95" height="1692.74"/>
		
			<rect x="744.29" y="-269.39" transform="matrix(0.7071 0.7071 -0.7071 0.7071 627.6248 -361.1585)" class="st1" width="10.95" height="1692.84"/>
		
			<rect x="190.07" y="361.93" transform="matrix(0.7028 -0.7114 0.7114 0.7028 -529.2967 384.4879)" class="st1" width="10.95" height="927.65"/>
		
			<rect x="165.44" y="397.79" transform="matrix(0.7028 -0.7114 0.7114 0.7028 -562.1258 377.6266)" class="st1" width="10.95" height="927.65"/>
		
			<rect x="268.37" y="-196.43" transform="matrix(0.7071 0.7071 -0.7071 0.7071 426.3638 -50.2563)" class="st1" width="10.95" height="1371.94"/>
		
			<rect x="335.61" y="-222.87" transform="matrix(0.7071 0.7071 -0.7071 0.7071 443.4957 -98.865)" class="st1" width="10.95" height="1417.57"/>
		
			<rect x="375.93" y="-237.46" transform="matrix(0.7071 0.7071 -0.7071 0.7071 469.0248 -121.6882)" class="st1" width="10.95" height="1485.56"/>
		
			<rect x="432.44" y="-238.02" transform="matrix(0.7071 0.7071 -0.7071 0.7071 490.5984 -159.5738)" class="st1" width="10.95" height="1500.87"/>
		
			<rect x="-26.33" y="522.11" transform="matrix(0.7028 -0.7114 0.7114 0.7028 -707.5473 278.1575)" class="st1" width="10.95" height="927.65"/>
		
			<rect x="103.52" y="461.64" transform="matrix(0.7028 -0.7114 0.7114 0.7028 -625.9438 352.5562)" class="st1" width="10.95" height="927.65"/>
		
			<rect x="92.68" y="514.46" transform="matrix(0.7028 -0.7114 0.7114 0.7028 -666.7411 360.5431)" class="st1" width="10.95" height="927.65"/>
		
			<rect x="68.06" y="550.33" transform="matrix(0.7028 -0.7114 0.7114 0.7028 -699.5703 353.6817)" class="st1" width="10.95" height="927.65"/>
		
			<rect x="1042.76" y="-308" transform="matrix(0.7071 0.7071 -0.7071 0.7071 725.6811 -567.7992)" class="st1" width="10.95" height="1800.16"/>
		
			<rect x="1098.74" y="-307.26" transform="matrix(0.7071 0.7071 -0.7071 0.7071 747.4775 -605.1468)" class="st1" width="10.95" height="1813.94"/>
		
			<rect x="1144.4" y="-334.75" transform="matrix(0.7071 0.7071 -0.7071 0.7071 770.7928 -633.3144)" class="st1" width="10.95" height="1897.05"/>
		
			<rect x="1205.84" y="-347.21" transform="matrix(0.7071 0.7071 -0.7071 0.7071 790.325 -676.1285)" class="st1" width="10.95" height="1926.3"/>
		
			<rect x="1237.72" y="-318.54" transform="matrix(0.7071 0.7071 -0.7071 0.7071 821.2067 -689.7402)" class="st1" width="10.95" height="1929.91"/>
		
			<rect x="1291.55" y="-312.6" transform="matrix(0.7071 0.7071 -0.7071 0.7071 843.8942 -724.9363)" class="st1" width="10.95" height="1937.61"/>
		
			<rect x="834.99" y="-286.39" transform="matrix(0.7071 0.7071 -0.7071 0.7071 634.6125 -433.3979)" class="st1" width="10.95" height="1671.47"/>
		
			<rect x="892.04" y="-288.24" transform="matrix(0.7071 0.7071 -0.7071 0.7071 655.9633 -471.8213)" class="st1" width="10.95" height="1688.3"/>
		
			<rect x="936.09" y="-311.84" transform="matrix(0.7071 0.7071 -0.7071 0.7071 679.947 -498.3753)" class="st1" width="10.95" height="1766.85"/>
		
			<rect x="985.08" y="-294.22" transform="matrix(0.7071 0.7071 -0.7071 0.7071 704.6398 -528.7303)" class="st1" width="10.95" height="1760.85"/>
		
			<rect x="1306.39" y="-201.95" transform="matrix(0.7071 0.7071 -0.7071 0.7071 882.7614 -721.1358)" class="st1" width="10.95" height="1813.94"/>
		
			<rect x="1352.05" y="-229.45" transform="matrix(0.7071 0.7071 -0.7071 0.7071 906.0767 -749.3034)" class="st1" width="10.95" height="1897.05"/>
		
			<rect x="1413.5" y="-241.9" transform="matrix(0.7071 0.7071 -0.7071 0.7071 925.6088 -792.1176)" class="st1" width="10.95" height="1926.3"/>
		
			<rect x="1445.37" y="-213.23" transform="matrix(0.7071 0.7071 -0.7071 0.7071 956.4905 -805.7292)" class="st1" width="10.95" height="1929.91"/>
		
			<rect x="1499.2" y="-207.29" transform="matrix(0.7071 0.7071 -0.7071 0.7071 979.1782 -840.9252)" class="st1" width="10.95" height="1937.61"/>
		
			<rect x="1420.92" y="-59.64" transform="matrix(0.7071 0.7071 -0.7071 0.7071 1056.6566 -743.9811)" class="st1" width="10.95" height="1926.3"/>
		
			<rect x="1452.79" y="-30.98" transform="matrix(0.7071 0.7071 -0.7071 0.7071 1087.5382 -757.5928)" class="st1" width="10.95" height="1929.91"/>
		
			<rect x="1506.62" y="-25.04" transform="matrix(0.7071 0.7071 -0.7071 0.7071 1110.2258 -792.7889)" class="st1" width="10.95" height="1937.61"/>
		
			<rect x="1521.46" y="85.61" transform="matrix(0.7071 0.7071 -0.7071 0.7071 1149.093 -788.9884)" class="st1" width="10.95" height="1813.94"/>
		
			<rect x="1567.12" y="58.12" transform="matrix(0.7071 0.7071 -0.7071 0.7071 1172.4083 -817.156)" class="st1" width="10.95" height="1897.05"/>
		
			<rect x="1628.57" y="45.67" transform="matrix(0.7071 0.7071 -0.7071 0.7071 1191.9404 -859.9702)" class="st1" width="10.95" height="1926.3"/>
		
			<rect x="1660.44" y="74.33" transform="matrix(0.7071 0.7071 -0.7071 0.7071 1222.8221 -873.5818)" class="st1" width="10.95" height="1929.91"/>
		
			<rect x="1714.27" y="80.27" transform="matrix(0.7071 0.7071 -0.7071 0.7071 1245.5098 -908.7778)" class="st1" width="10.95" height="1937.61"/>
		
			<rect x="1736.35" y="128.22" transform="matrix(0.7071 0.7071 -0.7071 0.7071 1283.1636 -911.4753)" class="st1" width="10.95" height="1929.91"/>
		
			<rect x="1790.18" y="134.16" transform="matrix(0.7071 0.7071 -0.7071 0.7071 1305.8512 -946.6714)" class="st1" width="10.95" height="1937.61"/>
		
			<rect x="457.07" y="-396.04" transform="matrix(0.7028 -0.7114 0.7114 0.7028 -326.0311 522.6515)" class="st1" width="10.95" height="2095.19"/>
		
			<rect x="631.56" y="-412.4" transform="matrix(0.7028 -0.7114 0.7114 0.7028 -262.5391 641.9183)" class="st1" width="10.95" height="2095.19"/>
		
			<rect x="741.99" y="-369.95" transform="matrix(0.7028 -0.7114 0.7114 0.7028 -259.921 733.0897)" class="st1" width="10.95" height="2095.19"/>
		
			<rect x="647.06" y="-333.56" transform="matrix(0.7028 -0.7114 0.7114 0.7028 -314.0201 676.3719)" class="st1" width="10.95" height="2095.19"/>
		
			<rect x="629.31" y="-290.9" transform="matrix(0.7028 -0.7114 0.7114 0.7028 -349.6411 676.4268)" class="st1" width="10.95" height="2095.19"/>
		
			<rect x="393.65" y="-209.96" transform="matrix(0.7028 -0.7114 0.7114 0.7028 -477.2527 532.8368)" class="st1" width="10.95" height="2095.19"/>
		
			<rect x="568.14" y="-226.32" transform="matrix(0.7028 -0.7114 0.7114 0.7028 -413.7607 652.1036)" class="st1" width="10.95" height="2095.19"/>
		
			<rect x="583.64" y="-147.47" transform="matrix(0.7028 -0.7114 0.7114 0.7028 -465.2417 686.5573)" class="st1" width="10.95" height="2095.19"/>
		
			<rect x="565.89" y="-104.81" transform="matrix(0.7028 -0.7114 0.7114 0.7028 -500.8627 686.6121)" class="st1" width="10.95" height="2095.19"/>
		
			<rect x="321.51" y="-407.16" transform="matrix(0.7071 0.7071 -0.7071 0.7071 357.2382 -122.914)" class="st1" width="10.95" height="1553.87"/>
		
			<rect x="94.92" y="-340.1" transform="matrix(0.7071 0.7071 -0.7071 0.7071 273.9676 30.3133)" class="st1" width="10.95" height="1371.94"/>
		
			<rect x="162.16" y="-366.55" transform="matrix(0.7071 0.7071 -0.7071 0.7071 291.0995 -18.2955)" class="st1" width="10.95" height="1417.57"/>
		
			<rect x="202.47" y="-381.14" transform="matrix(0.7071 0.7071 -0.7071 0.7071 316.6285 -41.1187)" class="st1" width="10.95" height="1485.56"/>
		
			<rect x="258.99" y="-381.69" transform="matrix(0.7071 0.7071 -0.7071 0.7071 338.2021 -79.0042)" class="st1" width="10.95" height="1500.87"/>
		
			<rect x="149.19" y="-549.7" transform="matrix(0.7071 0.7071 -0.7071 0.7071 205.9786 -42.8152)" class="st1" width="10.95" height="1553.87"/>
		
			<rect x="-77.4" y="-482.64" transform="matrix(0.7071 0.7071 -0.7071 0.7071 122.708 110.4121)" class="st1" width="10.95" height="1371.94"/>
		
			<rect x="-10.16" y="-509.08" transform="matrix(0.7071 0.7071 -0.7071 0.7071 139.8398 61.8033)" class="st1" width="10.95" height="1417.57"/>
		
			<rect x="30.15" y="-523.67" transform="matrix(0.7071 0.7071 -0.7071 0.7071 165.3689 38.9801)" class="st1" width="10.95" height="1485.56"/>
		
			<rect x="86.67" y="-524.23" transform="matrix(0.7071 0.7071 -0.7071 0.7071 186.9425 1.0946)" class="st1" width="10.95" height="1500.87"/>
		
			<rect x="810.76" y="-667.71" transform="matrix(0.7028 -0.7114 0.7114 0.7028 -63.9375 708.6696)" class="st1" width="10.95" height="2197.14"/>
		
			<rect x="989.15" y="-680.22" transform="matrix(0.7028 -0.7114 0.7114 0.7028 -2.027 831.8542)" class="st1" width="10.95" height="2197.14"/>
		
			<rect x="1103.33" y="-634.06" transform="matrix(0.7028 -0.7114 0.7114 0.7028 -0.9309 926.796)" class="st1" width="10.95" height="2197.14"/>
		
			<rect x="1006.95" y="-599.1" transform="matrix(0.7028 -0.7114 0.7114 0.7028 -54.4409 868.6189)" class="st1" width="10.95" height="2197.14"/>
		
			<rect x="989.8" y="-555.84" transform="matrix(0.7028 -0.7114 0.7114 0.7028 -90.3056 869.2776)" class="st1" width="10.95" height="2197.14"/>
		
			<rect x="750.3" y="-478.69" transform="matrix(0.7028 -0.7114 0.7114 0.7028 -216.3621 721.8351)" class="st1" width="10.95" height="2197.14"/>
		
			<rect x="928.7" y="-491.2" transform="matrix(0.7028 -0.7114 0.7114 0.7028 -154.4516 845.0197)" class="st1" width="10.95" height="2197.14"/>
		
			<rect x="946.49" y="-410.08" transform="matrix(0.7028 -0.7114 0.7114 0.7028 -206.8655 881.7844)" class="st1" width="10.95" height="2197.14"/>
		
			<rect x="929.35" y="-366.82" transform="matrix(0.7028 -0.7114 0.7114 0.7028 -242.7302 882.4431)" class="st1" width="10.95" height="2197.14"/>
		
			<rect x="1235.99" y="-811.89" transform="matrix(0.7028 -0.7114 0.7114 0.7028 164.9964 968.3138)" class="st1" width="10.95" height="2197.14"/>
		
			<rect x="1414.38" y="-824.4" transform="matrix(0.7028 -0.7114 0.7114 0.7028 226.9069 1091.4985)" class="st1" width="10.95" height="2197.14"/>
		
			<rect x="1528.57" y="-778.24" transform="matrix(0.7028 -0.7114 0.7114 0.7028 228.0031 1186.4402)" class="st1" width="10.95" height="2197.14"/>
		
			<rect x="1432.18" y="-743.29" transform="matrix(0.7028 -0.7114 0.7114 0.7028 174.4931 1128.2632)" class="st1" width="10.95" height="2197.14"/>
		
			<rect x="1415.04" y="-700.03" transform="matrix(0.7028 -0.7114 0.7114 0.7028 138.6283 1128.9219)" class="st1" width="10.95" height="2197.14"/>
		
			<rect x="1175.53" y="-622.88" transform="matrix(0.7028 -0.7114 0.7114 0.7028 12.5718 981.4793)" class="st1" width="10.95" height="2197.14"/>
		
			<rect x="1353.93" y="-635.38" transform="matrix(0.7028 -0.7114 0.7114 0.7028 74.4823 1104.6639)" class="st1" width="10.95" height="2197.14"/>
		
			<rect x="1371.73" y="-554.27" transform="matrix(0.7028 -0.7114 0.7114 0.7028 22.0685 1141.4286)" class="st1" width="10.95" height="2197.14"/>
		
			<rect x="1354.58" y="-511.01" transform="matrix(0.7028 -0.7114 0.7114 0.7028 -13.7963 1142.0874)" class="st1" width="10.95" height="2197.14"/>
		
			<rect x="1451.06" y="-1175.04" transform="matrix(0.7028 -0.7114 0.7114 0.7028 487.2373 1013.3895)" class="st1" width="10.95" height="2197.14"/>
		
			<rect x="1629.45" y="-1187.55" transform="matrix(0.7028 -0.7114 0.7114 0.7028 549.1478 1136.5741)" class="st1" width="10.95" height="2197.14"/>
		
			<rect x="1743.64" y="-1141.39" transform="matrix(0.7028 -0.7114 0.7114 0.7028 550.244 1231.5159)" class="st1" width="10.95" height="2197.14"/>
		
			<rect x="1647.25" y="-1106.44" transform="matrix(0.7028 -0.7114 0.7114 0.7028 496.734 1173.3387)" class="st1" width="10.95" height="2197.14"/>
		
			<rect x="1630.11" y="-1063.18" transform="matrix(0.7028 -0.7114 0.7114 0.7028 460.8692 1173.9976)" class="st1" width="10.95" height="2197.14"/>
		
			<rect x="1390.61" y="-986.03" transform="matrix(0.7028 -0.7114 0.7114 0.7028 334.8127 1026.5549)" class="st1" width="10.95" height="2197.14"/>
		
			<rect x="1569" y="-998.53" transform="matrix(0.7028 -0.7114 0.7114 0.7028 396.7232 1149.7396)" class="st1" width="10.95" height="2197.14"/>
		
			<rect x="1586.8" y="-917.42" transform="matrix(0.7028 -0.7114 0.7114 0.7028 344.3094 1186.5043)" class="st1" width="10.95" height="2197.14"/>
		
			<rect x="1569.65" y="-874.16" transform="matrix(0.7028 -0.7114 0.7114 0.7028 308.4446 1187.163)" class="st1" width="10.95" height="2197.14"/>
		
			<rect x="1743.64" y="-1203.99" transform="matrix(0.7028 -0.7114 0.7114 0.7028 594.7736 1212.9137)" class="st1" width="10.95" height="2197.14"/>
		
			<rect x="1778.46" y="208.28" transform="matrix(0.7071 0.7071 -0.7071 0.7071 1354.8274 -916.6719)" class="st1" width="10.95" height="1937.61"/>
		
			<rect x="16.33" y="-640.72" transform="matrix(0.7071 0.7071 -0.7071 0.7071 38.378 -2.1647)" class="st1" width="10.95" height="1371.94"/>
	</g>
</g>
<g id="Layer_1">
	
		<rect x="70.16" y="365.15" transform="matrix(0.7028 -0.7114 0.7114 0.7028 -567.2153 300.1508)" class="st2" width="10.95" height="927.65"/>
	
		<rect x="200.01" y="304.67" transform="matrix(0.7028 -0.7114 0.7114 0.7028 -485.6118 374.5495)" class="st2" width="10.95" height="927.65"/>
	
		<rect x="267.48" y="304.67" transform="matrix(0.7028 -0.7114 0.7114 0.7028 -465.5636 422.5407)" class="st2" width="10.95" height="927.65"/>
	
		<rect x="494.07" y="-267.92" transform="matrix(0.7071 0.7071 -0.7071 0.7071 506.2394 -204.1508)" class="st2" width="10.95" height="1553.87"/>
	
		<rect x="541.45" y="-246.4" transform="matrix(0.7071 0.7071 -0.7071 0.7071 531.6006 -232.8923)" class="st2" width="10.95" height="1543.31"/>
	
		<rect x="608.09" y="-324.54" transform="matrix(0.7071 0.7071 -0.7071 0.7071 546.2268 -282.0374)" class="st2" width="10.95" height="1685.75"/>
	
		<rect x="660.3" y="-314.71" transform="matrix(0.7071 0.7071 -0.7071 0.7071 569.5828 -315.6199)" class="st2" width="10.95" height="1688.89"/>
	
		<rect x="692.26" y="-286.25" transform="matrix(0.7071 0.7071 -0.7071 0.7071 600.4282 -329.3192)" class="st2" width="10.95" height="1692.74"/>
	
		<rect x="743.4" y="-273.82" transform="matrix(0.7071 0.7071 -0.7071 0.7071 624.2298 -361.8258)" class="st2" width="10.95" height="1692.84"/>
	
		<rect x="189.17" y="357.5" transform="matrix(0.7028 -0.7114 0.7114 0.7028 -526.4092 382.5364)" class="st2" width="10.95" height="927.65"/>
	
		<rect x="164.55" y="393.36" transform="matrix(0.7028 -0.7114 0.7114 0.7028 -559.2383 375.6751)" class="st2" width="10.95" height="927.65"/>
	
		<rect x="267.48" y="-200.86" transform="matrix(0.7071 0.7071 -0.7071 0.7071 422.9688 -50.9236)" class="st2" width="10.95" height="1371.94"/>
	
		<rect x="334.72" y="-227.3" transform="matrix(0.7071 0.7071 -0.7071 0.7071 440.1007 -99.5323)" class="st2" width="10.95" height="1417.57"/>
	
		<rect x="375.03" y="-241.89" transform="matrix(0.7071 0.7071 -0.7071 0.7071 465.6298 -122.3555)" class="st2" width="10.95" height="1485.56"/>
	
		<rect x="431.55" y="-242.45" transform="matrix(0.7071 0.7071 -0.7071 0.7071 487.2034 -160.241)" class="st2" width="10.95" height="1500.87"/>
	
		<rect x="-27.22" y="517.68" transform="matrix(0.7028 -0.7114 0.7114 0.7028 -704.6598 276.206)" class="st2" width="10.95" height="927.65"/>
	
		<rect x="102.63" y="457.21" transform="matrix(0.7028 -0.7114 0.7114 0.7028 -623.0563 350.6046)" class="st2" width="10.95" height="927.65"/>
	
		<rect x="91.79" y="510.03" transform="matrix(0.7028 -0.7114 0.7114 0.7028 -663.8536 358.5916)" class="st2" width="10.95" height="927.65"/>
	
		<rect x="67.17" y="545.89" transform="matrix(0.7028 -0.7114 0.7114 0.7028 -696.6828 351.7302)" class="st2" width="10.95" height="927.65"/>
	
		<rect x="1041.87" y="-312.44" transform="matrix(0.7071 0.7071 -0.7071 0.7071 722.2861 -568.4665)" class="st2" width="10.95" height="1800.16"/>
	
		<rect x="1097.85" y="-311.69" transform="matrix(0.7071 0.7071 -0.7071 0.7071 744.0825 -605.8141)" class="st2" width="10.95" height="1813.94"/>
	
		<rect x="1143.51" y="-339.18" transform="matrix(0.7071 0.7071 -0.7071 0.7071 767.3978 -633.9817)" class="st2" width="10.95" height="1897.05"/>
	
		<rect x="1204.95" y="-351.64" transform="matrix(0.7071 0.7071 -0.7071 0.7071 786.9299 -676.7958)" class="st2" width="10.95" height="1926.3"/>
	
		<rect x="1236.82" y="-322.97" transform="matrix(0.7071 0.7071 -0.7071 0.7071 817.8116 -690.4075)" class="st2" width="10.95" height="1929.91"/>
	
		<rect x="1290.65" y="-317.03" transform="matrix(0.7071 0.7071 -0.7071 0.7071 840.4992 -725.6035)" class="st2" width="10.95" height="1937.61"/>
	
		<rect x="834.09" y="-290.82" transform="matrix(0.7071 0.7071 -0.7071 0.7071 631.2175 -434.0652)" class="st2" width="10.95" height="1671.47"/>
	
		<rect x="891.15" y="-292.68" transform="matrix(0.7071 0.7071 -0.7071 0.7071 652.5682 -472.4886)" class="st2" width="10.95" height="1688.3"/>
	
		<rect x="935.2" y="-316.27" transform="matrix(0.7071 0.7071 -0.7071 0.7071 676.552 -499.0426)" class="st2" width="10.95" height="1766.85"/>
	
		<rect x="984.18" y="-298.65" transform="matrix(0.7071 0.7071 -0.7071 0.7071 701.2448 -529.3976)" class="st2" width="10.95" height="1760.85"/>
	
		<rect x="1305.5" y="-206.38" transform="matrix(0.7071 0.7071 -0.7071 0.7071 879.3663 -721.8031)" class="st2" width="10.95" height="1813.94"/>
	
		<rect x="1351.16" y="-233.88" transform="matrix(0.7071 0.7071 -0.7071 0.7071 902.6817 -749.9707)" class="st2" width="10.95" height="1897.05"/>
	
		<rect x="1412.61" y="-246.33" transform="matrix(0.7071 0.7071 -0.7071 0.7071 922.2138 -792.7849)" class="st2" width="10.95" height="1926.3"/>
	
		<rect x="1444.48" y="-217.66" transform="matrix(0.7071 0.7071 -0.7071 0.7071 953.0955 -806.3965)" class="st2" width="10.95" height="1929.91"/>
	
		<rect x="1498.31" y="-211.73" transform="matrix(0.7071 0.7071 -0.7071 0.7071 975.7831 -841.5925)" class="st2" width="10.95" height="1937.61"/>
	
		<rect x="1420.02" y="-64.07" transform="matrix(0.7071 0.7071 -0.7071 0.7071 1053.2615 -744.6484)" class="st2" width="10.95" height="1926.3"/>
	
		<rect x="1451.9" y="-35.41" transform="matrix(0.7071 0.7071 -0.7071 0.7071 1084.1432 -758.2601)" class="st2" width="10.95" height="1929.91"/>
	
		<rect x="1505.72" y="-29.47" transform="matrix(0.7071 0.7071 -0.7071 0.7071 1106.8308 -793.4561)" class="st2" width="10.95" height="1937.61"/>
	
		<rect x="1520.57" y="81.18" transform="matrix(0.7071 0.7071 -0.7071 0.7071 1145.698 -789.6557)" class="st2" width="10.95" height="1813.94"/>
	
		<rect x="1566.23" y="53.69" transform="matrix(0.7071 0.7071 -0.7071 0.7071 1169.0133 -817.8233)" class="st2" width="10.95" height="1897.05"/>
	
		<rect x="1627.68" y="41.23" transform="matrix(0.7071 0.7071 -0.7071 0.7071 1188.5454 -860.6375)" class="st2" width="10.95" height="1926.3"/>
	
		<rect x="1659.55" y="69.9" transform="matrix(0.7071 0.7071 -0.7071 0.7071 1219.4271 -874.2491)" class="st2" width="10.95" height="1929.91"/>
	
		<rect x="1713.38" y="75.84" transform="matrix(0.7071 0.7071 -0.7071 0.7071 1242.1147 -909.4451)" class="st2" width="10.95" height="1937.61"/>
	
		<rect x="1735.46" y="123.79" transform="matrix(0.7071 0.7071 -0.7071 0.7071 1279.7686 -912.1426)" class="st2" width="10.95" height="1929.91"/>
	
		<rect x="1789.29" y="129.73" transform="matrix(0.7071 0.7071 -0.7071 0.7071 1302.4562 -947.3386)" class="st2" width="10.95" height="1937.61"/>
	
		<rect x="456.17" y="-400.48" transform="matrix(0.7028 -0.7114 0.7114 0.7028 -323.1436 520.7)" class="st2" width="10.95" height="2095.19"/>
	
		<rect x="630.67" y="-416.84" transform="matrix(0.7028 -0.7114 0.7114 0.7028 -259.6516 639.9668)" class="st2" width="10.95" height="2095.19"/>
	
		<rect x="741.1" y="-374.38" transform="matrix(0.7028 -0.7114 0.7114 0.7028 -257.0335 731.1381)" class="st2" width="10.95" height="2095.19"/>
	
		<rect x="646.17" y="-337.99" transform="matrix(0.7028 -0.7114 0.7114 0.7028 -311.1326 674.4204)" class="st2" width="10.95" height="2095.19"/>
	
		<rect x="628.42" y="-295.33" transform="matrix(0.7028 -0.7114 0.7114 0.7028 -346.7536 674.4753)" class="st2" width="10.95" height="2095.19"/>
	
		<rect x="392.75" y="-214.39" transform="matrix(0.7028 -0.7114 0.7114 0.7028 -474.3652 530.8853)" class="st2" width="10.95" height="2095.19"/>
	
		<rect x="567.25" y="-230.75" transform="matrix(0.7028 -0.7114 0.7114 0.7028 -410.8732 650.1521)" class="st2" width="10.95" height="2095.19"/>
	
		<rect x="582.75" y="-151.9" transform="matrix(0.7028 -0.7114 0.7114 0.7028 -462.3542 684.6057)" class="st2" width="10.95" height="2095.19"/>
	
		<rect x="565" y="-109.24" transform="matrix(0.7028 -0.7114 0.7114 0.7028 -497.9752 684.6605)" class="st2" width="10.95" height="2095.19"/>
	
		<rect x="320.62" y="-411.6" transform="matrix(0.7071 0.7071 -0.7071 0.7071 353.8432 -123.5813)" class="st2" width="10.95" height="1553.87"/>
	
		<rect x="94.02" y="-344.53" transform="matrix(0.7071 0.7071 -0.7071 0.7071 270.5725 29.646)" class="st2" width="10.95" height="1371.94"/>
	
		<rect x="161.27" y="-370.98" transform="matrix(0.7071 0.7071 -0.7071 0.7071 287.7044 -18.9628)" class="st2" width="10.95" height="1417.57"/>
	
		<rect x="201.58" y="-385.57" transform="matrix(0.7071 0.7071 -0.7071 0.7071 313.2335 -41.786)" class="st2" width="10.95" height="1485.56"/>
	
		<rect x="258.1" y="-386.12" transform="matrix(0.7071 0.7071 -0.7071 0.7071 334.8071 -79.6715)" class="st2" width="10.95" height="1500.87"/>
	
		<rect x="148.3" y="-554.13" transform="matrix(0.7071 0.7071 -0.7071 0.7071 202.5836 -43.4825)" class="st2" width="10.95" height="1553.87"/>
	
		<rect x="-78.29" y="-487.07" transform="matrix(0.7071 0.7071 -0.7071 0.7071 119.3129 109.7448)" class="st2" width="10.95" height="1371.94"/>
	
		<rect x="-11.05" y="-513.51" transform="matrix(0.7071 0.7071 -0.7071 0.7071 136.4448 61.136)" class="st2" width="10.95" height="1417.57"/>
	
		<rect x="29.26" y="-528.11" transform="matrix(0.7071 0.7071 -0.7071 0.7071 161.9739 38.3128)" class="st2" width="10.95" height="1485.56"/>
	
		<rect x="85.78" y="-528.66" transform="matrix(0.7071 0.7071 -0.7071 0.7071 183.5475 0.4273)" class="st2" width="10.95" height="1500.87"/>
	
		<rect x="809.86" y="-672.14" transform="matrix(0.7028 -0.7114 0.7114 0.7028 -61.05 706.7181)" class="st2" width="10.95" height="2197.14"/>
	
		<rect x="988.26" y="-684.65" transform="matrix(0.7028 -0.7114 0.7114 0.7028 0.8605 829.9027)" class="st2" width="10.95" height="2197.14"/>
	
		<rect x="1102.44" y="-638.49" transform="matrix(0.7028 -0.7114 0.7114 0.7028 1.9566 924.8444)" class="st2" width="10.95" height="2197.14"/>
	
		<rect x="1006.05" y="-603.53" transform="matrix(0.7028 -0.7114 0.7114 0.7028 -51.5534 866.6674)" class="st2" width="10.95" height="2197.14"/>
	
		<rect x="988.91" y="-560.28" transform="matrix(0.7028 -0.7114 0.7114 0.7028 -87.4181 867.3261)" class="st2" width="10.95" height="2197.14"/>
	
		<rect x="749.41" y="-483.12" transform="matrix(0.7028 -0.7114 0.7114 0.7028 -213.4746 719.8835)" class="st2" width="10.95" height="2197.14"/>
	
		<rect x="927.8" y="-495.63" transform="matrix(0.7028 -0.7114 0.7114 0.7028 -151.5641 843.0682)" class="st2" width="10.95" height="2197.14"/>
	
		<rect x="945.6" y="-414.51" transform="matrix(0.7028 -0.7114 0.7114 0.7028 -203.978 879.8328)" class="st2" width="10.95" height="2197.14"/>
	
		<rect x="928.46" y="-371.26" transform="matrix(0.7028 -0.7114 0.7114 0.7028 -239.8427 880.4916)" class="st2" width="10.95" height="2197.14"/>
	
		<rect x="1235.1" y="-816.33" transform="matrix(0.7028 -0.7114 0.7114 0.7028 167.8839 966.3623)" class="st2" width="10.95" height="2197.14"/>
	
		<rect x="1413.49" y="-828.83" transform="matrix(0.7028 -0.7114 0.7114 0.7028 229.7944 1089.547)" class="st2" width="10.95" height="2197.14"/>
	
		<rect x="1527.67" y="-782.68" transform="matrix(0.7028 -0.7114 0.7114 0.7028 230.8906 1184.4886)" class="st2" width="10.95" height="2197.14"/>
	
		<rect x="1431.29" y="-747.72" transform="matrix(0.7028 -0.7114 0.7114 0.7028 177.3806 1126.3116)" class="st2" width="10.95" height="2197.14"/>
	
		<rect x="1414.14" y="-704.46" transform="matrix(0.7028 -0.7114 0.7114 0.7028 141.5158 1126.9703)" class="st2" width="10.95" height="2197.14"/>
	
		<rect x="1174.64" y="-627.31" transform="matrix(0.7028 -0.7114 0.7114 0.7028 15.4593 979.5278)" class="st2" width="10.95" height="2197.14"/>
	
		<rect x="1353.04" y="-639.82" transform="matrix(0.7028 -0.7114 0.7114 0.7028 77.3698 1102.7124)" class="st2" width="10.95" height="2197.14"/>
	
		<rect x="1370.83" y="-558.7" transform="matrix(0.7028 -0.7114 0.7114 0.7028 24.956 1139.4771)" class="st2" width="10.95" height="2197.14"/>
	
		<rect x="1353.69" y="-515.44" transform="matrix(0.7028 -0.7114 0.7114 0.7028 -10.9088 1140.1359)" class="st2" width="10.95" height="2197.14"/>
	
		<rect x="1450.17" y="-1179.48" transform="matrix(0.7028 -0.7114 0.7114 0.7028 490.1248 1011.4379)" class="st2" width="10.95" height="2197.14"/>
	
		<rect x="1628.56" y="-1191.98" transform="matrix(0.7028 -0.7114 0.7114 0.7028 552.0353 1134.6226)" class="st2" width="10.95" height="2197.14"/>
	
		<rect x="1742.75" y="-1145.83" transform="matrix(0.7028 -0.7114 0.7114 0.7028 553.1315 1229.5643)" class="st2" width="10.95" height="2197.14"/>
	
		<rect x="1646.36" y="-1110.87" transform="matrix(0.7028 -0.7114 0.7114 0.7028 499.6215 1171.3872)" class="st2" width="10.95" height="2197.14"/>
	
		<rect x="1629.21" y="-1067.61" transform="matrix(0.7028 -0.7114 0.7114 0.7028 463.7567 1172.046)" class="st2" width="10.95" height="2197.14"/>
	
		<rect x="1389.71" y="-990.46" transform="matrix(0.7028 -0.7114 0.7114 0.7028 337.7002 1024.6034)" class="st2" width="10.95" height="2197.14"/>
	
		<rect x="1568.11" y="-1002.97" transform="matrix(0.7028 -0.7114 0.7114 0.7028 399.6107 1147.7881)" class="st2" width="10.95" height="2197.14"/>
	
		<rect x="1585.9" y="-921.85" transform="matrix(0.7028 -0.7114 0.7114 0.7028 347.1969 1184.5527)" class="st2" width="10.95" height="2197.14"/>
	
		<rect x="1568.76" y="-878.59" transform="matrix(0.7028 -0.7114 0.7114 0.7028 311.3322 1185.2114)" class="st2" width="10.95" height="2197.14"/>
	
		<rect x="1742.75" y="-1208.42" transform="matrix(0.7028 -0.7114 0.7114 0.7028 597.6611 1210.9622)" class="st2" width="10.95" height="2197.14"/>
	
		<rect x="1777.57" y="203.85" transform="matrix(0.7071 0.7071 -0.7071 0.7071 1351.4324 -917.3392)" class="st2" width="10.95" height="1937.61"/>
	
		<rect x="15.43" y="-645.16" transform="matrix(0.7071 0.7071 -0.7071 0.7071 34.983 -2.832)" class="st2" width="10.95" height="1371.94"/>
</g>
</svg>
