<svg width="1440" height="1024" viewBox="0 0 1440 1024" fill="none" xmlns="http://www.w3.org/2000/svg">
<path d="M-27.6689 -37.5371L-2.91539 -54.187C21.84 -70.5712 71.347 -103.871 121.095 -104.504C170.842 -105.403 220.827 -73.9003 270.783 -46.3817C320.74 -18.8631 370.666 4.67185 420.273 -15.0832C469.879 -35.1038 519.166 -98.1487 568.682 -130.12C618.201 -161.827 667.951 -162.194 717.845 -143.174C767.74 -123.889 817.777 -85.4811 867.702 -62.2118C917.625 -39.2081 967.434 -31.6081 1017.23 -25.336C1067.03 -19.064 1116.82 -14.1198 1166.52 -21.9236C1216.21 -29.993 1265.81 -50.5448 1315.38 -75.3459C1364.95 -100.147 1414.49 -128.666 1439.26 -143.191L1464.03 -157.451L1473.25 1090.79L1448.38 1090.97C1423.5 1091.15 1373.75 1091.52 1324 1091.89C1274.25 1092.26 1224.5 1092.62 1174.75 1092.99C1125 1093.36 1075.25 1093.73 1025.5 1094.09C975.752 1094.46 926.002 1094.83 876.252 1095.2C826.501 1095.56 776.751 1095.93 727.001 1096.3C677.251 1096.67 627.5 1097.03 577.75 1097.4C528 1097.77 478.25 1098.14 428.5 1098.5C378.749 1098.87 328.999 1099.24 279.249 1099.61C229.499 1099.97 179.748 1100.34 129.998 1100.71C80.2479 1101.08 30.4977 1101.44 5.6226 1101.63L-19.2525 1101.81L-27.6689 -37.5371Z" fill="#EEB1B8"/>
<path d="M-25.3929 270.538L-0.449155 279.65C24.4946 288.762 74.3822 306.985 124.244 321.756C174.104 336.261 223.941 347.579 273.628 338.713C323.316 329.846 372.858 301.327 422.422 275.729C471.986 250.132 521.571 227.455 571.365 232.93C621.158 238.406 671.155 271.502 720.807 257.855C770.46 244.208 819.766 183.819 869.297 153.707C918.827 123.594 968.586 124.289 1018.45 138.794C1068.31 153.564 1118.27 182.411 1168.19 204.087C1218.1 226.028 1267.96 240.533 1317.77 247.337C1367.57 254.14 1417.31 252.71 1442.18 252.261L1467.05 251.546L1473.25 1090.79L1448.38 1090.97C1423.5 1091.15 1373.75 1091.52 1324 1091.89C1274.25 1092.26 1224.5 1092.62 1174.75 1092.99C1125 1093.36 1075.25 1093.73 1025.5 1094.09C975.752 1094.46 926.002 1094.83 876.252 1095.2C826.501 1095.56 776.751 1095.93 727.001 1096.3C677.251 1096.67 627.501 1097.03 577.75 1097.4C528 1097.77 478.25 1098.14 428.5 1098.5C378.749 1098.87 328.999 1099.24 279.249 1099.61C229.499 1099.97 179.749 1100.34 129.998 1100.71C80.2481 1101.08 30.4979 1101.44 5.62278 1101.63L-19.2523 1101.81L-25.3929 270.538Z" fill="#ECA8AF"/>
<path d="M-24.8827 339.59L0.0218179 343.39C24.9264 347.19 74.7354 354.79 124.531 360.531C174.328 366.537 224.11 370.419 274.011 390.501C323.912 410.584 373.929 446.335 423.66 443.312C473.391 440.289 522.835 398.49 572.644 406.09C622.453 413.69 672.627 470.688 722.299 459.698C771.97 448.707 821.14 369.727 870.645 336.162C920.15 302.597 969.99 314.446 1019.7 307.97C1069.4 301.494 1118.97 276.162 1168.73 278.184C1218.5 279.942 1268.47 308.788 1318.22 308.952C1367.97 308.85 1417.51 280.331 1442.28 265.805L1467.06 251.546L1473.25 1090.79L1448.38 1090.97C1423.5 1091.15 1373.75 1091.52 1324 1091.89C1274.25 1092.26 1224.5 1092.62 1174.75 1092.99C1125 1093.36 1075.25 1093.73 1025.5 1094.09C975.752 1094.46 926.002 1094.83 876.252 1095.2C826.502 1095.56 776.751 1095.93 727.001 1096.3C677.251 1096.67 627.501 1097.03 577.75 1097.4C528 1097.77 478.25 1098.14 428.5 1098.5C378.75 1098.87 328.999 1099.24 279.249 1099.61C229.499 1099.97 179.749 1100.34 129.998 1100.71C80.2482 1101.08 30.498 1101.44 5.62291 1101.63L-19.2522 1101.81L-24.8827 339.59Z" fill="#EA9EA6"/>
<path d="M-23.647 506.907L1.41844 532.484C26.4819 557.797 76.6127 608.952 126.434 618.145C176.256 627.604 225.771 595.367 275.545 598.187C325.317 600.741 375.349 638.617 425.298 665.073C475.248 691.795 525.116 707.362 574.709 685.748C624.303 664.134 673.621 605.339 723.326 598.863C773.03 592.121 823.121 637.965 873.009 656.188C922.896 674.412 972.58 665.014 1022.26 654.555C1071.93 644.095 1121.59 632.042 1171.23 616.271C1220.87 600.499 1270.47 580.479 1320.15 570.816C1369.84 561.153 1419.59 561.848 1444.47 561.93L1469.35 562.277L1473.25 1090.79L1448.38 1090.97C1423.5 1091.15 1373.75 1091.52 1324 1091.89C1274.25 1092.26 1224.5 1092.62 1174.75 1092.99C1125 1093.36 1075.25 1093.73 1025.5 1094.09C975.752 1094.46 926.002 1094.83 876.252 1095.2C826.501 1095.56 776.751 1095.93 727.001 1096.3C677.251 1096.67 627.5 1097.03 577.75 1097.4C528 1097.77 478.25 1098.14 428.5 1098.5C378.749 1098.87 328.999 1099.24 279.249 1099.61C229.499 1099.97 179.748 1100.34 129.998 1100.71C80.248 1101.08 30.4978 1101.44 5.62269 1101.63L-19.2524 1101.81L-23.647 506.907Z" fill="#E8949D"/>
<path d="M-21.7832 759.21L3.21354 775.492C28.2083 791.509 78.2018 824.074 127.925 819.988C177.649 816.168 227.105 775.963 276.855 775.596C326.606 775.228 376.65 814.698 426.406 815.127C476.164 815.822 525.632 777.211 575.396 778.702C625.16 780.194 675.216 821.257 724.996 824.873C774.776 828.49 824.279 794.659 873.921 779.684C923.563 764.71 973.345 768.591 1023.29 793.985C1073.23 819.379 1123.32 865.754 1173.22 885.306C1223.12 904.857 1272.82 897.584 1322.56 896.154C1372.3 894.99 1422.09 899.934 1446.99 902.406L1471.88 904.878L1473.25 1090.79L1448.38 1090.97C1423.5 1091.15 1373.75 1091.52 1324 1091.89C1274.25 1092.26 1224.5 1092.62 1174.75 1092.99C1125 1093.36 1075.25 1093.73 1025.5 1094.09C975.752 1094.46 926.002 1094.83 876.252 1095.2C826.501 1095.56 776.751 1095.93 727.001 1096.3C677.251 1096.67 627.501 1097.03 577.75 1097.4C528 1097.77 478.25 1098.14 428.5 1098.5C378.749 1098.87 328.999 1099.24 279.249 1099.61C229.499 1099.97 179.748 1100.34 129.998 1100.71C80.248 1101.08 30.4978 1101.44 5.6227 1101.63L-19.2524 1101.81L-21.7832 759.21Z" fill="#E58A94"/>
<path d="M786.644 468.469C824.394 489.633 877.362 484.581 894.605 506.576C911.847 528.571 927.355 557.763 894.605 572.653C894.605 591.667 875.894 578.368 800.229 565.611C763.296 570.751 654.864 562.118 629.969 560.682C605.075 559.246 562.779 550.118 535.693 535.33C514.675 514.166 530.68 522.394 533.231 498.358C535.781 474.398 521.788 461.073 551.171 438.851C557.152 434.328 576.148 423.71 604.641 438.851C643.492 443.81 681.414 484.363 786.644 468.469Z" fill="#AF2134"/>
<path d="M829.237 465.267C862.543 465.267 896.49 485.122 909.62 523.444C917.553 546.595 899.052 546.93 853.507 559.397C815.55 573.013 754.842 570.666 708.836 568.409C662.937 566.09 612.052 569.918 582.325 562.943C552.602 556.021 544.033 538.243 541.214 523.444C538.395 508.645 538.271 483.483 566.312 473.273C594.358 463.115 650.564 467.856 682.883 465.267C715.315 462.666 771.619 461.619 829.237 465.267Z" fill="#D54252"/>
<mask id="mask0_391_43" style="mask-type:luminance" maskUnits="userSpaceOnUse" x="868" y="456" width="13" height="14">
<path d="M880.478 462.944C880.478 463.151 880.467 463.357 880.448 463.564C880.428 463.77 880.4 463.974 880.361 464.178C880.321 464.381 880.273 464.581 880.215 464.78C880.157 464.978 880.09 465.173 880.015 465.364C879.938 465.555 879.853 465.742 879.759 465.925C879.665 466.107 879.562 466.285 879.452 466.457C879.342 466.629 879.222 466.795 879.095 466.956C878.97 467.116 878.836 467.27 878.696 467.415C878.554 467.562 878.406 467.7 878.253 467.832C878.098 467.963 877.939 468.087 877.772 468.203C877.607 468.317 877.436 468.424 877.261 468.522C877.085 468.618 876.906 468.708 876.721 468.786C876.537 468.866 876.35 468.936 876.159 468.996C875.968 469.056 875.775 469.106 875.58 469.147C875.385 469.187 875.187 469.217 874.989 469.238C874.791 469.257 874.592 469.267 874.393 469.267C874.194 469.267 873.994 469.257 873.797 469.238C873.597 469.217 873.401 469.187 873.206 469.147C873.011 469.106 872.817 469.056 872.626 468.996C872.436 468.936 872.248 468.866 872.064 468.786C871.88 468.708 871.7 468.618 871.525 468.522C871.348 468.424 871.178 468.317 871.012 468.203C870.846 468.087 870.686 467.963 870.533 467.832C870.378 467.7 870.231 467.562 870.09 467.415C869.949 467.27 869.815 467.116 869.689 466.956C869.562 466.795 869.444 466.629 869.334 466.457C869.222 466.285 869.12 466.107 869.027 465.925C868.933 465.742 868.848 465.555 868.771 465.364C868.694 465.173 868.627 464.978 868.569 464.78C868.511 464.581 868.464 464.381 868.425 464.178C868.386 463.974 868.357 463.77 868.338 463.564C868.318 463.357 868.308 463.151 868.308 462.944C868.308 462.736 868.318 462.53 868.338 462.323C868.357 462.118 868.386 461.913 868.425 461.71C868.464 461.506 868.511 461.306 868.569 461.108C868.627 460.909 868.694 460.714 868.771 460.523C868.848 460.333 868.933 460.145 869.027 459.962C869.12 459.78 869.222 459.602 869.334 459.43C869.444 459.258 869.562 459.092 869.689 458.931C869.815 458.771 869.949 458.618 870.09 458.472C870.231 458.325 870.378 458.187 870.533 458.055C870.686 457.924 870.846 457.801 871.012 457.686C871.178 457.57 871.348 457.464 871.525 457.366C871.7 457.269 871.88 457.18 872.064 457.101C872.248 457.021 872.436 456.952 872.626 456.891C872.817 456.831 873.011 456.781 873.206 456.74C873.401 456.701 873.597 456.67 873.797 456.649C873.994 456.63 874.194 456.62 874.393 456.62C874.592 456.62 874.791 456.63 874.989 456.649C875.187 456.67 875.385 456.701 875.58 456.74C875.775 456.781 875.968 456.831 876.159 456.891C876.35 456.952 876.537 457.021 876.721 457.101C876.906 457.18 877.085 457.269 877.261 457.366C877.436 457.464 877.607 457.57 877.772 457.686C877.939 457.801 878.098 457.924 878.253 458.055C878.406 458.187 878.554 458.325 878.696 458.472C878.836 458.618 878.97 458.771 879.095 458.931C879.222 459.092 879.342 459.258 879.452 459.43C879.562 459.602 879.665 459.78 879.759 459.962C879.853 460.145 879.938 460.333 880.015 460.523C880.09 460.714 880.157 460.909 880.215 461.108C880.273 461.306 880.321 461.506 880.361 461.71C880.4 461.913 880.428 462.118 880.448 462.323C880.467 462.53 880.478 462.736 880.478 462.944Z" fill="white"/>
</mask>
<g mask="url(#mask0_391_43)">
<path d="M868.308 456.62V469.317H880.679V456.62H868.308Z" fill="#D54252"/>
</g>
<mask id="mask1_391_43" style="mask-type:luminance" maskUnits="userSpaceOnUse" x="884" y="450" width="8" height="8">
<path d="M891.366 453.876C891.366 453.996 891.36 454.115 891.349 454.235C891.337 454.354 891.321 454.473 891.298 454.591C891.275 454.708 891.247 454.824 891.214 454.939C891.18 455.054 891.141 455.167 891.098 455.278C891.053 455.388 891.004 455.496 890.95 455.602C890.895 455.708 890.836 455.81 890.772 455.91C890.708 456.01 890.639 456.106 890.566 456.199C890.493 456.291 890.415 456.381 890.334 456.465C890.252 456.55 890.167 456.63 890.078 456.706C889.988 456.782 889.896 456.854 889.8 456.921C889.704 456.987 889.605 457.049 889.504 457.105C889.401 457.161 889.298 457.213 889.191 457.258C889.084 457.305 888.976 457.345 888.865 457.38C888.755 457.415 888.643 457.444 888.53 457.467C888.417 457.491 888.303 457.508 888.188 457.52C888.074 457.531 887.958 457.537 887.843 457.537C887.728 457.537 887.612 457.531 887.498 457.52C887.383 457.508 887.269 457.491 887.156 457.467C887.043 457.444 886.931 457.415 886.82 457.38C886.71 457.345 886.601 457.305 886.495 457.258C886.388 457.213 886.284 457.161 886.183 457.105C886.081 457.049 885.982 456.987 885.886 456.921C885.79 456.854 885.697 456.782 885.608 456.706C885.519 456.63 885.434 456.55 885.352 456.465C885.27 456.381 885.193 456.291 885.12 456.199C885.047 456.106 884.978 456.01 884.914 455.91C884.849 455.81 884.79 455.708 884.736 455.602C884.682 455.496 884.633 455.388 884.588 455.278C884.544 455.167 884.505 455.054 884.471 454.939C884.438 454.824 884.411 454.708 884.388 454.591C884.366 454.473 884.348 454.354 884.337 454.235C884.326 454.115 884.32 453.996 884.32 453.876C884.32 453.756 884.326 453.637 884.337 453.517C884.348 453.398 884.366 453.28 884.388 453.162C884.411 453.044 884.438 452.928 884.471 452.813C884.505 452.698 884.544 452.585 884.588 452.475C884.633 452.364 884.682 452.256 884.736 452.15C884.79 452.045 884.849 451.942 884.914 451.842C884.978 451.742 885.047 451.646 885.12 451.553C885.193 451.461 885.27 451.371 885.352 451.287C885.434 451.202 885.519 451.122 885.608 451.046C885.697 450.97 885.79 450.899 885.886 450.832C885.982 450.765 886.081 450.703 886.183 450.647C886.284 450.591 886.388 450.539 886.495 450.494C886.601 450.447 886.71 450.407 886.82 450.372C886.931 450.337 887.043 450.308 887.156 450.285C887.269 450.262 887.383 450.244 887.498 450.232C887.612 450.221 887.728 450.215 887.843 450.215C887.958 450.215 888.074 450.221 888.188 450.232C888.303 450.244 888.417 450.262 888.53 450.285C888.643 450.308 888.755 450.337 888.865 450.372C888.976 450.407 889.084 450.447 889.191 450.494C889.298 450.539 889.401 450.591 889.504 450.647C889.605 450.703 889.704 450.765 889.8 450.832C889.896 450.899 889.988 450.97 890.078 451.046C890.167 451.122 890.252 451.202 890.334 451.287C890.415 451.371 890.493 451.461 890.566 451.553C890.639 451.646 890.708 451.742 890.772 451.842C890.836 451.942 890.895 452.045 890.95 452.15C891.004 452.256 891.053 452.364 891.098 452.475C891.141 452.585 891.18 452.698 891.214 452.813C891.247 452.928 891.275 453.044 891.298 453.162C891.321 453.28 891.337 453.398 891.349 453.517C891.36 453.637 891.366 453.756 891.366 453.876Z" fill="white"/>
</mask>
<g mask="url(#mask1_391_43)">
<path d="M884.32 450.215V457.566H891.483V450.215H884.32Z" fill="#D54252"/>
</g>
<mask id="mask2_391_43" style="mask-type:luminance" maskUnits="userSpaceOnUse" x="640" y="570" width="14" height="14">
<path d="M653.1 576.953C653.1 577.16 653.089 577.366 653.071 577.573C653.05 577.779 653.022 577.983 652.983 578.187C652.944 578.39 652.896 578.59 652.838 578.789C652.78 578.987 652.713 579.182 652.637 579.373C652.56 579.564 652.476 579.751 652.381 579.934C652.287 580.116 652.185 580.294 652.075 580.466C651.964 580.638 651.844 580.804 651.718 580.965C651.593 581.125 651.458 581.279 651.318 581.424C651.177 581.571 651.029 581.709 650.875 581.841C650.721 581.972 650.562 582.096 650.395 582.212C650.229 582.326 650.058 582.433 649.883 582.531C649.707 582.627 649.528 582.717 649.344 582.795C649.159 582.875 648.972 582.945 648.781 583.005C648.59 583.065 648.398 583.115 648.202 583.156C648.007 583.196 647.809 583.226 647.612 583.247C647.414 583.266 647.215 583.276 647.015 583.276C646.816 583.276 646.617 583.266 646.419 583.247C646.22 583.226 646.023 583.196 645.828 583.156C645.633 583.115 645.439 583.065 645.248 583.005C645.058 582.945 644.87 582.875 644.687 582.795C644.503 582.717 644.322 582.627 644.147 582.531C643.971 582.433 643.8 582.326 643.635 582.212C643.469 582.096 643.309 581.972 643.155 581.841C643.001 581.709 642.854 581.571 642.713 581.424C642.571 581.279 642.438 581.125 642.312 580.965C642.185 580.804 642.067 580.638 641.956 580.466C641.845 580.294 641.742 580.116 641.649 579.934C641.555 579.751 641.47 579.564 641.394 579.373C641.317 579.182 641.25 578.987 641.192 578.789C641.134 578.59 641.087 578.39 641.048 578.187C641.009 577.983 640.979 577.779 640.96 577.573C640.94 577.366 640.931 577.16 640.931 576.953C640.931 576.745 640.94 576.539 640.96 576.332C640.979 576.127 641.009 575.922 641.048 575.719C641.087 575.515 641.134 575.315 641.192 575.117C641.25 574.918 641.317 574.723 641.394 574.532C641.47 574.342 641.555 574.154 641.649 573.971C641.742 573.789 641.845 573.611 641.956 573.439C642.067 573.267 642.185 573.101 642.312 572.94C642.438 572.78 642.571 572.627 642.713 572.481C642.854 572.334 643.001 572.196 643.155 572.064C643.309 571.933 643.469 571.81 643.635 571.695C643.8 571.579 643.971 571.472 644.147 571.375C644.322 571.278 644.503 571.189 644.687 571.11C644.87 571.03 645.058 570.961 645.248 570.9C645.439 570.84 645.633 570.79 645.828 570.749C646.023 570.71 646.22 570.679 646.419 570.658C646.617 570.639 646.816 570.629 647.015 570.629C647.215 570.629 647.414 570.639 647.612 570.658C647.809 570.679 648.007 570.71 648.202 570.749C648.398 570.79 648.59 570.84 648.781 570.9C648.972 570.961 649.159 571.03 649.344 571.11C649.528 571.189 649.707 571.278 649.883 571.375C650.058 571.472 650.229 571.579 650.395 571.695C650.562 571.81 650.721 571.933 650.875 572.064C651.029 572.196 651.177 572.334 651.318 572.481C651.458 572.627 651.593 572.78 651.718 572.94C651.844 573.101 651.964 573.267 652.075 573.439C652.185 573.611 652.287 573.789 652.381 573.971C652.476 574.154 652.56 574.342 652.637 574.532C652.713 574.723 652.78 574.918 652.838 575.117C652.896 575.315 652.944 575.515 652.983 575.719C653.022 575.922 653.05 576.127 653.071 576.332C653.089 576.539 653.1 576.745 653.1 576.953Z" fill="white"/>
</mask>
<g mask="url(#mask2_391_43)">
<path d="M640.931 570.629V583.326H653.302V570.629H640.931Z" fill="#D54252"/>
</g>
<mask id="mask3_391_43" style="mask-type:luminance" maskUnits="userSpaceOnUse" x="627" y="576" width="8" height="8">
<path d="M634.525 580.055C634.525 580.175 634.519 580.294 634.508 580.414C634.497 580.533 634.48 580.651 634.458 580.769C634.435 580.887 634.407 581.002 634.374 581.117C634.34 581.232 634.301 581.345 634.257 581.456C634.213 581.566 634.164 581.675 634.109 581.781C634.055 581.886 633.996 581.989 633.932 582.089C633.868 582.188 633.798 582.285 633.725 582.378C633.653 582.47 633.575 582.559 633.494 582.643C633.412 582.728 633.326 582.809 633.237 582.885C633.148 582.961 633.056 583.032 632.959 583.099C632.863 583.166 632.764 583.227 632.663 583.284C632.561 583.34 632.457 583.392 632.351 583.437C632.244 583.483 632.136 583.524 632.025 583.558C631.914 583.593 631.803 583.622 631.69 583.646C631.577 583.669 631.462 583.686 631.348 583.699C631.233 583.71 631.118 583.716 631.003 583.716C630.887 583.716 630.772 583.71 630.658 583.699C630.542 583.686 630.428 583.669 630.315 583.646C630.202 583.622 630.09 583.593 629.98 583.558C629.87 583.524 629.761 583.483 629.655 583.437C629.548 583.392 629.444 583.34 629.342 583.284C629.24 583.227 629.141 583.166 629.045 583.099C628.95 583.032 628.857 582.961 628.768 582.885C628.678 582.809 628.593 582.728 628.512 582.643C628.43 582.559 628.353 582.47 628.279 582.378C628.206 582.285 628.138 582.188 628.074 582.089C628.009 581.989 627.95 581.886 627.896 581.781C627.842 581.675 627.792 581.566 627.748 581.456C627.704 581.345 627.665 581.232 627.631 581.117C627.598 581.002 627.57 580.887 627.548 580.769C627.525 580.651 627.508 580.533 627.497 580.414C627.485 580.294 627.48 580.175 627.48 580.055C627.48 579.934 627.485 579.815 627.497 579.695C627.508 579.576 627.525 579.458 627.548 579.341C627.57 579.222 627.598 579.107 627.631 578.992C627.665 578.877 627.704 578.764 627.748 578.653C627.792 578.543 627.842 578.434 627.896 578.328C627.95 578.223 628.009 578.12 628.074 578.021C628.138 577.921 628.206 577.825 628.279 577.731C628.353 577.639 628.43 577.55 628.512 577.466C628.593 577.381 628.678 577.301 628.768 577.224C628.857 577.148 628.95 577.077 629.045 577.011C629.141 576.943 629.24 576.882 629.342 576.825C629.444 576.769 629.548 576.717 629.655 576.672C629.761 576.626 629.87 576.585 629.98 576.551C630.09 576.516 630.202 576.487 630.315 576.463C630.428 576.44 630.542 576.423 630.658 576.411C630.772 576.399 630.887 576.393 631.003 576.393C631.118 576.393 631.233 576.399 631.348 576.411C631.462 576.423 631.577 576.44 631.69 576.463C631.803 576.487 631.914 576.516 632.025 576.551C632.136 576.585 632.244 576.626 632.351 576.672C632.457 576.717 632.561 576.769 632.663 576.825C632.764 576.882 632.863 576.943 632.959 577.011C633.056 577.077 633.148 577.148 633.237 577.224C633.326 577.301 633.412 577.381 633.494 577.466C633.575 577.55 633.653 577.639 633.725 577.731C633.798 577.825 633.868 577.921 633.932 578.021C633.996 578.12 634.055 578.223 634.109 578.328C634.164 578.434 634.213 578.543 634.257 578.653C634.301 578.764 634.34 578.877 634.374 578.992C634.407 579.107 634.435 579.222 634.458 579.341C634.48 579.458 634.497 579.576 634.508 579.695C634.519 579.815 634.525 579.934 634.525 580.055Z" fill="white"/>
</mask>
<g mask="url(#mask3_391_43)">
<path d="M627.48 576.393V583.744H634.642V576.393H627.48Z" fill="#D54252"/>
</g>
<g filter="url(#filter0_d_391_43)">
<path d="M607.608 529.224C605.496 529.224 603.555 528.733 601.784 527.752C600.035 526.771 598.637 525.405 597.592 523.656C596.568 521.885 596.056 519.901 596.056 517.704C596.056 515.507 596.568 513.533 597.592 511.784C598.637 510.035 600.035 508.669 601.784 507.688C603.555 506.707 605.496 506.216 607.608 506.216C609.72 506.216 611.651 506.707 613.4 507.688C615.171 508.669 616.557 510.035 617.56 511.784C618.584 513.533 619.096 515.507 619.096 517.704C619.096 519.901 618.584 521.885 617.56 523.656C616.536 525.405 615.149 526.771 613.4 527.752C611.651 528.733 609.72 529.224 607.608 529.224ZM607.608 524.232C609.4 524.232 610.829 523.635 611.896 522.44C612.984 521.245 613.528 519.667 613.528 517.704C613.528 515.72 612.984 514.141 611.896 512.968C610.829 511.773 609.4 511.176 607.608 511.176C605.795 511.176 604.344 511.763 603.256 512.936C602.189 514.109 601.656 515.699 601.656 517.704C601.656 519.688 602.189 521.277 603.256 522.472C604.344 523.645 605.795 524.232 607.608 524.232ZM627.516 506.536V519.976C627.516 521.32 627.847 522.355 628.508 523.08C629.17 523.805 630.14 524.168 631.42 524.168C632.7 524.168 633.682 523.805 634.364 523.08C635.047 522.355 635.388 521.32 635.388 519.976V506.536H640.86V519.944C640.86 521.949 640.434 523.645 639.58 525.032C638.727 526.419 637.575 527.464 636.124 528.168C634.695 528.872 633.095 529.224 631.324 529.224C629.554 529.224 627.964 528.883 626.556 528.2C625.17 527.496 624.071 526.451 623.26 525.064C622.45 523.656 622.044 521.949 622.044 519.944V506.536H627.516ZM656.159 529L651.487 520.52H650.175V529H644.703V506.536H653.887C655.657 506.536 657.161 506.845 658.399 507.464C659.657 508.083 660.596 508.936 661.215 510.024C661.833 511.091 662.143 512.285 662.143 513.608C662.143 515.101 661.716 516.435 660.863 517.608C660.031 518.781 658.793 519.613 657.151 520.104L662.335 529H656.159ZM650.175 516.648H653.567C654.569 516.648 655.316 516.403 655.807 515.912C656.319 515.421 656.575 514.728 656.575 513.832C656.575 512.979 656.319 512.307 655.807 511.816C655.316 511.325 654.569 511.08 653.567 511.08H650.175V516.648ZM689.479 513.768C689.479 515.069 689.18 516.264 688.583 517.352C687.986 518.419 687.068 519.283 685.831 519.944C684.594 520.605 683.058 520.936 681.223 520.936H677.831V529H672.359V506.536H681.223C683.015 506.536 684.53 506.845 685.767 507.464C687.004 508.083 687.932 508.936 688.551 510.024C689.17 511.112 689.479 512.36 689.479 513.768ZM680.807 516.584C681.852 516.584 682.631 516.339 683.143 515.848C683.655 515.357 683.911 514.664 683.911 513.768C683.911 512.872 683.655 512.179 683.143 511.688C682.631 511.197 681.852 510.952 680.807 510.952H677.831V516.584H680.807ZM703.784 529L699.112 520.52H697.8V529H692.328V506.536H701.512C703.282 506.536 704.786 506.845 706.024 507.464C707.282 508.083 708.221 508.936 708.84 510.024C709.458 511.091 709.768 512.285 709.768 513.608C709.768 515.101 709.341 516.435 708.488 517.608C707.656 518.781 706.418 519.613 704.776 520.104L709.96 529H703.784ZM697.8 516.648H701.192C702.194 516.648 702.941 516.403 703.432 515.912C703.944 515.421 704.2 514.728 704.2 513.832C704.2 512.979 703.944 512.307 703.432 511.816C702.941 511.325 702.194 511.08 701.192 511.08H697.8V516.648ZM723.827 529.224C721.715 529.224 719.773 528.733 718.003 527.752C716.253 526.771 714.856 525.405 713.811 523.656C712.787 521.885 712.275 519.901 712.275 517.704C712.275 515.507 712.787 513.533 713.811 511.784C714.856 510.035 716.253 508.669 718.003 507.688C719.773 506.707 721.715 506.216 723.827 506.216C725.939 506.216 727.869 506.707 729.619 507.688C731.389 508.669 732.776 510.035 733.779 511.784C734.803 513.533 735.315 515.507 735.315 517.704C735.315 519.901 734.803 521.885 733.779 523.656C732.755 525.405 731.368 526.771 729.619 527.752C727.869 528.733 725.939 529.224 723.827 529.224ZM723.827 524.232C725.619 524.232 727.048 523.635 728.115 522.44C729.203 521.245 729.747 519.667 729.747 517.704C729.747 515.72 729.203 514.141 728.115 512.968C727.048 511.773 725.619 511.176 723.827 511.176C722.013 511.176 720.563 511.763 719.475 512.936C718.408 514.109 717.875 515.699 717.875 517.704C717.875 519.688 718.408 521.277 719.475 522.472C720.563 523.645 722.013 524.232 723.827 524.232ZM746.775 506.536C749.143 506.536 751.212 507.005 752.983 507.944C754.754 508.883 756.119 510.205 757.079 511.912C758.06 513.597 758.551 515.549 758.551 517.768C758.551 519.965 758.06 521.917 757.079 523.624C756.119 525.331 754.743 526.653 752.951 527.592C751.18 528.531 749.122 529 746.775 529H738.359V506.536H746.775ZM746.423 524.264C748.492 524.264 750.103 523.699 751.255 522.568C752.407 521.437 752.983 519.837 752.983 517.768C752.983 515.699 752.407 514.088 751.255 512.936C750.103 511.784 748.492 511.208 746.423 511.208H743.831V524.264H746.423ZM766.985 506.536V519.976C766.985 521.32 767.316 522.355 767.977 523.08C768.638 523.805 769.609 524.168 770.889 524.168C772.169 524.168 773.15 523.805 773.833 523.08C774.516 522.355 774.857 521.32 774.857 519.976V506.536H780.329V519.944C780.329 521.949 779.902 523.645 779.049 525.032C778.196 526.419 777.044 527.464 775.593 528.168C774.164 528.872 772.564 529.224 770.793 529.224C769.022 529.224 767.433 528.883 766.025 528.2C764.638 527.496 763.54 526.451 762.729 525.064C761.918 523.656 761.513 521.949 761.513 519.944V506.536H766.985ZM783.243 517.736C783.243 515.517 783.724 513.544 784.684 511.816C785.644 510.067 786.977 508.712 788.684 507.752C790.412 506.771 792.364 506.28 794.54 506.28C797.206 506.28 799.489 506.984 801.388 508.392C803.286 509.8 804.556 511.72 805.196 514.152H799.18C798.732 513.213 798.092 512.499 797.26 512.008C796.449 511.517 795.521 511.272 794.476 511.272C792.79 511.272 791.425 511.859 790.38 513.032C789.334 514.205 788.812 515.773 788.812 517.736C788.812 519.699 789.334 521.267 790.38 522.44C791.425 523.613 792.79 524.2 794.476 524.2C795.521 524.2 796.449 523.955 797.26 523.464C798.092 522.973 798.732 522.259 799.18 521.32H805.196C804.556 523.752 803.286 525.672 801.388 527.08C799.489 528.467 797.206 529.16 794.54 529.16C792.364 529.16 790.412 528.68 788.684 527.72C786.977 526.739 785.644 525.384 784.684 523.656C783.724 521.928 783.243 519.955 783.243 517.736ZM824.707 506.536V510.92H818.755V529H813.283V510.92H807.331V506.536H824.707ZM835.581 529.224C833.938 529.224 832.466 528.957 831.165 528.424C829.863 527.891 828.818 527.101 828.029 526.056C827.261 525.011 826.855 523.752 826.813 522.28H832.637C832.722 523.112 833.01 523.752 833.501 524.2C833.991 524.627 834.631 524.84 835.421 524.84C836.231 524.84 836.871 524.659 837.341 524.296C837.81 523.912 838.045 523.389 838.045 522.728C838.045 522.173 837.853 521.715 837.469 521.352C837.106 520.989 836.647 520.691 836.093 520.456C835.559 520.221 834.791 519.955 833.789 519.656C832.338 519.208 831.154 518.76 830.237 518.312C829.319 517.864 828.53 517.203 827.869 516.328C827.207 515.453 826.877 514.312 826.877 512.904C826.877 510.813 827.634 509.181 829.149 508.008C830.663 506.813 832.637 506.216 835.069 506.216C837.543 506.216 839.538 506.813 841.053 508.008C842.567 509.181 843.378 510.824 843.485 512.936H837.565C837.522 512.211 837.255 511.645 836.765 511.24C836.274 510.813 835.645 510.6 834.877 510.6C834.215 510.6 833.682 510.781 833.277 511.144C832.871 511.485 832.669 511.987 832.669 512.648C832.669 513.373 833.01 513.939 833.693 514.344C834.375 514.749 835.442 515.187 836.893 515.656C838.343 516.147 839.517 516.616 840.413 517.064C841.33 517.512 842.119 518.163 842.781 519.016C843.442 519.869 843.773 520.968 843.773 522.312C843.773 523.592 843.442 524.755 842.781 525.8C842.141 526.845 841.202 527.677 839.965 528.296C838.727 528.915 837.266 529.224 835.581 529.224Z" fill="white"/>
</g>
<defs>
<filter id="filter0_d_391_43" x="592.056" y="506.216" width="255.717" height="31.008" filterUnits="userSpaceOnUse" color-interpolation-filters="sRGB">
<feFlood flood-opacity="0" result="BackgroundImageFix"/>
<feColorMatrix in="SourceAlpha" type="matrix" values="0 0 0 0 0 0 0 0 0 0 0 0 0 0 0 0 0 0 127 0" result="hardAlpha"/>
<feOffset dy="4"/>
<feGaussianBlur stdDeviation="2"/>
<feComposite in2="hardAlpha" operator="out"/>
<feColorMatrix type="matrix" values="0 0 0 0 0 0 0 0 0 0 0 0 0 0 0 0 0 0 0.25 0"/>
<feBlend mode="normal" in2="BackgroundImageFix" result="effect1_dropShadow_391_43"/>
<feBlend mode="normal" in="SourceGraphic" in2="effect1_dropShadow_391_43" result="shape"/>
</filter>
</defs>
</svg>
