<svg xmlns="http://www.w3.org/2000/svg" xmlns:xlink="http://www.w3.org/1999/xlink" width="1080" zoomAndPan="magnify" viewBox="0 0 810 809.999993" height="1080" preserveAspectRatio="xMidYMid meet" version="1.0"><defs><g/><clipPath id="870068a18f"><path d="M 405 0 C 181.324219 0 0 181.324219 0 405 C 0 628.675781 181.324219 810 405 810 C 628.675781 810 810 628.675781 810 405 C 810 181.324219 628.675781 0 405 0 Z M 405 0 " clip-rule="nonzero"/></clipPath><clipPath id="fb51c2ef4c"><path d="M 50.777344 50.777344 L 759.222656 50.777344 L 759.222656 759.222656 L 50.777344 759.222656 Z M 50.777344 50.777344 " clip-rule="nonzero"/></clipPath><clipPath id="25916f4e91"><path d="M 405 50.777344 C 209.367188 50.777344 50.777344 209.367188 50.777344 405 C 50.777344 600.632812 209.367188 759.222656 405 759.222656 C 600.632812 759.222656 759.222656 600.632812 759.222656 405 C 759.222656 209.367188 600.632812 50.777344 405 50.777344 Z M 405 50.777344 " clip-rule="nonzero"/></clipPath><clipPath id="07d9004cc9"><path d="M 249.515625 91.652344 L 560.765625 91.652344 L 560.765625 627.902344 L 249.515625 627.902344 Z M 249.515625 91.652344 " clip-rule="nonzero"/></clipPath><clipPath id="8417b00b71"><path d="M 300 91.652344 L 383 91.652344 L 383 260 L 300 260 Z M 300 91.652344 " clip-rule="nonzero"/></clipPath><clipPath id="cf78b879b4"><path d="M 270 263 L 544 263 L 544 627.902344 L 270 627.902344 Z M 270 263 " clip-rule="nonzero"/></clipPath><clipPath id="1c891bd829"><path d="M 249.515625 137 L 560.765625 137 L 560.765625 305 L 249.515625 305 Z M 249.515625 137 " clip-rule="nonzero"/></clipPath></defs><g clip-path="url(#870068a18f)"><rect x="-81" width="972" fill="#ffd483" y="-80.999999" height="971.999992" fill-opacity="1"/></g><g clip-path="url(#fb51c2ef4c)"><g clip-path="url(#25916f4e91)"><path fill="#fc6467" d="M 50.777344 50.777344 L 759.222656 50.777344 L 759.222656 759.222656 L 50.777344 759.222656 Z M 50.777344 50.777344 " fill-opacity="1" fill-rule="nonzero"/></g></g><g clip-path="url(#07d9004cc9)"><path fill="#f6ede4" d="M 549.976562 232.863281 L 382.578125 255.316406 L 366.671875 204.054688 L 362.257812 189.824219 L 350.371094 151.527344 L 345.960938 137.304688 L 331.792969 91.652344 L 300.714844 105.214844 L 311.671875 139.460938 L 316.398438 154.230469 L 333.421875 207.425781 L 337.65625 220.644531 L 350.140625 259.664062 L 249.691406 273.136719 L 252.214844 304.4375 L 270.804688 301.804688 L 291.808594 390.355469 L 295.300781 405.089844 L 319.953125 509.042969 L 323.917969 525.753906 L 348.152344 627.9375 L 542.375 601.203125 L 542.78125 463.710938 L 542.839844 443.578125 L 543.058594 370.871094 L 543.121094 350.167969 L 543.378906 263.226562 L 560.523438 260.796875 Z M 549.976562 232.863281 " fill-opacity="1" fill-rule="nonzero"/></g><g clip-path="url(#8417b00b71)"><path fill="#ff402b" d="M 382.578125 255.316406 L 350.140625 259.664062 L 337.65625 220.648438 C 338.644531 220.101562 339.636719 219.546875 340.632812 219.011719 C 349.027344 214.472656 357.503906 210.109375 365.476562 204.855469 C 365.875 204.589844 366.273438 204.320312 366.671875 204.054688 Z M 345.960938 137.304688 L 331.792969 91.652344 L 300.714844 105.214844 L 311.671875 139.460938 C 319.285156 139.140625 326.894531 138.816406 334.507812 138.492188 C 338.328125 138.105469 342.144531 137.707031 345.960938 137.304688 Z M 356.359375 193.769531 C 358.328125 192.460938 360.289062 191.140625 362.257812 189.824219 L 350.371094 151.527344 C 348.1875 151.757812 346.003906 151.988281 343.828125 152.222656 C 340.34375 152.589844 336.835938 153.113281 333.335938 153.304688 C 329.273438 153.523438 325.210938 153.753906 321.140625 153.972656 C 319.5625 154.058594 317.980469 154.144531 316.398438 154.230469 L 333.421875 207.421875 C 334.277344 206.933594 335.140625 206.449219 335.996094 205.953125 C 342.832031 201.980469 349.664062 197.980469 356.359375 193.769531 Z M 356.359375 193.769531 " fill-opacity="1" fill-rule="nonzero"/></g><g clip-path="url(#cf78b879b4)"><path fill="#e4ab12" d="M 542.78125 463.710938 L 542.375 601.203125 L 348.152344 627.9375 L 323.917969 525.753906 C 326.273438 526.015625 328.632812 526.214844 330.996094 526.382812 C 336.667969 526.78125 342.332031 527.167969 347.996094 527.652344 C 352.136719 528.007812 356.269531 528.46875 360.417969 528.46875 C 361.476562 528.46875 362.539062 528.4375 363.605469 528.367188 C 369.214844 527.996094 374.699219 526.179688 379.773438 523.828125 C 385.453125 521.199219 391.109375 518.492188 396.710938 515.695312 C 402.371094 512.875 408.066406 510.109375 413.679688 507.1875 C 419.339844 504.253906 425.046875 501.429688 430.832031 498.753906 C 442.511719 493.761719 454.441406 489.375 465.625 483.296875 C 471.09375 480.324219 476.542969 477.328125 481.988281 474.332031 C 486.742188 471.707031 491.578125 469.285156 496.46875 466.925781 C 498.886719 465.933594 501.296875 464.949219 503.769531 464.09375 C 506.039062 463.304688 508.328125 462.6875 510.644531 462.074219 C 512.273438 461.78125 513.949219 461.347656 515.59375 461.195312 C 517.003906 461.058594 518.410156 460.925781 519.816406 460.792969 C 523.433594 460.710938 527.007812 460.699219 530.605469 461.050781 C 534.667969 461.632812 538.738281 462.480469 542.675781 463.664062 C 542.710938 463.679688 542.746094 463.695312 542.78125 463.710938 Z M 348.339844 512.765625 C 354.199219 513.320312 360.023438 513.757812 365.910156 513.449219 C 368.746094 513.1875 371.515625 512.6875 374.289062 512.027344 C 378.414062 510.898438 382.441406 509.476562 386.464844 508.046875 C 390.960938 506.445312 395.402344 504.636719 399.800781 502.785156 C 402.019531 501.722656 404.21875 500.65625 406.378906 499.488281 C 408.707031 498.234375 410.960938 496.871094 413.226562 495.503906 C 420.132812 491.011719 426.839844 486.214844 433.785156 481.769531 C 440.71875 477.328125 447.90625 473.335938 455.136719 469.394531 C 461.855469 465.730469 468.730469 462.410156 475.753906 459.371094 C 479.0625 457.945312 482.410156 456.59375 485.738281 455.230469 C 488.914062 453.925781 492.179688 452.90625 495.4375 451.835938 C 502.84375 449.425781 510.226562 446.898438 517.808594 445.085938 C 524.964844 443.375 532.425781 442.359375 539.78125 443.210938 C 540.804688 443.328125 541.824219 443.449219 542.84375 443.578125 L 543.058594 370.871094 C 539.269531 372.964844 535.484375 375.070312 531.664062 377.109375 C 526.527344 379.839844 521.308594 382.3125 515.957031 384.589844 C 510.695312 386.820312 505.308594 388.738281 500.042969 390.972656 C 493.75 393.890625 487.550781 397.023438 481.121094 399.632812 C 473.652344 402.65625 465.78125 404.542969 457.84375 405.859375 C 453.972656 406.496094 449.945312 406.851562 446.03125 406.75 C 443.957031 406.691406 441.9375 406.574219 439.875 406.347656 C 437.636719 406.105469 435.46875 405.695312 433.261719 405.265625 C 430.964844 404.8125 428.691406 404 426.460938 403.308594 C 424.386719 402.664062 422.324219 401.980469 420.257812 401.304688 C 416.246094 399.988281 412.277344 398.5625 408.269531 397.238281 C 403.996094 395.953125 399.714844 394.75 395.390625 393.648438 C 390.710938 392.453125 385.957031 391.625 381.183594 390.917969 C 378.664062 390.671875 376.164062 390.441406 373.632812 390.339844 C 370.859375 390.234375 368.117188 390.304688 365.34375 390.378906 C 365.386719 390.375 365.429688 390.371094 365.472656 390.367188 C 357.648438 390.976562 349.863281 391.902344 342.042969 392.558594 C 337.84375 392.90625 333.648438 393.285156 329.472656 393.882812 C 325.09375 394.511719 320.804688 395.4375 316.511719 396.476562 C 314.015625 397.226562 311.53125 397.980469 309.078125 398.863281 C 306.671875 399.734375 304.324219 400.714844 301.96875 401.710938 C 299.734375 402.804688 297.515625 403.9375 295.308594 405.089844 L 319.960938 509.042969 C 323.433594 509.859375 326.941406 510.386719 330.472656 510.851562 C 336.421875 511.527344 342.375 512.195312 348.339844 512.765625 Z M 304.566406 384.796875 C 306.496094 384.050781 308.574219 383.441406 310.582031 382.929688 C 312.746094 382.371094 314.894531 381.765625 317.089844 381.320312 C 325.726562 379.542969 334.445312 378.476562 343.21875 377.65625 C 350.523438 376.980469 357.882812 377.308594 365.191406 377.679688 C 373.292969 378.085938 381.347656 379.449219 389.304688 380.945312 C 396.644531 382.328125 403.984375 383.558594 411.363281 384.664062 C 419.871094 385.945312 428.441406 386.898438 436.980469 387.902344 C 436.648438 387.863281 436.320312 387.824219 435.984375 387.785156 C 438.832031 387.988281 441.667969 388.121094 444.527344 388.183594 C 447.222656 388.25 449.945312 388.027344 452.640625 387.859375 C 461.058594 387.066406 469.425781 386 477.695312 384.238281 C 480.34375 383.519531 482.960938 382.746094 485.578125 381.894531 C 488.339844 381.011719 491.011719 379.820312 493.6875 378.695312 C 501.589844 375.0625 509.191406 370.976562 516.574219 366.390625 C 525.25 360.683594 533.761719 354.730469 543.117188 350.167969 L 543.375 263.226562 L 270.804688 301.804688 L 291.808594 390.359375 C 292.382812 390.054688 292.957031 389.742188 293.53125 389.445312 C 297.074219 387.609375 300.847656 386.21875 304.566406 384.796875 Z M 304.566406 384.796875 " fill-opacity="1" fill-rule="nonzero"/></g><path fill="#028b9f" d="M 301.964844 401.710938 C 299.726562 402.804688 297.507812 403.9375 295.300781 405.089844 L 291.808594 390.359375 C 292.382812 390.054688 292.957031 389.742188 293.53125 389.445312 C 297.074219 387.609375 300.847656 386.222656 304.5625 384.796875 C 306.496094 384.050781 308.574219 383.441406 310.578125 382.929688 C 312.742188 382.371094 314.894531 381.765625 317.085938 381.320312 C 325.722656 379.542969 334.445312 378.476562 343.21875 377.65625 C 350.519531 376.980469 357.882812 377.308594 365.191406 377.679688 C 373.289062 378.085938 381.34375 379.449219 389.304688 380.945312 C 396.640625 382.328125 403.984375 383.558594 411.363281 384.664062 C 419.871094 385.945312 428.4375 386.898438 436.980469 387.902344 C 436.648438 387.863281 436.320312 387.824219 435.984375 387.785156 C 438.832031 387.988281 441.667969 388.121094 444.523438 388.183594 C 447.21875 388.25 449.945312 388.027344 452.636719 387.859375 C 461.054688 387.066406 469.421875 386 477.695312 384.238281 C 480.34375 383.519531 482.960938 382.746094 485.578125 381.894531 C 488.335938 381.011719 491.011719 379.820312 493.6875 378.695312 C 501.585938 375.0625 509.1875 370.976562 516.574219 366.390625 C 525.246094 360.683594 533.761719 354.730469 543.113281 350.167969 C 543.113281 350.167969 543.117188 350.167969 543.117188 350.167969 L 543.054688 370.871094 C 539.265625 372.96875 535.480469 375.070312 531.660156 377.109375 C 526.523438 379.84375 521.304688 382.316406 515.949219 384.589844 C 510.691406 386.820312 505.304688 388.742188 500.039062 390.972656 C 493.746094 393.890625 487.546875 397.023438 481.117188 399.632812 C 473.648438 402.660156 465.777344 404.542969 457.839844 405.859375 C 453.96875 406.496094 449.941406 406.851562 446.027344 406.75 C 443.953125 406.695312 441.933594 406.574219 439.871094 406.351562 C 437.632812 406.109375 435.464844 405.695312 433.253906 405.265625 C 430.960938 404.816406 428.6875 404.003906 426.453125 403.308594 C 424.382812 402.664062 422.320312 401.980469 420.253906 401.304688 C 416.242188 399.992188 412.273438 398.566406 408.265625 397.238281 C 403.992188 395.957031 399.710938 394.753906 395.386719 393.648438 C 390.707031 392.453125 385.953125 391.628906 381.179688 390.917969 C 378.660156 390.671875 376.160156 390.445312 373.628906 390.339844 C 370.855469 390.234375 368.109375 390.308594 365.335938 390.378906 C 365.382812 390.375 365.425781 390.371094 365.46875 390.367188 C 357.644531 390.980469 349.859375 391.902344 342.039062 392.558594 C 337.839844 392.910156 333.644531 393.289062 329.46875 393.886719 C 325.089844 394.515625 320.800781 395.441406 316.507812 396.476562 C 314.011719 397.226562 311.527344 397.980469 309.074219 398.863281 C 306.667969 399.734375 304.320312 400.714844 301.964844 401.710938 Z M 347.996094 527.652344 C 352.132812 528.007812 356.269531 528.46875 360.414062 528.46875 C 361.476562 528.46875 362.539062 528.4375 363.605469 528.367188 C 369.214844 527.996094 374.699219 526.179688 379.769531 523.828125 C 385.453125 521.199219 391.109375 518.492188 396.710938 515.695312 C 402.371094 512.875 408.066406 510.109375 413.679688 507.1875 C 419.339844 504.253906 425.046875 501.429688 430.832031 498.753906 C 442.511719 493.761719 454.441406 489.375 465.625 483.296875 C 471.089844 480.324219 476.542969 477.328125 481.988281 474.332031 C 486.742188 471.710938 491.578125 469.285156 496.464844 466.925781 C 498.882812 465.933594 501.292969 464.949219 503.769531 464.09375 C 506.035156 463.304688 508.324219 462.6875 510.640625 462.074219 C 512.273438 461.78125 513.945312 461.347656 515.59375 461.195312 C 517 461.058594 518.40625 460.925781 519.816406 460.792969 C 523.429688 460.710938 527.003906 460.699219 530.601562 461.050781 C 534.667969 461.632812 538.738281 462.480469 542.675781 463.664062 C 542.710938 463.675781 542.746094 463.695312 542.78125 463.707031 L 542.839844 443.574219 C 541.820312 443.445312 540.800781 443.328125 539.777344 443.210938 C 532.425781 442.359375 524.960938 443.375 517.804688 445.085938 C 510.226562 446.894531 502.84375 449.425781 495.4375 451.835938 C 492.179688 452.902344 488.914062 453.921875 485.738281 455.226562 C 482.40625 456.59375 479.0625 457.945312 475.753906 459.371094 C 468.730469 462.410156 461.855469 465.726562 455.132812 469.390625 C 447.902344 473.335938 440.71875 477.328125 433.78125 481.769531 C 426.839844 486.210938 420.132812 491.011719 413.226562 495.503906 C 410.960938 496.871094 408.707031 498.234375 406.378906 499.488281 C 404.21875 500.65625 402.019531 501.71875 399.800781 502.78125 C 395.402344 504.636719 390.957031 506.441406 386.460938 508.046875 C 382.4375 509.476562 378.410156 510.898438 374.285156 512.027344 C 371.515625 512.683594 368.746094 513.1875 365.90625 513.445312 C 360.023438 513.753906 354.195312 513.320312 348.339844 512.765625 C 342.375 512.195312 336.417969 511.527344 330.464844 510.847656 C 326.933594 510.382812 323.425781 509.855469 319.953125 509.042969 L 323.914062 525.75 C 326.269531 526.015625 328.628906 526.210938 330.992188 526.378906 C 336.664062 526.78125 342.332031 527.167969 347.996094 527.652344 Z M 347.996094 527.652344 " fill-opacity="1" fill-rule="nonzero"/><g clip-path="url(#1c891bd829)"><path fill="#f6ede4" d="M 321.140625 153.972656 C 319.5625 154.058594 317.980469 154.144531 316.398438 154.230469 L 311.671875 139.460938 C 319.285156 139.140625 326.894531 138.816406 334.507812 138.492188 C 338.324219 138.105469 342.144531 137.707031 345.960938 137.304688 L 350.371094 151.527344 C 348.1875 151.757812 346.003906 151.988281 343.824219 152.222656 C 340.339844 152.589844 336.832031 153.113281 333.335938 153.304688 C 329.269531 153.527344 325.207031 153.753906 321.140625 153.972656 Z M 365.472656 204.851562 C 365.875 204.589844 366.273438 204.320312 366.671875 204.054688 L 362.257812 189.824219 C 360.289062 191.140625 358.328125 192.460938 356.359375 193.769531 C 349.664062 197.980469 342.832031 201.984375 335.996094 205.953125 C 335.140625 206.449219 334.28125 206.933594 333.421875 207.425781 L 337.65625 220.644531 C 338.644531 220.101562 339.636719 219.546875 340.632812 219.007812 C 349.023438 214.472656 357.503906 210.109375 365.472656 204.851562 Z M 543.378906 263.226562 L 560.523438 260.796875 L 549.976562 232.863281 L 382.578125 255.316406 L 350.140625 259.664062 L 249.691406 273.136719 L 252.214844 304.4375 L 270.804688 301.804688 Z M 543.378906 263.226562 " fill-opacity="1" fill-rule="nonzero"/></g><g fill="#000000" fill-opacity="0.4"><g transform="translate(289.942453, 718.448018)"><g><path d="M 21.59375 -44.09375 C 28.75 -44.09375 34.210938 -42.242188 37.984375 -38.546875 C 41.753906 -34.847656 43.640625 -29.347656 43.640625 -22.046875 C 43.640625 -14.765625 41.753906 -9.269531 37.984375 -5.5625 C 34.210938 -1.851562 28.75 0 21.59375 0 L 5.734375 0 L 5.734375 -44.09375 Z M 21.078125 -7.328125 C 25.617188 -7.328125 29.015625 -8.488281 31.265625 -10.8125 C 33.523438 -13.132812 34.65625 -16.878906 34.65625 -22.046875 C 34.65625 -27.210938 33.523438 -30.957031 31.265625 -33.28125 C 29.015625 -35.601562 25.617188 -36.765625 21.078125 -36.765625 L 14.453125 -36.765625 L 14.453125 -7.328125 Z M 21.078125 -7.328125 "/></g></g></g><g fill="#000000" fill-opacity="0.4"><g transform="translate(337.08251, 718.448018)"><g><path d="M 5.734375 0 L 5.734375 -44.09375 L 23.4375 -44.09375 C 28 -44.09375 31.441406 -43.039062 33.765625 -40.9375 C 36.085938 -38.84375 37.25 -35.941406 37.25 -32.234375 C 37.25 -29.566406 36.566406 -27.378906 35.203125 -25.671875 C 33.847656 -23.960938 31.828125 -22.65625 29.140625 -21.75 L 29.140625 -21.109375 C 30.523438 -20.503906 31.644531 -19.609375 32.5 -18.421875 C 33.351562 -17.234375 34.160156 -15.476562 34.921875 -13.15625 L 39.328125 0 L 30.375 0 L 26.0625 -13.171875 C 25.613281 -14.503906 25.113281 -15.535156 24.5625 -16.265625 C 24.007812 -17.003906 23.304688 -17.535156 22.453125 -17.859375 C 21.597656 -18.191406 20.488281 -18.359375 19.125 -18.359375 L 14.453125 -18.359375 L 14.453125 0 Z M 22.375 -25.265625 C 26.601562 -25.265625 28.71875 -27.238281 28.71875 -31.1875 C 28.71875 -35.1875 26.601562 -37.1875 22.375 -37.1875 L 14.453125 -37.1875 L 14.453125 -25.265625 Z M 22.375 -25.265625 "/></g></g></g><g fill="#000000" fill-opacity="0.4"><g transform="translate(378.311209, 718.448018)"><g><path d="M 14.453125 0 L 5.734375 0 L 5.734375 -44.09375 L 14.453125 -44.09375 Z M 14.453125 0 "/></g></g></g><g fill="#000000" fill-opacity="0.4"><g transform="translate(398.518399, 718.448018)"><g><path d="M 14.171875 0 L 5.734375 0 L 5.734375 -44.09375 L 15.71875 -44.09375 L 33.421875 -15.6875 L 34.203125 -15.796875 L 34.203125 -44.09375 L 42.578125 -44.09375 L 42.578125 0 L 33.65625 0 L 14.921875 -30.34375 L 14.171875 -30.21875 Z M 14.171875 0 "/></g></g></g><g fill="#000000" fill-opacity="0.4"><g transform="translate(446.864856, 718.448018)"><g><path d="M 5.734375 0 L 5.734375 -44.09375 L 14.453125 -44.09375 L 14.453125 -26.09375 L 15.40625 -26.09375 L 30.125 -44.09375 L 39.0625 -44.09375 L 39.0625 -43.34375 L 22.828125 -23.28125 L 40.75 -0.75 L 40.75 0 L 30.890625 0 L 15.40625 -19.03125 L 14.453125 -19.03125 L 14.453125 0 Z M 5.734375 0 "/></g></g></g><g fill="#000000" fill-opacity="0.4"><g transform="translate(487.610996, 718.448018)"><g><path d="M 19.546875 0.640625 C 16.484375 0.640625 13.757812 0.265625 11.375 -0.484375 C 9 -1.242188 7.015625 -2.238281 5.421875 -3.46875 C 3.835938 -4.695312 2.625 -6.046875 1.78125 -7.515625 L 6.578125 -13.359375 L 7.328125 -13.359375 C 8.648438 -11.390625 10.332031 -9.820312 12.375 -8.65625 C 14.414062 -7.488281 16.804688 -6.90625 19.546875 -6.90625 C 21.878906 -6.90625 23.632812 -7.394531 24.8125 -8.375 C 26 -9.363281 26.59375 -10.722656 26.59375 -12.453125 C 26.59375 -13.503906 26.398438 -14.378906 26.015625 -15.078125 C 25.640625 -15.785156 25.007812 -16.390625 24.125 -16.890625 C 23.238281 -17.390625 22.039062 -17.820312 20.53125 -18.1875 L 14.875 -19.484375 C 10.90625 -20.390625 7.953125 -21.890625 6.015625 -23.984375 C 4.078125 -26.085938 3.109375 -28.816406 3.109375 -32.171875 C 3.109375 -34.671875 3.726562 -36.863281 4.96875 -38.75 C 6.21875 -40.644531 8.035156 -42.113281 10.421875 -43.15625 C 12.804688 -44.195312 15.65625 -44.71875 18.96875 -44.71875 C 22.363281 -44.71875 25.269531 -44.269531 27.6875 -43.375 C 30.113281 -42.488281 32.164062 -41.117188 33.84375 -39.265625 L 29.53125 -33.359375 L 28.765625 -33.359375 C 27.523438 -34.660156 26.097656 -35.640625 24.484375 -36.296875 C 22.878906 -36.953125 21.039062 -37.28125 18.96875 -37.28125 C 16.570312 -37.28125 14.75 -36.859375 13.5 -36.015625 C 12.257812 -35.171875 11.640625 -34.003906 11.640625 -32.515625 C 11.640625 -31.128906 12.078125 -30.019531 12.953125 -29.1875 C 13.828125 -28.363281 15.34375 -27.722656 17.5 -27.265625 L 23.28125 -26.0625 C 27.5625 -25.15625 30.664062 -23.617188 32.59375 -21.453125 C 34.53125 -19.296875 35.5 -16.476562 35.5 -13 C 35.5 -10.238281 34.90625 -7.835938 33.71875 -5.796875 C 32.53125 -3.765625 30.738281 -2.179688 28.34375 -1.046875 C 25.957031 0.078125 23.023438 0.640625 19.546875 0.640625 Z M 19.546875 0.640625 "/></g></g></g><g fill="#ffffff" fill-opacity="1"><g transform="translate(287.212249, 715.71785)"><g><path d="M 21.59375 -44.09375 C 28.75 -44.09375 34.210938 -42.242188 37.984375 -38.546875 C 41.753906 -34.847656 43.640625 -29.347656 43.640625 -22.046875 C 43.640625 -14.765625 41.753906 -9.269531 37.984375 -5.5625 C 34.210938 -1.851562 28.75 0 21.59375 0 L 5.734375 0 L 5.734375 -44.09375 Z M 21.078125 -7.328125 C 25.617188 -7.328125 29.015625 -8.488281 31.265625 -10.8125 C 33.523438 -13.132812 34.65625 -16.878906 34.65625 -22.046875 C 34.65625 -27.210938 33.523438 -30.957031 31.265625 -33.28125 C 29.015625 -35.601562 25.617188 -36.765625 21.078125 -36.765625 L 14.453125 -36.765625 L 14.453125 -7.328125 Z M 21.078125 -7.328125 "/></g></g></g><g fill="#ffffff" fill-opacity="1"><g transform="translate(334.352306, 715.71785)"><g><path d="M 5.734375 0 L 5.734375 -44.09375 L 23.4375 -44.09375 C 28 -44.09375 31.441406 -43.039062 33.765625 -40.9375 C 36.085938 -38.84375 37.25 -35.941406 37.25 -32.234375 C 37.25 -29.566406 36.566406 -27.378906 35.203125 -25.671875 C 33.847656 -23.960938 31.828125 -22.65625 29.140625 -21.75 L 29.140625 -21.109375 C 30.523438 -20.503906 31.644531 -19.609375 32.5 -18.421875 C 33.351562 -17.234375 34.160156 -15.476562 34.921875 -13.15625 L 39.328125 0 L 30.375 0 L 26.0625 -13.171875 C 25.613281 -14.503906 25.113281 -15.535156 24.5625 -16.265625 C 24.007812 -17.003906 23.304688 -17.535156 22.453125 -17.859375 C 21.597656 -18.191406 20.488281 -18.359375 19.125 -18.359375 L 14.453125 -18.359375 L 14.453125 0 Z M 22.375 -25.265625 C 26.601562 -25.265625 28.71875 -27.238281 28.71875 -31.1875 C 28.71875 -35.1875 26.601562 -37.1875 22.375 -37.1875 L 14.453125 -37.1875 L 14.453125 -25.265625 Z M 22.375 -25.265625 "/></g></g></g><g fill="#ffffff" fill-opacity="1"><g transform="translate(375.581005, 715.71785)"><g><path d="M 14.453125 0 L 5.734375 0 L 5.734375 -44.09375 L 14.453125 -44.09375 Z M 14.453125 0 "/></g></g></g><g fill="#ffffff" fill-opacity="1"><g transform="translate(395.788196, 715.71785)"><g><path d="M 14.171875 0 L 5.734375 0 L 5.734375 -44.09375 L 15.71875 -44.09375 L 33.421875 -15.6875 L 34.203125 -15.796875 L 34.203125 -44.09375 L 42.578125 -44.09375 L 42.578125 0 L 33.65625 0 L 14.921875 -30.34375 L 14.171875 -30.21875 Z M 14.171875 0 "/></g></g></g><g fill="#ffffff" fill-opacity="1"><g transform="translate(444.134652, 715.71785)"><g><path d="M 5.734375 0 L 5.734375 -44.09375 L 14.453125 -44.09375 L 14.453125 -26.09375 L 15.40625 -26.09375 L 30.125 -44.09375 L 39.0625 -44.09375 L 39.0625 -43.34375 L 22.828125 -23.28125 L 40.75 -0.75 L 40.75 0 L 30.890625 0 L 15.40625 -19.03125 L 14.453125 -19.03125 L 14.453125 0 Z M 5.734375 0 "/></g></g></g><g fill="#ffffff" fill-opacity="1"><g transform="translate(484.880792, 715.71785)"><g><path d="M 19.546875 0.640625 C 16.484375 0.640625 13.757812 0.265625 11.375 -0.484375 C 9 -1.242188 7.015625 -2.238281 5.421875 -3.46875 C 3.835938 -4.695312 2.625 -6.046875 1.78125 -7.515625 L 6.578125 -13.359375 L 7.328125 -13.359375 C 8.648438 -11.390625 10.332031 -9.820312 12.375 -8.65625 C 14.414062 -7.488281 16.804688 -6.90625 19.546875 -6.90625 C 21.878906 -6.90625 23.632812 -7.394531 24.8125 -8.375 C 26 -9.363281 26.59375 -10.722656 26.59375 -12.453125 C 26.59375 -13.503906 26.398438 -14.378906 26.015625 -15.078125 C 25.640625 -15.785156 25.007812 -16.390625 24.125 -16.890625 C 23.238281 -17.390625 22.039062 -17.820312 20.53125 -18.1875 L 14.875 -19.484375 C 10.90625 -20.390625 7.953125 -21.890625 6.015625 -23.984375 C 4.078125 -26.085938 3.109375 -28.816406 3.109375 -32.171875 C 3.109375 -34.671875 3.726562 -36.863281 4.96875 -38.75 C 6.21875 -40.644531 8.035156 -42.113281 10.421875 -43.15625 C 12.804688 -44.195312 15.65625 -44.71875 18.96875 -44.71875 C 22.363281 -44.71875 25.269531 -44.269531 27.6875 -43.375 C 30.113281 -42.488281 32.164062 -41.117188 33.84375 -39.265625 L 29.53125 -33.359375 L 28.765625 -33.359375 C 27.523438 -34.660156 26.097656 -35.640625 24.484375 -36.296875 C 22.878906 -36.953125 21.039062 -37.28125 18.96875 -37.28125 C 16.570312 -37.28125 14.75 -36.859375 13.5 -36.015625 C 12.257812 -35.171875 11.640625 -34.003906 11.640625 -32.515625 C 11.640625 -31.128906 12.078125 -30.019531 12.953125 -29.1875 C 13.828125 -28.363281 15.34375 -27.722656 17.5 -27.265625 L 23.28125 -26.0625 C 27.5625 -25.15625 30.664062 -23.617188 32.59375 -21.453125 C 34.53125 -19.296875 35.5 -16.476562 35.5 -13 C 35.5 -10.238281 34.90625 -7.835938 33.71875 -5.796875 C 32.53125 -3.765625 30.738281 -2.179688 28.34375 -1.046875 C 25.957031 0.078125 23.023438 0.640625 19.546875 0.640625 Z M 19.546875 0.640625 "/></g></g></g></svg>