<svg xmlns="http://www.w3.org/2000/svg" xmlns:xlink="http://www.w3.org/1999/xlink" width="1080" zoomAndPan="magnify" viewBox="0 0 810 809.999993" height="1080" preserveAspectRatio="xMidYMid meet" version="1.0"><defs><g/><clipPath id="3464d534a5"><path d="M 405 0 C 181.324219 0 0 181.324219 0 405 C 0 628.675781 181.324219 810 405 810 C 628.675781 810 810 628.675781 810 405 C 810 181.324219 628.675781 0 405 0 Z M 405 0 " clip-rule="nonzero"/></clipPath><clipPath id="24b94fa761"><path d="M 50.777344 50.777344 L 759.222656 50.777344 L 759.222656 759.222656 L 50.777344 759.222656 Z M 50.777344 50.777344 " clip-rule="nonzero"/></clipPath><clipPath id="4109682695"><path d="M 405 50.777344 C 209.367188 50.777344 50.777344 209.367188 50.777344 405 C 50.777344 600.632812 209.367188 759.222656 405 759.222656 C 600.632812 759.222656 759.222656 600.632812 759.222656 405 C 759.222656 209.367188 600.632812 50.777344 405 50.777344 Z M 405 50.777344 " clip-rule="nonzero"/></clipPath><clipPath id="4e1426f012"><path d="M 226 169.308594 L 587.429688 169.308594 L 587.429688 641.058594 L 226 641.058594 Z M 226 169.308594 " clip-rule="nonzero"/></clipPath><clipPath id="b2099f5fc3"><path d="M 222.929688 206 L 544 206 L 544 641.058594 L 222.929688 641.058594 Z M 222.929688 206 " clip-rule="nonzero"/></clipPath></defs><g clip-path="url(#3464d534a5)"><rect x="-81" width="972" fill="#8c52ff" y="-80.999999" height="971.999992" fill-opacity="1"/></g><g clip-path="url(#24b94fa761)"><g clip-path="url(#4109682695)"><path fill="#7ed957" d="M 50.777344 50.777344 L 759.222656 50.777344 L 759.222656 759.222656 L 50.777344 759.222656 Z M 50.777344 50.777344 " fill-opacity="1" fill-rule="nonzero"/></g></g><g clip-path="url(#4e1426f012)"><path fill="#c01b14" d="M 226.277344 204 L 289.398438 169.304688 L 587.386719 169.988281 L 579.464844 608.023438 L 542.097656 641.054688 L 226.277344 204 " fill-opacity="1" fill-rule="nonzero"/></g><g clip-path="url(#b2099f5fc3)"><path fill="#de3934" d="M 222.988281 206.65625 L 543.402344 206.65625 C 543.402344 351.441406 543.402344 496.230469 543.402344 641.019531 C 436.597656 641.019531 329.792969 641.019531 222.988281 641.019531 C 222.988281 496.230469 222.988281 351.441406 222.988281 206.65625 " fill-opacity="1" fill-rule="nonzero"/></g><path fill="#ffb55c" d="M 393.050781 484.097656 C 382.402344 488.5 374.484375 493.71875 369.292969 499.753906 C 358.992188 511.859375 354.714844 520.152344 356.464844 524.632812 C 357.214844 534.238281 361.117188 542.585938 368.171875 549.675781 C 376.214844 558.597656 384.988281 563.941406 394.492188 565.714844 C 403.871094 566.53125 411.851562 561.117188 418.433594 549.476562 C 422.65625 542.429688 426.179688 535.203125 429.007812 527.792969 L 435.957031 507.117188 C 436.5625 503.714844 437.871094 498.851562 439.890625 492.535156 C 440.609375 490.140625 441.671875 488.324219 443.082031 487.078125 Z M 393.050781 484.097656 " fill-opacity="1" fill-rule="nonzero"/><path fill="#ffb55c" d="M 429.148438 519.015625 C 430.8125 520.992188 432.246094 522.265625 433.457031 522.835938 C 435.96875 524.179688 439.066406 525.296875 442.75 526.1875 C 443.363281 526.410156 444.15625 526.929688 445.121094 527.746094 C 447 529.464844 446.789062 531.347656 444.480469 533.402344 C 440.542969 535.808594 435.773438 537.050781 430.164062 537.125 C 427.707031 537.242188 424.765625 537.003906 421.34375 536.402344 C 420.285156 536.261719 417.796875 535.304688 413.882812 533.53125 Z M 429.148438 519.015625 " fill-opacity="1" fill-rule="nonzero"/><path fill="#ffb55c" d="M 465.808594 461.34375 L 464.164062 461.714844 Z M 465.808594 461.34375 " fill-opacity="1" fill-rule="nonzero"/><path fill="#ffb55c" d="M 389.496094 489.589844 C 388.324219 489.304688 386.808594 488.414062 384.957031 486.925781 C 383.378906 485.449219 381.589844 483.488281 379.585938 481.046875 C 378.917969 480.363281 378.101562 479.792969 377.136719 479.328125 C 375.375 478.175781 374.066406 479.816406 373.199219 484.25 C 372.660156 487.921875 374.023438 493.152344 377.296875 499.941406 C 378.238281 501.734375 379.351562 503.199219 380.632812 504.324219 C 381.066406 504.851562 383.03125 506.164062 386.523438 508.257812 Z M 389.496094 489.589844 " fill-opacity="1" fill-rule="nonzero"/><path fill="#ffb55c" d="M 254.101562 264.566406 L 260.628906 261.257812 L 267.15625 257.945312 L 440.289062 599.078125 C 435.9375 601.289062 431.585938 603.496094 427.234375 605.703125 C 369.523438 491.992188 311.8125 378.28125 254.101562 264.566406 " fill-opacity="1" fill-rule="nonzero"/><path fill="#ffb55c" d="M 427.015625 604.460938 C 428.96875 608.191406 430.839844 610.605469 432.628906 611.699219 C 434.296875 612.175781 436.605469 611.511719 439.542969 609.710938 C 441.148438 608.777344 441.945312 606.96875 441.929688 604.289062 C 442.242188 603.765625 441.160156 601.207031 438.679688 596.613281 Z M 427.015625 604.460938 " fill-opacity="1" fill-rule="nonzero"/><path fill="#ffb55c" d="M 254.441406 265.019531 C 250.628906 257.613281 251.21875 252.902344 256.210938 250.882812 C 260.367188 249.757812 264.292969 252.972656 267.988281 260.527344 Z M 254.441406 265.019531 " fill-opacity="1" fill-rule="nonzero"/><path fill="#693413" d="M 314.882812 397.21875 C 314.226562 394.195312 315.5625 392.980469 318.921875 393.25 C 320.121094 393.34375 323.886719 396.472656 330.414062 402.757812 C 331.285156 403.597656 332.425781 404.003906 333.652344 404.054688 C 334.4375 404.089844 335.085938 403.554688 335.59375 402.605469 C 336.5 396.03125 337.375 393.644531 338.222656 395.4375 L 369.371094 452.09375 C 390.757812 493 412.054688 543.320312 440.058594 599.867188 C 442.941406 605.6875 444.355469 617.703125 433.210938 615.871094 C 429.125 613.925781 419.214844 605.933594 415.390625 591.261719 Z M 314.882812 397.21875 " fill-opacity="1" fill-rule="nonzero"/><path fill="#ffb55c" d="M 335.117188 239.105469 L 342.105469 238.101562 L 349.09375 237.101562 L 401.429688 602.214844 C 396.769531 602.882812 392.109375 603.550781 387.453125 604.21875 C 370.007812 482.515625 352.5625 360.808594 335.117188 239.105469 " fill-opacity="1" fill-rule="nonzero"/><path fill="#ffb55c" d="M 387.640625 603.015625 C 388.269531 607.03125 389.230469 609.8125 390.519531 611.367188 C 391.898438 612.316406 394.210938 612.425781 397.453125 611.695312 C 399.207031 611.335938 400.492188 609.933594 401.3125 607.480469 C 401.761719 607.101562 401.566406 604.429688 400.726562 599.464844 Z M 387.640625 603.015625 " fill-opacity="1" fill-rule="nonzero"/><path fill="#ffb55c" d="M 335.289062 239.621094 C 334.105469 231.679688 336.101562 227.558594 341.285156 227.261719 C 345.429688 227.523438 348.019531 231.675781 349.050781 239.71875 Z M 335.289062 239.621094 " fill-opacity="1" fill-rule="nonzero"/><path fill="#693413" d="M 349.5 379.054688 C 349.835938 376.089844 351.433594 375.394531 354.414062 376.679688 C 355.480469 377.136719 357.949219 381.160156 361.960938 388.925781 C 362.496094 389.957031 363.410156 390.683594 364.515625 391.113281 C 365.222656 391.386719 365.980469 391.097656 366.738281 390.390625 C 369.601562 384.667969 371.144531 382.757812 371.359375 384.660156 L 382.238281 446.039062 C 389.085938 490.011719 392.933594 542.558594 400.972656 602.863281 C 401.800781 609.074219 399.371094 620.480469 389.761719 615.355469 C 386.632812 612.3125 380.0625 601.945312 381.117188 587.363281 Z M 349.5 379.054688 " fill-opacity="1" fill-rule="nonzero"/><path fill="#ffb55c" d="M 404.402344 238.175781 L 411.519531 239.203125 L 418.636719 240.234375 C 400.722656 364.132812 382.808594 488.03125 364.894531 611.929688 C 360.152344 611.246094 355.40625 610.558594 350.660156 609.875 L 404.402344 238.175781 " fill-opacity="1" fill-rule="nonzero"/><path fill="#ffb55c" d="M 351.199219 608.753906 C 350.660156 612.855469 350.796875 615.851562 351.613281 617.738281 C 352.6875 619.0625 354.914062 619.832031 358.289062 620.046875 C 360.105469 620.203125 361.765625 619.203125 363.273438 617.042969 C 363.816406 616.796875 364.394531 614.132812 365 609.042969 Z M 351.199219 608.753906 " fill-opacity="1" fill-rule="nonzero"/><path fill="#ffb55c" d="M 404.421875 238.730469 C 405.546875 230.632812 408.679688 227.183594 413.828125 228.378906 C 417.800781 229.824219 419.136719 234.625 417.839844 242.773438 Z M 404.421875 238.730469 " fill-opacity="1" fill-rule="nonzero"/><path fill="#693413" d="M 378.257812 379.019531 C 379.441406 376.21875 381.195312 376 383.742188 378.113281 C 384.652344 378.867188 385.910156 383.503906 387.597656 392.242188 C 387.824219 393.402344 388.507812 394.375 389.464844 395.109375 C 390.078125 395.582031 390.898438 395.519531 391.84375 395.042969 C 396.285156 390.277344 398.339844 388.851562 398.003906 390.773438 L 391.003906 453.855469 C 385.0625 498.777344 373.730469 551.214844 364.265625 612.433594 C 363.289062 618.734375 357.640625 629.183594 349.726562 621.417969 C 347.542969 617.546875 344.101562 605.53125 349.320312 591.59375 Z M 378.257812 379.019531 " fill-opacity="1" fill-rule="nonzero"/><path fill="#ffb55c" d="M 471.304688 256.546875 L 477.742188 259.617188 L 484.179688 262.691406 C 430.65625 374.777344 377.132812 486.863281 323.613281 598.949219 L 310.738281 592.804688 C 364.257812 480.71875 417.78125 368.632812 471.304688 256.546875 " fill-opacity="1" fill-rule="nonzero"/><path fill="#ffb55c" d="M 311.574219 591.902344 C 309.851562 595.628906 309.097656 598.503906 309.316406 600.535156 C 309.941406 602.105469 311.824219 603.492188 314.960938 604.691406 C 316.632812 605.375 318.503906 604.914062 320.566406 603.3125 C 321.15625 603.242188 322.488281 600.886719 324.5625 596.242188 Z M 311.574219 591.902344 " fill-opacity="1" fill-rule="nonzero"/><path fill="#ffb55c" d="M 471.160156 257.078125 C 474.613281 249.738281 478.601562 247.390625 483.125 250.042969 C 486.460938 252.585938 486.308594 257.527344 482.675781 264.863281 Z M 471.160156 257.078125 " fill-opacity="1" fill-rule="nonzero"/><path fill="#693413" d="M 404.984375 382.253906 C 406.929688 379.953125 408.660156 380.261719 410.449219 383.011719 C 411.085938 383.996094 410.910156 388.757812 409.933594 397.53125 C 409.800781 398.699219 410.164062 399.824219 410.851562 400.800781 C 411.296875 401.429688 412.09375 401.609375 413.125 401.4375 C 418.742188 398.234375 421.105469 397.492188 420.222656 399.210938 L 394.980469 456.90625 C 376.097656 497.707031 349.894531 544.039062 322.867188 599.238281 C 320.082031 604.921875 311.648438 613.152344 306.441406 603.460938 C 305.515625 599.152344 305.800781 586.753906 314.859375 575.089844 Z M 404.984375 382.253906 " fill-opacity="1" fill-rule="nonzero"/><path fill="#fefefe" d="M 270.933594 347.992188 C 270.945312 348.355469 271.0625 348.949219 271.285156 349.769531 L 271.28125 349.753906 C 272.699219 354.90625 273.503906 357.757812 273.695312 358.308594 C 273.675781 358.261719 273.652344 358.199219 273.625 358.128906 C 273.667969 358.234375 273.710938 358.34375 273.746094 358.449219 C 278.527344 372.882812 281.433594 381.332031 282.464844 383.800781 C 283.292969 385.785156 282.355469 388.066406 280.371094 388.898438 C 278.386719 389.726562 276.105469 388.789062 275.277344 386.804688 C 274.167969 384.15625 271.191406 375.519531 266.351562 360.898438 L 266.472656 361.21875 C 266.425781 361.109375 266.375 360.980469 266.328125 360.839844 C 266.085938 360.136719 265.234375 357.132812 263.769531 351.824219 L 263.765625 351.804688 C 263.386719 350.40625 263.179688 349.222656 263.148438 348.261719 C 263.070312 346.113281 264.753906 344.308594 266.902344 344.234375 C 269.054688 344.160156 270.859375 345.84375 270.933594 347.992188 Z M 270.933594 347.992188 " fill-opacity="1" fill-rule="nonzero"/><path fill="#fefefe" d="M 260.855469 344.136719 C 260.988281 343.894531 261.136719 343.65625 261.304688 343.417969 C 262.683594 341.472656 265.5625 339.566406 269.941406 337.695312 L 269.976562 337.679688 C 273.292969 336.300781 276.601562 335.707031 279.894531 335.902344 C 279.921875 335.902344 279.953125 335.90625 279.980469 335.90625 C 287.464844 336.511719 292.9375 339.816406 296.398438 345.816406 C 296.445312 345.898438 296.488281 345.980469 296.53125 346.0625 C 299.207031 351.582031 298.421875 357.519531 294.167969 363.878906 L 294.199219 363.832031 C 290.53125 369.5 284.722656 372.765625 276.777344 373.628906 C 274.640625 373.859375 272.71875 372.316406 272.484375 370.175781 C 272.253906 368.039062 273.796875 366.117188 275.9375 365.882812 C 281.425781 365.289062 285.332031 363.191406 287.660156 359.597656 C 287.671875 359.582031 287.679688 359.566406 287.691406 359.550781 C 290.289062 355.664062 290.898438 352.304688 289.519531 349.464844 L 289.652344 349.710938 C 287.550781 346.070312 284.117188 344.058594 279.351562 343.671875 L 279.4375 343.675781 C 277.335938 343.554688 275.179688 343.953125 272.964844 344.871094 L 273 344.859375 C 269.972656 346.152344 268.191406 347.171875 267.660156 347.925781 C 267.667969 347.914062 267.675781 347.898438 267.6875 347.875 C 266.65625 349.761719 264.289062 350.457031 262.402344 349.421875 C 260.515625 348.390625 259.820312 346.023438 260.855469 344.136719 Z M 260.855469 344.136719 " fill-opacity="1" fill-rule="nonzero"/><path fill="#fefefe" d="M 332.6875 339.542969 C 330.007812 337.960938 327.242188 337.871094 324.382812 339.269531 L 324.699219 339.09375 C 321.453125 341.074219 319.03125 344.664062 317.4375 349.863281 L 317.472656 349.738281 C 315.371094 357.507812 318.359375 364.292969 326.433594 370.09375 L 326.238281 369.964844 C 329.605469 372.085938 332.929688 372.453125 336.21875 371.0625 L 336.183594 371.078125 C 340.121094 369.371094 342.984375 366.382812 344.777344 362.117188 L 344.59375 362.65625 C 347.007812 353.222656 344.0625 346.164062 335.765625 341.480469 C 333.890625 340.425781 333.230469 338.046875 334.289062 336.175781 C 335.34375 334.300781 337.722656 333.640625 339.59375 334.699219 C 351.355469 341.335938 355.539062 351.300781 352.140625 364.585938 C 352.09375 364.773438 352.03125 364.953125 351.960938 365.128906 C 349.359375 371.320312 345.136719 375.683594 339.285156 378.222656 L 339.25 378.238281 C 333.464844 380.683594 327.742188 380.121094 322.082031 376.550781 C 322.015625 376.507812 321.953125 376.464844 321.886719 376.417969 C 310.890625 368.515625 306.910156 358.945312 309.953125 347.707031 C 309.964844 347.664062 309.976562 347.621094 309.988281 347.582031 C 312.160156 340.496094 315.710938 335.449219 320.644531 332.445312 C 320.746094 332.382812 320.851562 332.324219 320.960938 332.269531 C 326.328125 329.644531 331.558594 329.832031 336.648438 332.835938 C 338.5 333.929688 339.113281 336.316406 338.019531 338.167969 C 336.929688 340.019531 334.539062 340.636719 332.6875 339.542969 Z M 332.6875 339.542969 " fill-opacity="1" fill-rule="nonzero"/><path fill="#fefefe" d="M 393.277344 342.214844 C 392.386719 340.554688 391.007812 339.636719 389.136719 339.457031 C 389.046875 339.445312 388.953125 339.433594 388.863281 339.417969 C 387.261719 339.148438 385.367188 339.796875 383.171875 341.363281 L 383.398438 341.191406 C 378.71875 345.085938 376.90625 350.054688 377.960938 356.097656 L 377.894531 355.789062 C 379.28125 361.117188 382.699219 364.824219 388.152344 366.90625 C 388.167969 366.914062 388.183594 366.917969 388.199219 366.925781 C 392.066406 368.460938 396.046875 367.457031 400.148438 363.917969 C 401.777344 362.515625 404.234375 362.695312 405.640625 364.324219 C 407.046875 365.949219 406.867188 368.410156 405.238281 369.816406 C 398.753906 375.410156 392.117188 376.859375 385.324219 374.164062 L 385.371094 374.183594 C 377.417969 371.144531 372.414062 365.667969 370.355469 357.746094 C 370.328125 357.644531 370.304688 357.539062 370.289062 357.4375 C 368.71875 348.433594 371.425781 341.023438 378.414062 335.203125 C 378.488281 335.144531 378.5625 335.085938 378.640625 335.03125 C 382.589844 332.203125 386.433594 331.105469 390.164062 331.738281 L 389.890625 331.703125 C 394.523438 332.152344 397.941406 334.429688 400.140625 338.535156 C 401.15625 340.433594 400.445312 342.792969 398.546875 343.808594 C 396.652344 344.824219 394.292969 344.109375 393.277344 342.214844 Z M 393.277344 342.214844 " fill-opacity="1" fill-rule="nonzero"/><path fill="#fefefe" d="M 446.417969 349.332031 C 446.136719 350.117188 445.9375 350.746094 445.816406 351.226562 L 445.828125 351.175781 C 444.308594 357.46875 442.859375 363.117188 441.480469 368.121094 L 441.476562 368.128906 C 440.011719 373.375 439.078125 376.515625 438.667969 377.558594 C 437.882812 379.5625 435.621094 380.546875 433.621094 379.761719 C 431.617188 378.976562 430.628906 376.714844 431.417969 374.714844 C 431.726562 373.917969 432.582031 371.027344 433.972656 366.039062 L 433.96875 366.050781 C 435.324219 361.128906 436.753906 355.558594 438.257812 349.347656 C 438.261719 349.332031 438.265625 349.3125 438.269531 349.296875 C 438.449219 348.59375 438.71875 347.734375 439.074219 346.730469 C 439.792969 344.703125 442.019531 343.644531 444.046875 344.359375 C 446.074219 345.078125 447.136719 347.304688 446.417969 349.332031 Z M 446.417969 349.332031 " fill-opacity="1" fill-rule="nonzero"/><path fill="#fefefe" d="M 444.621094 334.351562 C 445.785156 336.429688 447.429688 336.875 449.566406 335.683594 C 449.800781 335.554688 450.015625 335.402344 450.207031 335.226562 C 449.910156 335.496094 449.570312 335.71875 449.203125 335.886719 C 450.265625 335.402344 450.953125 334.632812 451.265625 333.574219 L 451.3125 333.410156 L 451.359375 333.1875 C 451.410156 332.929688 451.429688 332.671875 451.417969 332.414062 C 451.417969 332.46875 451.421875 332.523438 451.421875 332.578125 C 451.421875 332.285156 451.394531 332.035156 451.335938 331.832031 L 451.257812 331.589844 C 451.019531 330.914062 450.53125 330.367188 449.792969 329.945312 L 449.820312 329.960938 C 449.097656 329.542969 448.328125 329.390625 447.503906 329.503906 L 447.015625 329.605469 L 447.285156 329.53125 C 449.359375 328.964844 451.503906 330.1875 452.070312 332.261719 C 452.636719 334.335938 451.414062 336.476562 449.339844 337.046875 L 449.066406 337.117188 C 448.90625 337.164062 448.742188 337.195312 448.578125 337.21875 C 447.628906 337.351562 446.738281 337.179688 445.910156 336.699219 L 445.9375 336.710938 C 444.992188 336.175781 444.320312 335.332031 443.914062 334.191406 C 443.886719 334.109375 443.859375 334.03125 443.839844 333.949219 C 443.699219 333.457031 443.628906 333 443.628906 332.574219 L 443.632812 332.738281 C 443.621094 332.398438 443.644531 332.070312 443.703125 331.746094 L 443.753906 331.523438 C 443.730469 331.613281 443.761719 331.488281 443.796875 331.359375 C 444.15625 330.152344 444.882812 329.296875 445.972656 328.800781 L 444.96875 329.460938 C 445.214844 329.238281 445.480469 329.042969 445.769531 328.882812 C 448.167969 327.542969 450.054688 328.101562 451.425781 330.554688 C 452.472656 332.433594 451.800781 334.804688 449.921875 335.851562 C 448.042969 336.902344 445.671875 336.226562 444.621094 334.351562 Z M 444.621094 334.351562 " fill-opacity="1" fill-rule="nonzero"/><path fill="#fefefe" d="M 466.988281 350.808594 C 467.230469 350.96875 467.476562 351.160156 467.722656 351.378906 C 468.460938 352.039062 469.472656 353.25 470.753906 355.003906 C 470.765625 355.023438 470.78125 355.042969 470.792969 355.0625 C 475.738281 362.097656 478.492188 366.109375 479.058594 367.101562 L 479.046875 367.078125 C 479.058594 367.101562 479.070312 367.125 479.085938 367.148438 C 480.125 369.03125 479.441406 371.398438 477.558594 372.441406 C 475.675781 373.480469 473.304688 372.796875 472.265625 370.914062 C 472.277344 370.9375 472.289062 370.960938 472.304688 370.980469 L 472.289062 370.957031 C 471.847656 370.179688 469.222656 366.375 464.421875 359.539062 L 464.460938 359.597656 C 463.503906 358.285156 462.855469 357.480469 462.527344 357.183594 C 462.570312 357.222656 462.632812 357.269531 462.714844 357.320312 C 460.917969 356.140625 460.414062 353.726562 461.59375 351.929688 C 462.773438 350.132812 465.1875 349.628906 466.988281 350.808594 Z M 466.988281 350.808594 " fill-opacity="1" fill-rule="nonzero"/><path fill="#fefefe" d="M 498.515625 362.25 C 490.28125 367.175781 479.140625 378.234375 465.097656 395.4375 C 463.734375 397.101562 461.28125 397.351562 459.617188 395.992188 C 457.949219 394.628906 457.703125 392.175781 459.0625 390.511719 C 473.683594 372.605469 485.5 360.957031 494.519531 355.566406 C 496.363281 354.460938 498.757812 355.066406 499.859375 356.910156 C 500.964844 358.757812 500.363281 361.148438 498.515625 362.25 Z M 498.515625 362.25 " fill-opacity="1" fill-rule="nonzero"/><path fill="#ffb55c" d="M 489.21875 479.289062 L 488.023438 485.730469 C 484.347656 498.5625 476.703125 508.304688 465.082031 514.949219 C 453.390625 521.578125 440.296875 523.332031 425.800781 520.214844 C 412.042969 516.582031 401.527344 509.277344 394.261719 498.292969 C 391.9375 494.746094 390.117188 490.960938 388.804688 486.9375 L 387.273438 480.789062 C 386.519531 476.589844 386.382812 472.28125 386.863281 467.863281 C 388.742188 454.347656 395 443.628906 405.632812 435.699219 C 416.265625 427.773438 428.847656 424.449219 443.382812 425.726562 C 457.84375 427.683594 469.382812 433.703125 478.007812 443.78125 C 486.628906 453.855469 490.363281 465.691406 489.21875 479.289062 " fill-opacity="1" fill-rule="nonzero"/><path fill="#ffb55c" d="M 403.109375 442.140625 C 403.292969 432.921875 403.648438 426.757812 404.164062 423.648438 C 405.640625 417.671875 406.964844 414.042969 408.128906 412.757812 C 409.085938 412.464844 411.015625 413.179688 413.917969 414.902344 L 424.824219 421.621094 C 426.777344 422.917969 430.089844 426.089844 434.769531 431.132812 Z M 403.109375 442.140625 " fill-opacity="1" fill-rule="nonzero"/><path fill="#ffb55c" d="M 473.609375 445.140625 C 475.308594 443.597656 480.574219 442.9375 489.40625 443.164062 C 494.65625 443.539062 497.925781 444.523438 499.214844 446.113281 C 499.625 446.675781 499.414062 448.617188 498.582031 451.9375 C 498.566406 452.351562 497.890625 454.539062 496.558594 458.492188 L 494.820312 462.449219 L 486.191406 480.398438 Z M 473.609375 445.140625 " fill-opacity="1" fill-rule="nonzero"/><path fill="#693413" d="M 423.867188 468.722656 L 423.644531 469.226562 C 423.136719 470.210938 422.5 470.90625 421.738281 471.316406 C 420.96875 471.726562 420.25 471.734375 419.578125 471.339844 C 418.953125 470.910156 418.59375 470.222656 418.488281 469.277344 C 418.453125 468.96875 418.453125 468.652344 418.484375 468.316406 L 418.558594 467.8125 C 418.625 467.472656 418.722656 467.125 418.855469 466.78125 C 419.289062 465.722656 419.875 464.933594 420.621094 464.410156 C 421.367188 463.886719 422.097656 463.75 422.820312 463.996094 C 423.519531 464.300781 423.964844 464.894531 424.164062 465.785156 C 424.359375 466.675781 424.261719 467.652344 423.867188 468.722656 " fill-opacity="1" fill-rule="nonzero"/><path fill="#693413" d="M 456.507812 480.632812 L 456.28125 481.144531 C 455.757812 482.144531 455.082031 482.84375 454.261719 483.246094 C 453.433594 483.644531 452.648438 483.632812 451.902344 483.207031 C 451.214844 482.75 450.796875 482.03125 450.660156 481.050781 C 450.613281 480.738281 450.605469 480.40625 450.628906 480.066406 L 450.695312 479.546875 C 450.757812 479.195312 450.855469 478.84375 450.992188 478.492188 C 451.429688 477.417969 452.050781 476.621094 452.851562 476.101562 C 453.648438 475.582031 454.445312 475.460938 455.234375 475.738281 C 456.007812 476.070312 456.511719 476.695312 456.75 477.617188 C 456.992188 478.539062 456.910156 479.542969 456.507812 480.632812 " fill-opacity="1" fill-rule="nonzero"/><path fill="#693413" d="M 433.53125 479.414062 C 440.765625 481.75 440.765625 481.75 433.53125 479.414062 " fill-opacity="1" fill-rule="nonzero"/><path fill="#693413" d="M 434.527344 476.925781 C 442.753906 481.4375 442.753906 481.4375 434.527344 476.925781 " fill-opacity="1" fill-rule="nonzero"/><path fill="#693413" d="M 431.949219 478.976562 C 433.667969 479.15625 434.910156 479.410156 435.675781 479.738281 C 436.457031 480.027344 437.535156 480.691406 438.90625 481.738281 C 438.449219 482.382812 438.066406 482.859375 437.753906 483.167969 C 437.355469 483.5625 436.949219 483.855469 436.535156 484.046875 C 435.492188 484.507812 434.574219 484.597656 433.777344 484.308594 C 433.167969 484.082031 432.699219 483.445312 432.371094 482.398438 C 432.25 482.011719 432.136719 481.609375 432.035156 481.195312 L 431.949219 478.976562 " fill-opacity="1" fill-rule="nonzero"/><path fill="#693413" d="M 429.582031 484.003906 C 429.585938 484.304688 429.765625 484.609375 430.121094 484.917969 L 430.085938 484.890625 C 430.546875 485.21875 430.980469 485.359375 431.390625 485.3125 L 431.410156 485.308594 C 432.25 485.242188 433.027344 484.59375 433.742188 483.359375 C 433.875 483.125 434.171875 483.046875 434.40625 483.179688 C 434.640625 483.316406 434.71875 483.613281 434.585938 483.847656 C 433.699219 485.375 432.667969 486.1875 431.488281 486.28125 L 431.503906 486.277344 C 430.84375 486.355469 430.183594 486.15625 429.519531 485.683594 C 429.507812 485.675781 429.496094 485.664062 429.484375 485.652344 C 428.90625 485.152344 428.613281 484.605469 428.609375 484.011719 C 428.609375 483.742188 428.824219 483.523438 429.09375 483.523438 C 429.363281 483.519531 429.582031 483.738281 429.582031 484.003906 Z M 429.582031 484.003906 " fill-opacity="1" fill-rule="nonzero"/><path fill="#693413" d="M 434.851562 483.910156 C 434.691406 484.402344 434.707031 484.882812 434.890625 485.355469 L 434.902344 485.378906 C 435.089844 485.933594 435.457031 486.472656 436 486.992188 L 435.988281 486.984375 C 436.550781 487.484375 437.148438 487.398438 437.78125 486.71875 C 437.964844 486.519531 438.273438 486.511719 438.46875 486.695312 C 438.667969 486.875 438.679688 487.183594 438.496094 487.382812 C 437.425781 488.527344 436.375 488.636719 435.335938 487.707031 L 435.324219 487.695312 C 434.667969 487.066406 434.21875 486.398438 433.976562 485.691406 L 433.988281 485.714844 C 433.714844 485.027344 433.691406 484.324219 433.921875 483.613281 C 434.003906 483.355469 434.28125 483.214844 434.535156 483.296875 C 434.792969 483.382812 434.933594 483.65625 434.851562 483.910156 Z M 434.851562 483.910156 " fill-opacity="1" fill-rule="nonzero"/><path fill="#693413" d="M 469.785156 500.632812 C 469.804688 500.640625 469.824219 500.644531 469.839844 500.648438 C 469.710938 500.628906 468.949219 500.585938 467.554688 500.519531 C 467.304688 500.507812 467.039062 500.5 466.765625 500.492188 C 465.601562 500.457031 464.984375 500.4375 464.917969 500.433594 C 464.605469 500.417969 464.449219 500.257812 464.449219 499.949219 C 464.449219 499.660156 464.59375 499.5 464.882812 499.464844 L 464.921875 500.433594 C 464.589844 500.421875 464.265625 500.410156 463.949219 500.394531 C 463.679688 500.382812 463.472656 500.152344 463.484375 499.882812 C 463.5 499.617188 463.726562 499.410156 463.996094 499.421875 C 464.308594 499.4375 464.628906 499.449219 464.957031 499.460938 C 465.210938 499.46875 465.414062 499.671875 465.425781 499.929688 C 465.433594 500.183594 465.246094 500.402344 464.996094 500.429688 C 465.28125 500.398438 465.425781 500.238281 465.425781 499.949219 C 465.425781 499.640625 465.273438 499.476562 464.96875 499.460938 C 465.027344 499.464844 465.636719 499.484375 466.792969 499.515625 L 466.796875 499.515625 C 467.070312 499.527344 467.339844 499.535156 467.597656 499.546875 C 469.027344 499.617188 469.816406 499.660156 469.972656 499.683594 C 470.007812 499.6875 470.039062 499.695312 470.070312 499.703125 C 470.324219 499.78125 470.46875 500.050781 470.394531 500.308594 C 470.316406 500.566406 470.042969 500.710938 469.785156 500.632812 Z M 469.785156 500.632812 " fill-opacity="1" fill-rule="nonzero"/><path fill="#693413" d="M 465.359375 507.179688 L 465.367188 507.183594 L 465.359375 507.179688 C 465.257812 507.089844 465.136719 506.992188 465.003906 506.894531 L 464.988281 506.882812 L 465.023438 506.910156 C 464.378906 506.484375 463.292969 505.699219 461.769531 504.554688 C 461.554688 504.394531 461.511719 504.089844 461.671875 503.875 C 461.835938 503.660156 462.140625 503.617188 462.355469 503.777344 C 463.863281 504.910156 464.929688 505.683594 465.558594 506.09375 L 465.59375 506.121094 L 465.582031 506.109375 C 465.738281 506.226562 465.878906 506.339844 466.003906 506.449219 L 466 506.445312 C 466.207031 506.628906 466.226562 506.9375 466.046875 507.136719 C 465.867188 507.339844 465.5625 507.359375 465.359375 507.179688 Z M 465.359375 507.179688 " fill-opacity="1" fill-rule="nonzero"/><path fill="#693413" d="M 460.058594 506.917969 C 460.179688 507.089844 460.269531 507.230469 460.335938 507.339844 L 460.332031 507.335938 L 462.015625 510.191406 C 462.152344 510.425781 462.074219 510.722656 461.839844 510.859375 C 461.609375 510.996094 461.3125 510.917969 461.175781 510.6875 L 459.492188 507.832031 L 459.492188 507.828125 C 459.441406 507.742188 459.367188 507.625 459.261719 507.472656 C 459.105469 507.253906 459.160156 506.949219 459.382812 506.796875 C 459.601562 506.644531 459.90625 506.699219 460.058594 506.917969 Z M 460.058594 506.917969 " fill-opacity="1" fill-rule="nonzero"/><path fill="#693413" d="M 393.835938 463.179688 C 393.878906 463.199219 393.921875 463.226562 393.964844 463.265625 C 394.175781 463.453125 395.582031 464.972656 398.175781 467.832031 C 398.355469 468.03125 398.34375 468.335938 398.144531 468.519531 C 397.945312 468.699219 397.636719 468.683594 397.457031 468.484375 C 394.882812 465.65625 393.503906 464.160156 393.320312 463.996094 C 393.34375 464.015625 393.371094 464.03125 393.402344 464.050781 C 393.164062 463.929688 393.066406 463.636719 393.183594 463.398438 C 393.304688 463.15625 393.597656 463.058594 393.835938 463.179688 Z M 393.835938 463.179688 " fill-opacity="1" fill-rule="nonzero"/><path fill="#693413" d="M 390.679688 468.339844 C 390.914062 468.410156 391.167969 468.5 391.441406 468.605469 L 391.445312 468.605469 L 391.453125 468.609375 C 393.132812 469.261719 394.378906 469.742188 395.183594 470.046875 C 395.433594 470.140625 395.558594 470.421875 395.464844 470.675781 C 395.371094 470.925781 395.089844 471.050781 394.835938 470.957031 C 394.027344 470.648438 392.78125 470.167969 391.101562 469.515625 L 391.097656 469.515625 L 391.089844 469.511719 L 391.09375 469.515625 C 390.839844 469.417969 390.609375 469.335938 390.394531 469.273438 C 390.136719 469.195312 389.992188 468.921875 390.070312 468.664062 C 390.148438 468.40625 390.421875 468.261719 390.679688 468.339844 Z M 390.679688 468.339844 " fill-opacity="1" fill-rule="nonzero"/><path fill="#693413" d="M 389.976562 473.625 C 390.113281 473.625 390.230469 473.628906 390.324219 473.636719 L 391.359375 473.722656 L 391.347656 473.722656 L 392.863281 473.808594 C 393.503906 473.851562 394.066406 473.890625 394.550781 473.925781 C 394.820312 473.945312 395.019531 474.179688 395 474.449219 C 394.980469 474.71875 394.746094 474.917969 394.476562 474.898438 C 393.996094 474.859375 393.4375 474.824219 392.800781 474.78125 L 392.804688 474.78125 L 391.292969 474.695312 L 391.28125 474.691406 L 390.242188 474.605469 C 390.175781 474.601562 390.085938 474.597656 389.976562 474.597656 C 389.707031 474.597656 389.488281 474.378906 389.488281 474.113281 C 389.488281 473.84375 389.707031 473.625 389.976562 473.625 Z M 389.976562 473.625 " fill-opacity="1" fill-rule="nonzero"/><path fill="#693413" d="M 408.988281 434.0625 C 409.972656 432.714844 412.15625 431.179688 415.539062 429.453125 C 416.371094 429.078125 417.296875 428.765625 418.3125 428.511719 C 419.726562 428.179688 421.164062 427.957031 422.617188 427.851562 C 422.789062 427.832031 422.875 427.777344 422.875 427.6875 C 422.457031 426.769531 420.992188 425.75 418.480469 424.632812 C 417.589844 424.195312 415.445312 423.304688 412.039062 421.960938 L 408.933594 421.328125 Z M 408.988281 434.0625 " fill-opacity="1" fill-rule="nonzero"/><path fill="#693413" d="M 482.355469 450.285156 C 483.476562 451.550781 484.480469 453.046875 485.367188 454.78125 C 486.039062 456.035156 486.757812 458.058594 487.53125 460.851562 C 487.636719 461.171875 487.773438 461.3125 487.941406 461.273438 C 488.097656 461.449219 488.730469 460.757812 489.839844 459.199219 C 490.644531 458.148438 491.320312 457.050781 491.871094 455.910156 C 492.996094 453.589844 493.710938 451.945312 494.011719 450.976562 C 494.210938 450.4375 494.261719 449.71875 494.160156 448.820312 Z M 482.355469 450.285156 " fill-opacity="1" fill-rule="nonzero"/><path fill="#693413" d="M 410.011719 542.902344 L 407.429688 545.734375 C 401.828125 551.105469 395.871094 554.183594 389.558594 554.96875 C 383.222656 555.730469 378.03125 553.875 373.984375 549.40625 C 370.367188 544.84375 369.125 539.191406 370.257812 532.453125 C 370.628906 530.28125 371.261719 528.101562 372.152344 525.910156 L 373.675781 522.65625 C 374.820312 520.496094 376.21875 518.414062 377.871094 516.402344 C 383.070312 510.335938 388.867188 506.5 395.265625 504.902344 C 401.664062 503.304688 407.203125 504.300781 411.882812 507.902344 C 416.308594 511.808594 418.34375 517.054688 417.992188 523.640625 C 417.640625 530.226562 414.980469 536.644531 410.011719 542.902344 " fill-opacity="1" fill-rule="nonzero"/><g fill="#000000" fill-opacity="0.4"><g transform="translate(282.181679, 718.448018)"><g><path d="M 19.546875 0.640625 C 16.484375 0.640625 13.757812 0.265625 11.375 -0.484375 C 9 -1.242188 7.015625 -2.238281 5.421875 -3.46875 C 3.835938 -4.695312 2.625 -6.046875 1.78125 -7.515625 L 6.578125 -13.359375 L 7.328125 -13.359375 C 8.648438 -11.390625 10.332031 -9.820312 12.375 -8.65625 C 14.414062 -7.488281 16.804688 -6.90625 19.546875 -6.90625 C 21.878906 -6.90625 23.632812 -7.394531 24.8125 -8.375 C 26 -9.363281 26.59375 -10.722656 26.59375 -12.453125 C 26.59375 -13.503906 26.398438 -14.378906 26.015625 -15.078125 C 25.640625 -15.785156 25.007812 -16.390625 24.125 -16.890625 C 23.238281 -17.390625 22.039062 -17.820312 20.53125 -18.1875 L 14.875 -19.484375 C 10.90625 -20.390625 7.953125 -21.890625 6.015625 -23.984375 C 4.078125 -26.085938 3.109375 -28.816406 3.109375 -32.171875 C 3.109375 -34.671875 3.726562 -36.863281 4.96875 -38.75 C 6.21875 -40.644531 8.035156 -42.113281 10.421875 -43.15625 C 12.804688 -44.195312 15.65625 -44.71875 18.96875 -44.71875 C 22.363281 -44.71875 25.269531 -44.269531 27.6875 -43.375 C 30.113281 -42.488281 32.164062 -41.117188 33.84375 -39.265625 L 29.53125 -33.359375 L 28.765625 -33.359375 C 27.523438 -34.660156 26.097656 -35.640625 24.484375 -36.296875 C 22.878906 -36.953125 21.039062 -37.28125 18.96875 -37.28125 C 16.570312 -37.28125 14.75 -36.859375 13.5 -36.015625 C 12.257812 -35.171875 11.640625 -34.003906 11.640625 -32.515625 C 11.640625 -31.128906 12.078125 -30.019531 12.953125 -29.1875 C 13.828125 -28.363281 15.34375 -27.722656 17.5 -27.265625 L 23.28125 -26.0625 C 27.5625 -25.15625 30.664062 -23.617188 32.59375 -21.453125 C 34.53125 -19.296875 35.5 -16.476562 35.5 -13 C 35.5 -10.238281 34.90625 -7.835938 33.71875 -5.796875 C 32.53125 -3.765625 30.738281 -2.179688 28.34375 -1.046875 C 25.957031 0.078125 23.023438 0.640625 19.546875 0.640625 Z M 19.546875 0.640625 "/></g></g></g><g fill="#000000" fill-opacity="0.4"><g transform="translate(320.062621, 718.448018)"><g><path d="M 14.171875 0 L 5.734375 0 L 5.734375 -44.09375 L 15.71875 -44.09375 L 33.421875 -15.6875 L 34.203125 -15.796875 L 34.203125 -44.09375 L 42.578125 -44.09375 L 42.578125 0 L 33.65625 0 L 14.921875 -30.34375 L 14.171875 -30.21875 Z M 14.171875 0 "/></g></g></g><g fill="#000000" fill-opacity="0.4"><g transform="translate(368.409077, 718.448018)"><g><path d="M 42.3125 0 L 33.140625 0 L 29.828125 -10.15625 L 12.9375 -10.15625 L 9.625 0 L 0.65625 0 L 15.890625 -44.09375 L 27.078125 -44.09375 Z M 20.953125 -34.890625 L 15.296875 -17.5 L 27.421875 -17.5 L 21.71875 -34.890625 Z M 20.953125 -34.890625 "/></g></g></g><g fill="#000000" fill-opacity="0.4"><g transform="translate(411.387056, 718.448018)"><g><path d="M 24.09375 0.640625 C 20.03125 0.640625 16.453125 -0.203125 13.359375 -1.890625 C 10.265625 -3.585938 7.84375 -6.128906 6.09375 -9.515625 C 4.34375 -12.898438 3.46875 -17.078125 3.46875 -22.046875 C 3.46875 -27.015625 4.34375 -31.191406 6.09375 -34.578125 C 7.84375 -37.960938 10.265625 -40.5 13.359375 -42.1875 C 16.453125 -43.875 20.03125 -44.71875 24.09375 -44.71875 C 28.332031 -44.71875 31.9375 -43.890625 34.90625 -42.234375 C 37.875 -40.578125 39.988281 -38.050781 41.25 -34.65625 L 34.890625 -30.765625 L 34.140625 -30.796875 C 33.191406 -33.085938 31.90625 -34.726562 30.28125 -35.71875 C 28.664062 -36.71875 26.601562 -37.21875 24.09375 -37.21875 C 20.4375 -37.21875 17.582031 -36.003906 15.53125 -33.578125 C 13.476562 -31.160156 12.453125 -27.316406 12.453125 -22.046875 C 12.453125 -16.796875 13.476562 -12.957031 15.53125 -10.53125 C 17.582031 -8.113281 20.4375 -6.90625 24.09375 -6.90625 C 29.820312 -6.90625 33.332031 -9.691406 34.625 -15.265625 L 35.375 -15.265625 L 41.796875 -11.90625 C 40.585938 -7.726562 38.523438 -4.59375 35.609375 -2.5 C 32.703125 -0.40625 28.863281 0.640625 24.09375 0.640625 Z M 24.09375 0.640625 "/></g></g></g><g fill="#000000" fill-opacity="0.4"><g transform="translate(454.636475, 718.448018)"><g><path d="M 5.734375 0 L 5.734375 -44.09375 L 14.453125 -44.09375 L 14.453125 -26.09375 L 15.40625 -26.09375 L 30.125 -44.09375 L 39.0625 -44.09375 L 39.0625 -43.34375 L 22.828125 -23.28125 L 40.75 -0.75 L 40.75 0 L 30.890625 0 L 15.40625 -19.03125 L 14.453125 -19.03125 L 14.453125 0 Z M 5.734375 0 "/></g></g></g><g fill="#000000" fill-opacity="0.4"><g transform="translate(495.382615, 718.448018)"><g><path d="M 19.546875 0.640625 C 16.484375 0.640625 13.757812 0.265625 11.375 -0.484375 C 9 -1.242188 7.015625 -2.238281 5.421875 -3.46875 C 3.835938 -4.695312 2.625 -6.046875 1.78125 -7.515625 L 6.578125 -13.359375 L 7.328125 -13.359375 C 8.648438 -11.390625 10.332031 -9.820312 12.375 -8.65625 C 14.414062 -7.488281 16.804688 -6.90625 19.546875 -6.90625 C 21.878906 -6.90625 23.632812 -7.394531 24.8125 -8.375 C 26 -9.363281 26.59375 -10.722656 26.59375 -12.453125 C 26.59375 -13.503906 26.398438 -14.378906 26.015625 -15.078125 C 25.640625 -15.785156 25.007812 -16.390625 24.125 -16.890625 C 23.238281 -17.390625 22.039062 -17.820312 20.53125 -18.1875 L 14.875 -19.484375 C 10.90625 -20.390625 7.953125 -21.890625 6.015625 -23.984375 C 4.078125 -26.085938 3.109375 -28.816406 3.109375 -32.171875 C 3.109375 -34.671875 3.726562 -36.863281 4.96875 -38.75 C 6.21875 -40.644531 8.035156 -42.113281 10.421875 -43.15625 C 12.804688 -44.195312 15.65625 -44.71875 18.96875 -44.71875 C 22.363281 -44.71875 25.269531 -44.269531 27.6875 -43.375 C 30.113281 -42.488281 32.164062 -41.117188 33.84375 -39.265625 L 29.53125 -33.359375 L 28.765625 -33.359375 C 27.523438 -34.660156 26.097656 -35.640625 24.484375 -36.296875 C 22.878906 -36.953125 21.039062 -37.28125 18.96875 -37.28125 C 16.570312 -37.28125 14.75 -36.859375 13.5 -36.015625 C 12.257812 -35.171875 11.640625 -34.003906 11.640625 -32.515625 C 11.640625 -31.128906 12.078125 -30.019531 12.953125 -29.1875 C 13.828125 -28.363281 15.34375 -27.722656 17.5 -27.265625 L 23.28125 -26.0625 C 27.5625 -25.15625 30.664062 -23.617188 32.59375 -21.453125 C 34.53125 -19.296875 35.5 -16.476562 35.5 -13 C 35.5 -10.238281 34.90625 -7.835938 33.71875 -5.796875 C 32.53125 -3.765625 30.738281 -2.179688 28.34375 -1.046875 C 25.957031 0.078125 23.023438 0.640625 19.546875 0.640625 Z M 19.546875 0.640625 "/></g></g></g><g fill="#ffffff" fill-opacity="1"><g transform="translate(279.451475, 715.71785)"><g><path d="M 19.546875 0.640625 C 16.484375 0.640625 13.757812 0.265625 11.375 -0.484375 C 9 -1.242188 7.015625 -2.238281 5.421875 -3.46875 C 3.835938 -4.695312 2.625 -6.046875 1.78125 -7.515625 L 6.578125 -13.359375 L 7.328125 -13.359375 C 8.648438 -11.390625 10.332031 -9.820312 12.375 -8.65625 C 14.414062 -7.488281 16.804688 -6.90625 19.546875 -6.90625 C 21.878906 -6.90625 23.632812 -7.394531 24.8125 -8.375 C 26 -9.363281 26.59375 -10.722656 26.59375 -12.453125 C 26.59375 -13.503906 26.398438 -14.378906 26.015625 -15.078125 C 25.640625 -15.785156 25.007812 -16.390625 24.125 -16.890625 C 23.238281 -17.390625 22.039062 -17.820312 20.53125 -18.1875 L 14.875 -19.484375 C 10.90625 -20.390625 7.953125 -21.890625 6.015625 -23.984375 C 4.078125 -26.085938 3.109375 -28.816406 3.109375 -32.171875 C 3.109375 -34.671875 3.726562 -36.863281 4.96875 -38.75 C 6.21875 -40.644531 8.035156 -42.113281 10.421875 -43.15625 C 12.804688 -44.195312 15.65625 -44.71875 18.96875 -44.71875 C 22.363281 -44.71875 25.269531 -44.269531 27.6875 -43.375 C 30.113281 -42.488281 32.164062 -41.117188 33.84375 -39.265625 L 29.53125 -33.359375 L 28.765625 -33.359375 C 27.523438 -34.660156 26.097656 -35.640625 24.484375 -36.296875 C 22.878906 -36.953125 21.039062 -37.28125 18.96875 -37.28125 C 16.570312 -37.28125 14.75 -36.859375 13.5 -36.015625 C 12.257812 -35.171875 11.640625 -34.003906 11.640625 -32.515625 C 11.640625 -31.128906 12.078125 -30.019531 12.953125 -29.1875 C 13.828125 -28.363281 15.34375 -27.722656 17.5 -27.265625 L 23.28125 -26.0625 C 27.5625 -25.15625 30.664062 -23.617188 32.59375 -21.453125 C 34.53125 -19.296875 35.5 -16.476562 35.5 -13 C 35.5 -10.238281 34.90625 -7.835938 33.71875 -5.796875 C 32.53125 -3.765625 30.738281 -2.179688 28.34375 -1.046875 C 25.957031 0.078125 23.023438 0.640625 19.546875 0.640625 Z M 19.546875 0.640625 "/></g></g></g><g fill="#ffffff" fill-opacity="1"><g transform="translate(317.332417, 715.71785)"><g><path d="M 14.171875 0 L 5.734375 0 L 5.734375 -44.09375 L 15.71875 -44.09375 L 33.421875 -15.6875 L 34.203125 -15.796875 L 34.203125 -44.09375 L 42.578125 -44.09375 L 42.578125 0 L 33.65625 0 L 14.921875 -30.34375 L 14.171875 -30.21875 Z M 14.171875 0 "/></g></g></g><g fill="#ffffff" fill-opacity="1"><g transform="translate(365.678873, 715.71785)"><g><path d="M 42.3125 0 L 33.140625 0 L 29.828125 -10.15625 L 12.9375 -10.15625 L 9.625 0 L 0.65625 0 L 15.890625 -44.09375 L 27.078125 -44.09375 Z M 20.953125 -34.890625 L 15.296875 -17.5 L 27.421875 -17.5 L 21.71875 -34.890625 Z M 20.953125 -34.890625 "/></g></g></g><g fill="#ffffff" fill-opacity="1"><g transform="translate(408.656852, 715.71785)"><g><path d="M 24.09375 0.640625 C 20.03125 0.640625 16.453125 -0.203125 13.359375 -1.890625 C 10.265625 -3.585938 7.84375 -6.128906 6.09375 -9.515625 C 4.34375 -12.898438 3.46875 -17.078125 3.46875 -22.046875 C 3.46875 -27.015625 4.34375 -31.191406 6.09375 -34.578125 C 7.84375 -37.960938 10.265625 -40.5 13.359375 -42.1875 C 16.453125 -43.875 20.03125 -44.71875 24.09375 -44.71875 C 28.332031 -44.71875 31.9375 -43.890625 34.90625 -42.234375 C 37.875 -40.578125 39.988281 -38.050781 41.25 -34.65625 L 34.890625 -30.765625 L 34.140625 -30.796875 C 33.191406 -33.085938 31.90625 -34.726562 30.28125 -35.71875 C 28.664062 -36.71875 26.601562 -37.21875 24.09375 -37.21875 C 20.4375 -37.21875 17.582031 -36.003906 15.53125 -33.578125 C 13.476562 -31.160156 12.453125 -27.316406 12.453125 -22.046875 C 12.453125 -16.796875 13.476562 -12.957031 15.53125 -10.53125 C 17.582031 -8.113281 20.4375 -6.90625 24.09375 -6.90625 C 29.820312 -6.90625 33.332031 -9.691406 34.625 -15.265625 L 35.375 -15.265625 L 41.796875 -11.90625 C 40.585938 -7.726562 38.523438 -4.59375 35.609375 -2.5 C 32.703125 -0.40625 28.863281 0.640625 24.09375 0.640625 Z M 24.09375 0.640625 "/></g></g></g><g fill="#ffffff" fill-opacity="1"><g transform="translate(451.906271, 715.71785)"><g><path d="M 5.734375 0 L 5.734375 -44.09375 L 14.453125 -44.09375 L 14.453125 -26.09375 L 15.40625 -26.09375 L 30.125 -44.09375 L 39.0625 -44.09375 L 39.0625 -43.34375 L 22.828125 -23.28125 L 40.75 -0.75 L 40.75 0 L 30.890625 0 L 15.40625 -19.03125 L 14.453125 -19.03125 L 14.453125 0 Z M 5.734375 0 "/></g></g></g><g fill="#ffffff" fill-opacity="1"><g transform="translate(492.652411, 715.71785)"><g><path d="M 19.546875 0.640625 C 16.484375 0.640625 13.757812 0.265625 11.375 -0.484375 C 9 -1.242188 7.015625 -2.238281 5.421875 -3.46875 C 3.835938 -4.695312 2.625 -6.046875 1.78125 -7.515625 L 6.578125 -13.359375 L 7.328125 -13.359375 C 8.648438 -11.390625 10.332031 -9.820312 12.375 -8.65625 C 14.414062 -7.488281 16.804688 -6.90625 19.546875 -6.90625 C 21.878906 -6.90625 23.632812 -7.394531 24.8125 -8.375 C 26 -9.363281 26.59375 -10.722656 26.59375 -12.453125 C 26.59375 -13.503906 26.398438 -14.378906 26.015625 -15.078125 C 25.640625 -15.785156 25.007812 -16.390625 24.125 -16.890625 C 23.238281 -17.390625 22.039062 -17.820312 20.53125 -18.1875 L 14.875 -19.484375 C 10.90625 -20.390625 7.953125 -21.890625 6.015625 -23.984375 C 4.078125 -26.085938 3.109375 -28.816406 3.109375 -32.171875 C 3.109375 -34.671875 3.726562 -36.863281 4.96875 -38.75 C 6.21875 -40.644531 8.035156 -42.113281 10.421875 -43.15625 C 12.804688 -44.195312 15.65625 -44.71875 18.96875 -44.71875 C 22.363281 -44.71875 25.269531 -44.269531 27.6875 -43.375 C 30.113281 -42.488281 32.164062 -41.117188 33.84375 -39.265625 L 29.53125 -33.359375 L 28.765625 -33.359375 C 27.523438 -34.660156 26.097656 -35.640625 24.484375 -36.296875 C 22.878906 -36.953125 21.039062 -37.28125 18.96875 -37.28125 C 16.570312 -37.28125 14.75 -36.859375 13.5 -36.015625 C 12.257812 -35.171875 11.640625 -34.003906 11.640625 -32.515625 C 11.640625 -31.128906 12.078125 -30.019531 12.953125 -29.1875 C 13.828125 -28.363281 15.34375 -27.722656 17.5 -27.265625 L 23.28125 -26.0625 C 27.5625 -25.15625 30.664062 -23.617188 32.59375 -21.453125 C 34.53125 -19.296875 35.5 -16.476562 35.5 -13 C 35.5 -10.238281 34.90625 -7.835938 33.71875 -5.796875 C 32.53125 -3.765625 30.738281 -2.179688 28.34375 -1.046875 C 25.957031 0.078125 23.023438 0.640625 19.546875 0.640625 Z M 19.546875 0.640625 "/></g></g></g></svg>