<svg xmlns="http://www.w3.org/2000/svg" xmlns:xlink="http://www.w3.org/1999/xlink" width="1080" zoomAndPan="magnify" viewBox="0 0 810 809.999993" height="1080" preserveAspectRatio="xMidYMid meet" version="1.0"><defs><g/><clipPath id="48e32862be"><path d="M 405 0 C 181.324219 0 0 181.324219 0 405 C 0 628.675781 181.324219 810 405 810 C 628.675781 810 810 628.675781 810 405 C 810 181.324219 628.675781 0 405 0 Z M 405 0 " clip-rule="nonzero"/></clipPath><clipPath id="81c72ab12e"><path d="M 50.777344 50.777344 L 759.222656 50.777344 L 759.222656 759.222656 L 50.777344 759.222656 Z M 50.777344 50.777344 " clip-rule="nonzero"/></clipPath><clipPath id="6cb1822632"><path d="M 405 50.777344 C 209.367188 50.777344 50.777344 209.367188 50.777344 405 C 50.777344 600.632812 209.367188 759.222656 405 759.222656 C 600.632812 759.222656 759.222656 600.632812 759.222656 405 C 759.222656 209.367188 600.632812 50.777344 405 50.777344 Z M 405 50.777344 " clip-rule="nonzero"/></clipPath><clipPath id="804a171892"><path d="M 245 140 L 567 140 L 567 642.882812 L 245 642.882812 Z M 245 140 " clip-rule="nonzero"/></clipPath></defs><g clip-path="url(#48e32862be)"><rect x="-81" width="972" fill="#5ce1e6" y="-80.999999" height="971.999992" fill-opacity="1"/></g><g clip-path="url(#81c72ab12e)"><g clip-path="url(#6cb1822632)"><path fill="#cb6ce6" d="M 50.777344 50.777344 L 759.222656 50.777344 L 759.222656 759.222656 L 50.777344 759.222656 Z M 50.777344 50.777344 " fill-opacity="1" fill-rule="nonzero"/></g></g><g clip-path="url(#804a171892)"><path fill="#ff5757" d="M 556.230469 404.699219 C 543.054688 426.476562 520.601562 440.925781 496.667969 448.371094 C 494.226562 451.855469 491.777344 455.332031 489.308594 458.808594 C 466.65625 490.691406 443.1875 522.007812 418.898438 552.671875 C 406.566406 568.246094 393.976562 583.648438 380.867188 598.578125 C 369.902344 611.058594 358.660156 623.992188 345.453125 634.171875 C 339.625 638.664062 333.441406 641.605469 326.007812 642.214844 C 318.316406 642.847656 310.230469 640.921875 303.632812 636.898438 C 291.6875 629.617188 286.851562 615.796875 285.195312 602.558594 C 283.417969 588.375 282.617188 574.054688 281.726562 559.796875 C 280.53125 540.640625 279.558594 521.472656 278.636719 502.308594 C 276.839844 464.828125 275.332031 427.332031 273.886719 389.832031 C 265.246094 380.613281 257.394531 370.386719 252.175781 358.824219 C 247.632812 348.761719 245.0625 337.851562 245.738281 326.769531 C 246.402344 315.660156 249.898438 304.695312 255.921875 295.316406 C 267.085938 277.902344 286.015625 267.988281 306.15625 265.476562 C 305.707031 262.992188 305.429688 260.46875 305.355469 257.945312 C 304.949219 243.453125 311.003906 229.367188 321.3125 219.257812 C 332.007812 208.789062 345.859375 204.148438 360.296875 201.535156 C 374.460938 198.96875 389.625 197.707031 402.183594 190.027344 C 413.175781 183.300781 417.59375 171.707031 423.5625 160.9375 C 426.375 155.867188 429.710938 150.839844 434.238281 147.128906 C 439.464844 142.851562 445.746094 140.507812 452.492188 140.21875 C 467.125 139.589844 479.757812 148.175781 488.195312 159.503906 C 492.625 165.460938 495.992188 172.1875 498.558594 179.140625 C 501.222656 186.347656 502.175781 193.664062 503.714844 201.121094 C 506.515625 214.703125 513.90625 226.457031 524.207031 235.632812 C 535.382812 245.59375 544.261719 258.160156 546.828125 273.15625 C 549.386719 288.117188 546.285156 303.058594 540.101562 316.71875 C 549.097656 323.136719 556.113281 332.023438 560.53125 342.171875 C 569.492188 362.6875 567.792969 385.585938 556.230469 404.699219 Z M 556.230469 404.699219 " fill-opacity="1" fill-rule="nonzero"/></g><path fill="#ffc17d" d="M 504.625 392.195312 C 500.3125 400.1875 490.976562 414.925781 478.6875 433.222656 C 477.917969 434.367188 477.136719 435.535156 476.335938 436.710938 C 470.699219 445.074219 464.484375 454.125 457.894531 463.558594 C 456.503906 465.558594 455.082031 467.578125 453.648438 469.621094 C 451.628906 472.5 449.574219 475.398438 447.5 478.328125 C 439.457031 489.644531 431.039062 501.292969 422.523438 512.820312 C 413.617188 524.90625 404.597656 536.855469 395.816406 548.167969 C 386.683594 559.925781 377.808594 570.992188 369.550781 580.78125 C 352.351562 601.21875 337.878906 616.140625 329.527344 620.332031 C 318.671875 625.789062 304.082031 623.082031 295.429688 614.558594 C 290.070312 609.285156 287.332031 601.9375 285.417969 594.675781 C 280.777344 577.027344 274.992188 417.972656 272.765625 356.773438 Z M 504.625 392.195312 " fill-opacity="1" fill-rule="nonzero"/><path fill="#ff5757" d="M 501.855469 390.582031 C 499.449219 395.019531 496.804688 399.339844 494.132812 403.628906 C 490.238281 409.875 486.238281 416.046875 482.183594 422.1875 C 477.125 429.855469 471.992188 437.46875 466.804688 445.054688 C 460.933594 453.640625 454.984375 462.175781 448.996094 470.679688 C 442.578125 479.773438 436.097656 488.832031 429.550781 497.835938 C 422.886719 507.003906 416.160156 516.125 409.347656 525.183594 C 406 529.644531 402.621094 534.09375 399.230469 538.523438 C 398.375 539.644531 397.507812 540.769531 396.652344 541.878906 C 396.265625 542.382812 395.882812 542.886719 395.496094 543.378906 C 395.410156 543.496094 395.316406 543.613281 395.230469 543.730469 C 394.984375 544.050781 394.738281 544.363281 394.492188 544.683594 C 392.824219 546.832031 391.15625 548.972656 389.488281 551.109375 C 383.21875 559.101562 376.867188 567.027344 370.375 574.84375 C 364.757812 581.605469 359.035156 588.277344 353.109375 594.769531 C 348.449219 599.882812 343.667969 604.898438 338.554688 609.574219 C 337.527344 610.515625 336.480469 611.433594 335.410156 612.34375 C 334.929688 612.75 334.445312 613.144531 333.953125 613.542969 C 333.730469 613.722656 333.503906 613.90625 333.28125 614.085938 C 333.238281 614.117188 333.21875 614.140625 333.183594 614.160156 C 333.164062 614.183594 333.152344 614.183594 333.121094 614.214844 C 331.539062 615.402344 329.910156 616.546875 328.15625 617.464844 C 322.574219 620.363281 315.730469 620.621094 309.65625 618.984375 C 302.9375 617.175781 297.238281 613.144531 293.621094 607.015625 C 291 602.578125 289.183594 597.433594 288.199219 592.363281 C 288.039062 591.519531 287.898438 590.664062 287.769531 589.808594 C 287.738281 589.5625 287.695312 589.328125 287.664062 589.082031 C 287.652344 589.015625 287.644531 588.941406 287.632812 588.878906 C 287.558594 588.320312 287.492188 587.753906 287.417969 587.199219 C 286.636719 580.664062 286.125 574.097656 285.632812 567.539062 C 284.9375 558.253906 284.371094 548.972656 283.835938 539.675781 C 283.195312 528.53125 282.617188 517.386719 282.070312 506.230469 C 281.472656 494.039062 280.914062 481.835938 280.390625 469.644531 C 279.855469 457.386719 279.355469 445.117188 278.863281 432.859375 C 278.402344 421.351562 277.953125 409.84375 277.515625 398.335938 C 277.140625 388.453125 276.777344 378.558594 276.414062 368.675781 C 276.261719 364.71875 276.125 360.75 275.984375 356.792969 C 275.835938 352.675781 269.417969 352.65625 269.566406 356.792969 C 269.886719 365.671875 270.210938 374.539062 270.539062 383.414062 C 270.949219 394.367188 271.363281 405.308594 271.78125 416.261719 C 272.253906 428.445312 272.746094 440.636719 273.257812 452.820312 C 273.78125 465.234375 274.316406 477.652344 274.894531 490.0625 C 275.441406 501.867188 276.015625 513.664062 276.636719 525.472656 C 277.183594 535.773438 277.769531 546.074219 278.445312 556.363281 C 278.957031 564.265625 279.515625 572.171875 280.261719 580.054688 C 280.722656 584.910156 281.109375 589.859375 282.136719 594.640625 C 283.472656 600.867188 285.890625 607.390625 289.609375 612.589844 C 294.136719 618.921875 300.796875 623.339844 308.339844 625.261719 C 317.953125 627.722656 327.988281 625.992188 335.921875 620.085938 C 340.714844 616.523438 345.066406 612.40625 349.261719 608.171875 C 354.820312 602.558594 360.117188 596.683594 365.292969 590.714844 C 371.570312 583.488281 377.679688 576.117188 383.6875 568.664062 C 390.523438 560.179688 397.242188 551.601562 403.871094 542.960938 C 410.769531 533.976562 417.574219 524.917969 424.3125 515.804688 C 431.125 506.585938 437.863281 497.324219 444.535156 488.007812 C 450.910156 479.109375 457.222656 470.167969 463.46875 461.183594 C 469.148438 453.023438 474.761719 444.820312 480.3125 436.570312 C 484.996094 429.609375 489.640625 422.605469 494.183594 415.542969 C 497.609375 410.230469 500.988281 404.890625 504.195312 399.457031 C 505.296875 397.597656 506.378906 395.726562 507.40625 393.832031 C 509.363281 390.183594 503.820312 386.945312 501.855469 390.582031 Z M 395.488281 543.378906 C 395.476562 543.390625 395.464844 543.410156 395.453125 543.421875 C 395.25 543.699219 395.433594 543.453125 395.488281 543.378906 Z M 395.488281 543.378906 " fill-opacity="1" fill-rule="nonzero"/><path fill="#fc6467" d="M 540.742188 376.386719 C 535.585938 393.167969 524.207031 407.351562 509.941406 417.757812 C 503.480469 422.476562 496.429688 426.410156 489.09375 429.460938 C 477.683594 434.207031 465.640625 437.03125 453.371094 438.464844 C 440.3125 439.996094 426.996094 439.953125 413.894531 438.988281 C 412.546875 438.894531 411.1875 438.777344 409.839844 438.65625 C 401.378906 437.898438 392.917969 436.734375 384.523438 435.140625 C 340.691406 426.808594 298.863281 406.828125 270.027344 373.191406 C 258.9375 360.25 249.738281 344.976562 247.449219 328.078125 C 245.191406 311.421875 250.089844 293.914062 260.667969 280.855469 C 271.246094 267.785156 287.835938 260.308594 304.59375 259.046875 C 301.867188 248.148438 303.195312 236.320312 308.113281 226.222656 C 313.035156 216.125 321.472656 207.816406 331.582031 202.917969 C 342.726562 197.503906 355.335938 196.265625 367.507812 193.933594 C 379.667969 191.613281 392.277344 187.738281 400.632812 178.59375 C 411.496094 166.703125 413.871094 147.320312 427.949219 139.46875 C 436.460938 134.710938 447.425781 135.824219 455.894531 140.648438 C 464.375 145.460938 470.601562 153.523438 475.074219 162.1875 C 479.488281 170.753906 482.386719 180.179688 483.648438 189.816406 C 485.628906 204.9375 492.964844 218.777344 504.25 229.046875 C 504.304688 229.097656 504.367188 229.164062 504.433594 229.21875 C 511.789062 235.964844 518.144531 244.007812 521.84375 253.28125 C 525.320312 261.976562 526.378906 271.550781 525.46875 280.855469 C 524.570312 290.171875 521.746094 299.25 517.738281 307.703125 C 539.0625 321.679688 548.242188 352.011719 540.742188 376.386719 Z M 540.742188 376.386719 " fill-opacity="1" fill-rule="nonzero"/><path fill="#ff5757" d="M 319.75 180.992188 C 319.75 180.992188 319.761719 180.992188 319.761719 180.992188 C 319.546875 181.085938 319.441406 181.128906 319.429688 181.128906 C 319.539062 181.078125 319.644531 181.035156 319.75 180.992188 Z M 282.015625 207.011719 C 276.402344 217.988281 273.867188 230.179688 273.300781 242.4375 C 273.226562 244.167969 274.828125 245.644531 276.507812 245.644531 C 278.316406 245.644531 279.644531 244.167969 279.71875 242.4375 C 279.984375 236.671875 280.585938 231.65625 281.898438 226.050781 C 282.476562 223.589844 283.160156 221.152344 283.984375 218.757812 C 284.359375 217.664062 284.753906 216.585938 285.171875 215.515625 C 285.644531 214.328125 285.761719 214.050781 286.402344 212.648438 C 288.1875 208.800781 290.339844 205.109375 292.839844 201.675781 C 293 201.460938 293.160156 201.25 293.324219 201.023438 C 293.355469 200.980469 293.515625 200.765625 293.601562 200.660156 C 293.824219 200.371094 294.058594 200.082031 294.296875 199.792969 C 294.949219 198.980469 295.632812 198.1875 296.328125 197.417969 C 297.621094 195.976562 298.980469 194.605469 300.402344 193.289062 C 301.066406 192.679688 301.738281 192.082031 302.425781 191.503906 C 302.734375 191.246094 303.042969 190.980469 303.355469 190.734375 C 303.535156 190.585938 303.730469 190.433594 303.910156 190.285156 C 303.976562 190.230469 304.210938 190.050781 304.351562 189.941406 C 305.695312 188.917969 307.066406 187.941406 308.488281 187.011719 C 311.28125 185.195312 314.210938 183.570312 317.226562 182.144531 C 317.910156 181.824219 318.605469 181.503906 319.300781 181.203125 C 319.34375 181.183594 319.386719 181.160156 319.429688 181.152344 C 319.398438 181.160156 319.632812 181.066406 319.75 181.011719 C 319.785156 180.992188 319.824219 180.980469 319.859375 180.96875 C 319.816406 180.992188 319.792969 181 319.761719 181.011719 C 320.15625 180.851562 320.554688 180.691406 320.949219 180.53125 C 322.316406 179.984375 323.699219 179.484375 325.097656 179.011719 C 327.527344 178.199219 329.988281 177.503906 332.46875 176.914062 C 334.648438 176.402344 336.863281 175.964844 339.089844 175.632812 C 339.3125 175.601562 339.539062 175.566406 339.773438 175.535156 C 340.09375 175.492188 340.425781 175.449219 340.746094 175.417969 C 341.292969 175.355469 341.835938 175.300781 342.371094 175.257812 C 344.09375 175.109375 345.582031 173.890625 345.582031 172.050781 C 345.582031 170.421875 344.105469 168.691406 342.371094 168.839844 C 333.226562 169.621094 324.265625 172.082031 315.867188 175.761719 C 301.460938 182.039062 289.214844 192.925781 282.015625 207.011719 Z M 253.375 208.007812 C 254.894531 208.425781 257.066406 207.496094 257.320312 205.761719 C 259.578125 190.789062 268.101562 177.320312 281 169.300781 C 284.507812 167.117188 288.242188 165.355469 292.167969 164.058594 C 293.816406 163.515625 294.882812 161.84375 294.414062 160.113281 C 293.976562 158.496094 292.125 157.332031 290.464844 157.867188 C 274.464844 163.152344 261.4375 175.074219 254.925781 190.617188 C 253.117188 194.9375 251.835938 199.429688 251.140625 204.0625 C 250.871094 205.773438 251.554688 207.515625 253.375 208.007812 Z M 423.144531 463.4375 C 421.851562 462.144531 419.90625 462.285156 418.609375 463.4375 C 412.300781 469.035156 406 474.636719 399.710938 480.261719 C 397.285156 475.847656 394.929688 471.386719 392.640625 466.894531 C 390.0625 461.835938 387.582031 456.722656 385.1875 451.578125 C 384.460938 450.003906 382.191406 449.609375 380.800781 450.421875 C 379.1875 451.363281 378.917969 453.234375 379.644531 454.808594 C 384.363281 464.925781 389.433594 474.871094 394.824219 484.636719 C 389.089844 489.78125 383.367188 494.925781 377.667969 500.105469 C 374.277344 503.171875 370.90625 506.265625 367.527344 509.355469 C 360.8125 496.960938 354.320312 484.433594 347.976562 471.835938 C 352.554688 467.589844 357.066406 463.277344 361.496094 458.871094 C 365.644531 454.753906 369.722656 450.574219 373.742188 446.328125 C 376.585938 443.332031 372.050781 438.785156 369.207031 441.792969 C 361.378906 450.058594 353.28125 458.082031 344.972656 465.855469 C 344.886719 465.683594 344.800781 465.515625 344.714844 465.34375 C 339.710938 455.300781 334.8125 445.214844 329.988281 435.074219 C 329.238281 433.511719 327.003906 433.105469 325.601562 433.917969 C 323.996094 434.859375 323.699219 436.742188 324.445312 438.304688 C 329.558594 449.042969 334.769531 459.726562 340.082031 470.359375 C 335.089844 474.925781 330.019531 479.40625 324.863281 483.78125 C 320.414062 487.570312 315.902344 491.28125 311.324219 494.925781 C 309.964844 496.007812 310.1875 498.339844 311.324219 499.460938 C 312.660156 500.800781 314.5 500.542969 315.859375 499.460938 C 325.164062 492.039062 334.234375 484.304688 343.046875 476.316406 C 345.507812 481.203125 348 486.082031 350.511719 490.949219 C 354.46875 498.605469 358.492188 506.230469 362.609375 513.804688 C 354.09375 521.589844 345.601562 529.398438 337.152344 537.25 C 335.464844 538.820312 333.785156 540.40625 332.09375 541.988281 C 330.949219 539.6875 329.828125 537.367188 328.726562 535.046875 C 325.902344 529.089844 323.214844 523.078125 320.648438 517.003906 C 319.976562 515.410156 317.621094 515.054688 316.265625 515.847656 C 314.605469 516.808594 314.433594 518.640625 315.109375 520.234375 C 318.863281 529.121094 322.917969 537.890625 327.226562 546.535156 C 322.980469 550.5 318.722656 554.457031 314.488281 558.449219 C 311.472656 561.28125 316.019531 565.816406 319.023438 562.984375 C 322.746094 559.476562 326.5 555.988281 330.234375 552.492188 C 335.453125 562.566406 341.035156 572.460938 346.992188 582.117188 C 350.449219 587.722656 354.03125 593.261719 357.730469 598.71875 C 358.703125 600.148438 360.554688 600.78125 362.117188 599.871094 C 363.539062 599.039062 364.246094 596.921875 363.273438 595.488281 C 352.929688 580.222656 343.527344 564.339844 335.097656 547.945312 C 343.132812 540.457031 351.175781 532.980469 359.261719 525.558594 C 361.433594 523.558594 363.613281 521.582031 365.785156 519.589844 C 368.769531 525.003906 371.785156 530.394531 374.886719 535.742188 C 378.78125 542.4375 382.78125 549.078125 386.984375 555.59375 C 387.925781 557.046875 389.828125 557.644531 391.367188 556.746094 C 392.8125 555.902344 393.464844 553.816406 392.523438 552.363281 C 384.714844 540.277344 377.570312 527.773438 370.652344 515.164062 C 379.742188 506.863281 388.855469 498.597656 398 490.371094 C 401.390625 496.339844 404.910156 502.230469 408.546875 508.050781 C 411.5625 512.863281 414.664062 517.625 417.839844 522.328125 C 418.8125 523.761719 420.664062 524.394531 422.226562 523.484375 C 423.648438 522.648438 424.355469 520.53125 423.378906 519.097656 C 416.117188 508.339844 409.273438 497.300781 402.878906 486.007812 C 409.605469 479.984375 416.34375 473.964844 423.101562 467.984375 C 424.441406 466.828125 424.320312 464.605469 423.144531 463.4375 Z M 543.835938 377.242188 C 542.722656 380.816406 541.351562 384.304688 539.738281 387.671875 C 525.746094 416.96875 495.160156 434.367188 464.195312 440.070312 C 446.570312 443.308594 428.515625 443.480469 410.695312 441.941406 C 394.257812 440.53125 377.914062 437.652344 362.042969 433.105469 C 333.632812 424.988281 306.554688 411.523438 284.210938 392.035156 C 261.792969 372.472656 240.496094 344.410156 244.113281 312.953125 C 245.84375 297.859375 252.582031 283.113281 263.878906 272.78125 C 274.058594 263.476562 287.171875 258.019531 300.765625 256.246094 C 300.359375 253.871094 300.09375 251.464844 300.019531 249.058594 C 299.589844 234.789062 305.28125 220.789062 315.300781 210.683594 C 319.996094 205.953125 325.582031 202.050781 331.667969 199.355469 C 338.585938 196.285156 345.914062 194.554688 353.335938 193.195312 C 366.535156 190.789062 380.664062 189.3125 392.105469 181.6875 C 402.054688 175.066406 406.042969 163.855469 411.433594 153.71875 C 414.042969 148.808594 417.113281 143.941406 421.335938 140.261719 C 426.429688 135.824219 432.738281 133.386719 439.5 133.214844 C 453.917969 132.851562 465.9375 142.070312 473.671875 153.523438 C 477.746094 159.558594 480.847656 166.304688 483.136719 173.214844 C 484.324219 176.796875 485.265625 180.464844 485.972656 184.167969 C 486.625 187.644531 486.964844 191.171875 487.746094 194.628906 C 489.148438 200.863281 491.488281 206.820312 494.730469 212.316406 C 498.066406 217.976562 502.269531 222.808594 507.074219 227.28125 C 517.597656 237.101562 525.738281 249.441406 528.089844 263.847656 C 530.484375 278.492188 527.609375 293.15625 521.738281 306.609375 C 525.695312 309.53125 529.246094 312.953125 532.292969 316.824219 C 545.40625 333.519531 550.027344 356.859375 543.835938 377.242188 Z M 537.652344 375.53125 C 539.246094 370.300781 540.039062 365.082031 540.113281 359.640625 C 540.367188 341.660156 532.742188 322.664062 517.972656 311.808594 C 516.101562 313.753906 514.003906 315.464844 511.726562 316.996094 C 498.335938 325.96875 480.933594 328.984375 465.210938 326.054688 C 463.5 325.734375 462.535156 323.667969 462.964844 322.109375 C 463.445312 320.34375 465.210938 319.550781 466.910156 319.863281 C 475.980469 321.550781 485.394531 320.8125 494.183594 318.109375 C 502.035156 315.691406 510.613281 311.667969 515.535156 304.8125 C 516.816406 301.980469 517.960938 299.082031 518.933594 296.117188 C 523.382812 282.511719 524.132812 267.601562 518.742188 254.136719 C 516.355469 248.191406 512.679688 242.703125 508.464844 237.914062 C 504.152344 233.003906 499.03125 228.9375 494.933594 223.828125 C 490.761719 218.605469 487.394531 212.929688 484.847656 206.757812 C 483.640625 203.824219 482.644531 200.808594 481.886719 197.738281 C 481.09375 194.519531 480.699219 191.269531 480.164062 188.007812 C 478.023438 174.90625 472.921875 161.34375 463.925781 151.351562 C 455.839844 142.378906 442.203125 135.855469 430.429688 141.792969 C 420.898438 146.59375 416.792969 157.40625 412.191406 166.542969 C 409.679688 171.515625 406.910156 176.402344 403.175781 180.574219 C 398.917969 185.34375 393.402344 188.894531 387.5625 191.417969 C 374.832031 196.90625 361.023438 197.804688 347.65625 200.894531 C 341.015625 202.425781 334.53125 204.574219 328.703125 208.179688 C 323.621094 211.3125 319.035156 215.453125 315.496094 220.265625 C 307.816406 230.703125 304.757812 244.007812 307.375 256.695312 C 308.46875 260.992188 310.148438 265.070312 312.382812 268.917969 C 321.570312 284.671875 337.945312 294.246094 354.4375 300.824219 C 356.050781 301.464844 357.175781 302.941406 356.683594 304.769531 C 356.253906 306.3125 354.351562 307.660156 352.734375 307.015625 C 347.441406 304.910156 342.210938 302.597656 337.195312 299.894531 C 321.976562 291.691406 308.09375 279.101562 302.402344 262.511719 C 299.824219 262.800781 297.269531 263.25 294.746094 263.847656 C 281.449219 267.015625 269.066406 274.363281 261.097656 285.636719 C 252.816406 297.359375 248.988281 311.894531 250.445312 326.171875 C 251.929688 340.761719 259.234375 354.300781 268.058594 365.757812 C 276.605469 376.835938 286.90625 386.730469 298.101562 395.105469 C 320.84375 412.121094 347.421875 423.417969 374.992188 429.875 C 390.996094 433.632812 407.347656 435.78125 423.765625 436.359375 C 440.621094 436.945312 457.636719 435.792969 473.960938 431.300781 C 502.015625 423.542969 528.710938 404.292969 537.652344 375.53125 Z M 537.652344 375.53125 " fill-opacity="1" fill-rule="nonzero"/><path fill="#fdf9f5" d="M 442.898438 147.566406 C 443.820312 149.140625 443.179688 150.980469 441.746094 151.953125 C 433.605469 157.503906 429.070312 166.851562 424.996094 175.515625 C 421.144531 183.71875 417.328125 192.101562 411.144531 198.875 C 408.042969 202.273438 404.300781 205.164062 400.105469 207.089844 C 395.53125 209.195312 390.714844 210.296875 385.742188 210.949219 C 376.46875 212.167969 367.058594 211.761719 357.847656 213.496094 C 349.144531 215.132812 340.523438 218.234375 333.890625 224.285156 C 332.605469 225.464844 330.628906 225.558594 329.355469 224.285156 C 328.167969 223.097656 328.074219 220.917969 329.355469 219.75 C 337.300781 212.5 347.582031 208.679688 358.074219 206.96875 C 367.550781 205.417969 377.207031 205.910156 386.664062 204.394531 C 391.175781 203.664062 395.65625 202.457031 399.625 200.125 C 403.199219 198.027344 406.246094 195.097656 408.75 191.804688 C 414.257812 184.574219 417.550781 175.984375 421.574219 167.898438 C 425.691406 159.621094 430.761719 151.707031 438.515625 146.410156 C 439.949219 145.429688 442.078125 146.144531 442.898438 147.566406 Z M 325.175781 233.835938 C 323.730469 233.078125 321.570312 233.378906 320.789062 234.992188 C 317.054688 242.597656 316.917969 251.207031 320.210938 258.984375 C 320.886719 260.578125 323.238281 260.929688 324.597656 260.136719 C 326.242188 259.175781 326.425781 257.347656 325.75 255.753906 C 325.847656 255.976562 325.828125 255.914062 325.675781 255.539062 C 325.589844 255.324219 325.515625 255.101562 325.441406 254.875 C 325.324219 254.542969 325.214844 254.210938 325.121094 253.871094 C 324.886719 253.089844 324.691406 252.289062 324.542969 251.484375 C 324.296875 250.191406 324.179688 248.628906 324.222656 246.929688 C 324.296875 244.074219 325.089844 240.769531 326.328125 238.234375 C 327.066406 236.726562 326.777344 234.691406 325.175781 233.835938 Z M 316.414062 383.660156 C 308.296875 379.296875 300.007812 374.914062 292.917969 368.964844 C 286.617188 363.683594 281.609375 357.273438 277.964844 349.917969 C 270.871094 335.574219 269.652344 318.429688 275.34375 303.421875 C 277.109375 298.769531 279.726562 294.472656 283.074219 290.792969 C 286.660156 286.84375 290.832031 283.488281 294.980469 280.171875 C 296.339844 279.089844 296.113281 276.757812 294.980469 275.636719 C 293.644531 274.300781 291.804688 274.554688 290.445312 275.636719 C 282.625 281.871094 275.117188 288.480469 270.828125 297.734375 C 267.011719 305.96875 265.214844 315.101562 265.355469 324.171875 C 265.609375 341.53125 272.785156 358.902344 285.429688 370.890625 C 293.535156 378.582031 303.410156 383.972656 313.171875 389.222656 C 316.808594 391.160156 320.0625 385.617188 316.414062 383.660156 Z M 346.5 396.839844 C 343.890625 396.269531 341.3125 395.554688 338.800781 394.65625 C 338.179688 394.441406 337.570312 394.207031 336.960938 393.972656 C 336.648438 393.855469 336.351562 393.726562 336.050781 393.609375 C 335.945312 393.566406 335.878906 393.53125 335.835938 393.523438 C 335.773438 393.492188 335.710938 393.46875 335.65625 393.449219 C 334.414062 392.902344 333.183594 392.324219 331.976562 391.703125 C 330.480469 390.945312 328.425781 391.265625 327.589844 392.859375 C 326.820312 394.324219 327.152344 396.433594 328.746094 397.246094 C 333.828125 399.84375 339.226562 401.832031 344.8125 403.03125 C 346.449219 403.382812 348.363281 402.539062 348.757812 400.785156 C 349.109375 399.167969 348.253906 397.222656 346.5 396.839844 Z M 503.4375 287.5625 C 502.3125 291.539062 508.507812 293.242188 509.628906 289.273438 C 513.671875 274.910156 511.984375 259.304688 505.085938 246.085938 C 504.28125 244.542969 502.144531 244.082031 500.699219 244.929688 C 499.136719 245.839844 498.742188 247.773438 499.542969 249.3125 C 505.640625 261.015625 507.007812 274.875 503.4375 287.5625 Z M 526.507812 349.574219 C 526.230469 340.941406 523.972656 332.429688 519.664062 324.921875 C 517.609375 321.339844 512.058594 324.566406 514.121094 328.160156 C 521.03125 340.195312 521.769531 354.933594 517.339844 367.960938 C 513.105469 380.421875 503.84375 390.582031 492.570312 397.117188 C 486.195312 400.804688 479.285156 403.296875 472.023438 404.636719 C 470.324219 404.945312 469.351562 407.019531 469.777344 408.582031 C 470.269531 410.378906 472.011719 411.136719 473.726562 410.828125 C 487.757812 408.25 501.136719 401.191406 510.871094 390.71875 C 521.203125 379.609375 526.988281 364.785156 526.507812 349.574219 Z M 300.519531 553.527344 C 300.027344 535.269531 299.546875 517.023438 299.054688 498.765625 C 298.5625 480.507812 298.082031 462.261719 297.589844 444.003906 C 297.3125 433.671875 297.035156 423.351562 296.765625 413.019531 C 296.660156 408.902344 290.242188 408.882812 290.347656 413.019531 C 290.839844 431.277344 291.324219 449.523438 291.8125 467.78125 C 292.304688 486.039062 292.789062 504.285156 293.28125 522.542969 C 293.558594 532.875 293.835938 543.195312 294.101562 553.527344 C 294.210938 557.644531 300.628906 557.667969 300.519531 553.527344 Z M 301.097656 568.46875 C 300.542969 567.914062 299.632812 567.496094 298.832031 567.527344 C 297.183594 567.605469 295.503906 568.941406 295.621094 570.738281 C 295.847656 574.148438 296.070312 577.550781 296.296875 580.960938 C 296.347656 581.816406 296.617188 582.609375 297.238281 583.230469 C 297.792969 583.785156 298.703125 584.203125 299.503906 584.171875 C 301.152344 584.097656 302.832031 582.757812 302.714844 580.960938 C 302.488281 577.550781 302.265625 574.148438 302.039062 570.738281 C 301.976562 569.890625 301.71875 569.089844 301.097656 568.46875 Z M 301.097656 568.46875 " fill-opacity="1" fill-rule="nonzero"/><path fill="#ff5757" d="M 476.335938 436.710938 C 470.699219 445.074219 464.484375 454.125 457.894531 463.558594 C 440.964844 457.191406 424.792969 448.820312 409.839844 438.65625 C 411.1875 438.777344 412.546875 438.894531 413.894531 438.988281 C 426.996094 439.953125 440.3125 439.996094 453.371094 438.464844 C 461.070312 438.359375 468.761719 437.8125 476.335938 436.710938 Z M 380.769531 309.261719 C 376.929688 307.039062 372.621094 305.785156 368.339844 304.589844 C 352.4375 300.117188 335.785156 295.625 323.546875 284.523438 L 320.105469 284.246094 C 325.292969 293.113281 330.863281 301.796875 337.527344 309.617188 C 344.191406 317.433594 351.988281 324.398438 361.003906 329.296875 C 367.238281 332.6875 374.492188 335.101562 381.390625 333.457031 C 383.175781 333.027344 384.917969 332.324219 386.34375 331.167969 C 389.785156 328.375 390.769531 323.242188 389.378906 319.027344 C 387.976562 314.8125 384.609375 311.488281 380.769531 309.261719 Z M 380.769531 309.261719 " fill-opacity="1" fill-rule="nonzero"/><path fill="#ffc17d" d="M 380.40625 358.878906 C 376.929688 359.210938 372.910156 360.046875 373.753906 365.105469 C 373.933594 366.207031 375.773438 367.949219 376.671875 367.84375 C 380.019531 367.457031 384.148438 367.640625 384.46875 361.542969 C 383.402344 360.792969 381.796875 358.742188 380.40625 358.878906 Z M 440.3125 311.925781 C 435.863281 311.359375 435.261719 314.910156 434.769531 318.03125 C 434.675781 318.664062 436.792969 320.441406 437.199219 320.246094 C 439.863281 318.984375 442.324219 317.316406 446.226562 314.953125 C 443.113281 313.304688 441.777344 312.109375 440.3125 311.925781 Z M 473.84375 391.246094 C 474.011719 391.40625 476.859375 389.160156 476.804688 389.082031 C 474.953125 386.183594 472.910156 383.40625 470.890625 380.613281 C 470.171875 381.757812 469.46875 382.890625 468.164062 384.988281 C 470.046875 387.136719 471.820312 389.320312 473.84375 391.246094 Z M 294.125 332.976562 C 294.125 337.542969 294.125 342.109375 294.125 346.675781 C 296.402344 342.761719 297.3125 338.824219 297.816406 334.824219 C 297.855469 334.460938 295.289062 333.765625 293.941406 333.222656 Z M 429.136719 210.253906 C 430.054688 208.167969 431.382812 206.148438 431.734375 203.964844 C 431.925781 202.789062 430.460938 201.332031 429.746094 200.007812 C 428.417969 201.707031 427.101562 203.410156 425.5 205.460938 C 427.09375 207.558594 428.109375 208.90625 429.136719 210.253906 Z M 452.867188 197.453125 C 452.644531 200.894531 452.207031 204.339844 452.355469 207.761719 C 452.386719 208.542969 454.410156 209.25 455.519531 209.976562 C 455.390625 208.832031 455.382812 207.664062 455.113281 206.5625 C 454.398438 203.535156 453.574219 200.53125 452.804688 197.515625 Z M 414.84375 395.929688 C 413.015625 394.976562 411.25 393.800781 409.316406 393.246094 C 408.878906 393.117188 406.984375 395.777344 407.175781 396.023438 C 408.375 397.5 409.863281 398.847656 411.496094 399.8125 C 412.042969 400.132812 413.316406 399.210938 414.246094 398.859375 C 414.449219 397.875 414.640625 396.902344 414.84375 395.929688 Z M 388.554688 269.808594 C 387.882812 270.832031 386.554688 271.945312 386.671875 272.867188 C 386.875 274.375 388.011719 275.765625 388.757812 277.199219 C 389.550781 276.289062 390.34375 275.378906 391.402344 274.171875 C 390.265625 272.4375 389.410156 271.121094 388.554688 269.808594 Z M 446.449219 328.484375 C 445.019531 329.125 442.535156 330.460938 442.664062 330.984375 C 443.125 332.847656 444.503906 334.484375 445.542969 336.203125 C 446.34375 334.3125 447.144531 332.40625 448.164062 329.992188 C 447.691406 329.550781 446.773438 328.34375 446.449219 328.484375 Z M 362.148438 264.769531 C 361.089844 264.628906 359.625 266.492188 358.640625 267.699219 C 358.40625 267.988281 359.507812 269.976562 359.742188 269.933594 C 362.265625 269.421875 364.746094 268.664062 367.847656 267.796875 C 365.679688 266.566406 364 265.015625 362.148438 264.769531 Z M 441.894531 348.902344 C 441.832031 347.800781 440.984375 346.738281 440.492188 345.660156 C 439.617188 346.953125 437.980469 348.28125 438.054688 349.519531 C 438.160156 351.351562 439.476562 353.125 441.230469 357.070312 C 441.617188 352.75 442 350.816406 441.894531 348.902344 Z M 467.46875 296.269531 C 472.527344 297.796875 477.039062 296.75 482.238281 292.84375 C 476.023438 291.894531 471.746094 293.722656 467.671875 296.460938 Z M 437.839844 391.277344 C 437.679688 391.671875 438.835938 392.601562 439.390625 393.289062 C 440.8125 391.671875 442.238281 390.046875 443.660156 388.429688 C 442.910156 387.855469 442.160156 387.265625 440.75 386.175781 C 439.617188 388.078125 438.535156 389.597656 437.839844 391.277344 Z M 447.027344 361.992188 C 446.085938 362.902344 444.332031 363.863281 444.386719 364.71875 C 444.460938 365.980469 445.628906 367.425781 446.71875 368.269531 C 447.113281 368.582031 448.664062 367.394531 449.863281 366.804688 C 448.6875 364.804688 447.851562 363.402344 447.027344 361.992188 Z M 289.664062 340.847656 C 288.90625 342.28125 287.855469 343.636719 287.503906 345.15625 C 287.3125 345.960938 288.328125 347.039062 288.796875 348.003906 C 289.804688 346.738281 290.820312 345.476562 292.15625 343.808594 C 291.160156 342.632812 290.414062 341.746094 289.664062 340.847656 Z M 283.566406 327.808594 C 283.566406 323.980469 283.566406 320.140625 283.566406 316.3125 C 283.152344 316.3125 282.722656 316.3125 282.304688 316.3125 C 282.304688 320.066406 282.304688 323.832031 282.304688 327.585938 C 282.722656 327.660156 283.140625 327.734375 283.566406 327.808594 Z M 368.5 233.429688 C 367.773438 234.660156 366.800781 235.816406 366.425781 237.152344 C 366.191406 238.007812 366.8125 239.121094 367.144531 240.09375 C 367.347656 240.703125 367.730469 241.261719 368.03125 241.835938 C 368.480469 241.164062 369.1875 240.542969 369.316406 239.816406 C 369.496094 238.832031 369.230469 237.761719 369.003906 234.609375 C 369.378906 235.464844 368.941406 234.445312 368.5 233.429688 Z M 435.316406 245.667969 C 435.316406 243.132812 435.328125 240.609375 435.253906 238.074219 C 435.253906 238.007812 434.289062 237.976562 433.777344 237.933594 C 433.949219 240.5 434.117188 243.078125 434.289062 245.644531 C 434.632812 245.65625 434.976562 245.667969 435.316406 245.667969 Z M 353.429688 278.8125 C 352.777344 278.683594 351.933594 279.5625 351.183594 279.976562 C 352.308594 281.015625 353.355469 282.160156 354.617188 282.996094 C 354.820312 283.121094 355.945312 281.851562 357.25 280.695312 C 355.636719 279.851562 354.597656 279.035156 353.429688 278.8125 Z M 425.851562 418.164062 C 424.996094 418.035156 424 418.859375 423.058594 419.257812 C 424.621094 420.410156 426.109375 421.695312 427.796875 422.625 C 428.097656 422.796875 429.210938 421.511719 430.898438 420.089844 C 428.695312 419.203125 427.316406 418.378906 425.851562 418.164062 Z M 492.464844 349.007812 C 491.832031 346.398438 491.203125 343.789062 490.558594 341.167969 C 489.992188 341.308594 489.414062 341.457031 488.847656 341.59375 C 489.480469 344.214844 490.109375 346.824219 490.742188 349.445312 C 491.320312 349.296875 491.886719 349.148438 492.464844 349.007812 Z M 369.132812 226.457031 C 369.292969 225.75 368.5 224.832031 368.128906 223.996094 C 367.273438 224.980469 366.234375 225.871094 365.65625 227.003906 C 365.410156 227.484375 366.105469 228.457031 366.757812 230.296875 C 367.957031 228.445312 368.875 227.527344 369.132812 226.457031 Z M 422.726562 305.046875 C 425.445312 305.046875 428.152344 305.046875 430.867188 305.046875 C 427.90625 302.34375 425.175781 302.085938 422.910156 305.25 Z M 467.199219 242.949219 C 467.863281 242.972656 468.558594 242.136719 469.234375 241.6875 C 468.25 240.949219 467.351562 239.957031 466.25 239.570312 C 465.734375 239.386719 464.816406 240.382812 462.933594 241.570312 C 465.0625 242.308594 466.121094 242.917969 467.199219 242.949219 Z M 428.441406 255.699219 C 428.289062 256.296875 427.863281 257.027344 428.054688 257.476562 C 428.289062 258.019531 429.015625 258.449219 429.617188 258.660156 C 429.789062 258.726562 430.289062 257.871094 430.855469 257.175781 C 430.023438 256.660156 429.230469 256.179688 428.441406 255.699219 Z M 339.828125 351.628906 C 339.644531 351.179688 338.800781 351.007812 338.242188 350.707031 C 338.039062 351.296875 337.558594 351.96875 337.710938 352.441406 C 337.835938 352.847656 338.683594 353.039062 339.21875 353.316406 C 339.441406 352.742188 339.988281 352.035156 339.828125 351.628906 Z M 389.894531 355.863281 C 389.730469 355.199219 388.597656 354.773438 387.882812 354.25 C 387.390625 354.921875 386.492188 355.628906 386.535156 356.269531 C 386.578125 356.953125 387.519531 357.574219 388.417969 358.65625 C 389.15625 357.351562 390.042969 356.484375 389.894531 355.863281 Z M 506.636719 404.035156 C 505.339844 404.027344 504.046875 404.28125 502.753906 404.441406 C 503.160156 404.988281 503.5 405.929688 503.972656 405.992188 C 505.179688 406.164062 506.433594 405.941406 508.164062 405.84375 C 507.332031 404.816406 506.976562 404.035156 506.636719 404.035156 Z M 410.792969 415.769531 C 410.472656 416.304688 409.828125 416.882812 409.894531 417.351562 C 410 418.15625 410.554688 418.890625 410.929688 419.664062 C 411.753906 419.203125 412.578125 418.730469 413.957031 417.960938 C 412.191406 416.753906 411.496094 416.261719 410.792969 415.769531 Z M 433.347656 335.167969 C 433.402344 334.171875 433.765625 333.039062 433.402344 332.214844 C 433.070312 331.464844 431.96875 331.058594 431.199219 330.503906 C 431.101562 331.585938 430.664062 332.8125 431.039062 333.679688 C 431.328125 334.34375 432.664062 334.546875 433.542969 334.964844 Z M 420.898438 320.675781 C 421.113281 320.238281 420.761719 319.53125 420.652344 318.929688 C 419.988281 319.273438 419.21875 319.507812 418.726562 320.011719 C 418.566406 320.171875 419.15625 321.058594 419.402344 321.617188 C 419.925781 321.316406 420.683594 321.125 420.898438 320.675781 Z M 499.695312 337.210938 C 498.796875 337.550781 497.898438 337.90625 497 338.246094 C 497.320312 338.613281 497.640625 338.976562 497.960938 339.339844 C 498.558594 338.632812 499.148438 337.917969 499.734375 337.210938 Z M 460.332031 344.492188 C 460.226562 344.417969 459.09375 345.5 459.15625 345.605469 C 459.617188 346.367188 460.195312 347.09375 460.890625 347.628906 C 461.039062 347.734375 461.832031 346.984375 462.578125 346.460938 C 461.820312 345.746094 461.136719 345.027344 460.332031 344.492188 Z M 284.691406 332.976562 C 284.464844 332.976562 284.015625 333.550781 284.082031 333.671875 C 284.296875 334.109375 284.667969 334.460938 284.992188 334.847656 C 285.398438 334.367188 285.792969 333.894531 286.273438 333.316406 C 285.707031 333.1875 285.203125 332.964844 284.691406 332.976562 Z M 381.28125 351.167969 C 381.015625 350.621094 380.714844 349.605469 380.480469 349.617188 C 379.808594 349.660156 379.15625 350.109375 378.503906 350.410156 C 378.84375 350.859375 379.1875 351.296875 379.539062 351.746094 C 380.117188 351.542969 380.707031 351.359375 381.28125 351.167969 Z M 461.882812 369.234375 C 462.332031 369.394531 462.996094 368.976562 463.5625 368.804688 C 463.113281 368.164062 462.707031 367.46875 462.164062 366.933594 C 462.089844 366.859375 461.285156 367.523438 460.816406 367.84375 C 461.167969 368.335938 461.425781 369.074219 461.882812 369.234375 Z M 377.839844 258.542969 C 377.644531 258.5 377.089844 259.121094 377.132812 259.1875 C 377.410156 259.644531 377.808594 260.050781 378.160156 260.46875 C 378.585938 260.0625 379.015625 259.65625 379.441406 259.25 C 378.910156 258.992188 378.394531 258.671875 377.839844 258.542969 Z M 492.71875 271.730469 C 492.304688 272.128906 491.652344 272.480469 491.542969 272.941406 C 491.425781 273.519531 491.777344 274.191406 491.917969 274.8125 C 492.441406 274.683594 492.976562 274.546875 493.855469 274.332031 C 493.46875 273.433594 493.09375 272.578125 492.71875 271.730469 Z M 490.964844 308.640625 C 490.921875 309.175781 491.457031 309.753906 491.726562 310.3125 C 492.207031 309.703125 493.03125 309.125 493.082031 308.480469 C 493.148438 307.703125 492.558594 306.867188 492.023438 305.414062 C 491.5 306.921875 491.050781 307.765625 490.964844 308.640625 Z M 497.628906 298.234375 C 497.191406 298.449219 496.730469 298.621094 496.355469 298.910156 C 496.261719 298.984375 496.464844 299.433594 496.527344 299.710938 C 496.957031 299.488281 497.382812 299.273438 497.8125 299.046875 C 497.746094 298.78125 497.695312 298.515625 497.628906 298.234375 Z M 457.167969 152.15625 C 457.167969 151.632812 456.558594 151.105469 456.214844 150.582031 C 455.800781 151.269531 455.265625 151.910156 455.039062 152.648438 C 454.976562 152.871094 455.800781 153.351562 456.214844 153.71875 C 456.558594 153.203125 457.167969 152.679688 457.167969 152.15625 Z M 445.59375 196.660156 L 444.867188 196.511719 L 445.113281 197.367188 Z M 293.933594 333.230469 C 293.171875 332.847656 292.433594 332.441406 291.6875 332.042969 C 291.652344 332.515625 291.609375 332.976562 291.578125 333.445312 C 292.433594 333.285156 293.28125 333.125 294.136719 332.976562 C 294.125 332.976562 293.941406 333.222656 293.933594 333.230469 Z M 442.953125 305.625 C 442.71875 305.839844 442.269531 306.042969 442.269531 306.257812 C 442.269531 306.824219 442.460938 307.378906 442.578125 307.945312 C 442.953125 307.703125 443.339844 307.457031 443.710938 307.199219 C 443.46875 306.675781 443.210938 306.148438 442.953125 305.625 Z M 422.910156 305.261719 C 422.066406 305.507812 421.21875 305.742188 420.386719 305.988281 C 420.601562 306.226562 420.8125 306.449219 421.027344 306.683594 C 421.59375 306.140625 422.160156 305.59375 422.726562 305.058594 C 422.726562 305.046875 422.910156 305.261719 422.910156 305.261719 Z M 486.933594 313.914062 C 486.699219 314.128906 486.238281 314.386719 486.269531 314.546875 C 486.386719 315.113281 486.675781 315.648438 486.902344 316.195312 C 487.136719 315.980469 487.363281 315.765625 487.597656 315.542969 C 487.363281 315.007812 487.148438 314.460938 486.933594 313.914062 Z M 462.664062 334.429688 L 463.394531 334.128906 L 462.6875 333.777344 Z M 469.917969 187.921875 C 469.863281 188.285156 469.820312 188.648438 469.765625 189.023438 C 470.054688 188.96875 470.386719 188.992188 470.621094 188.839844 C 470.742188 188.765625 470.699219 188.425781 470.730469 188.199219 C 470.453125 188.113281 470.183594 188.019531 469.917969 187.921875 Z M 426.085938 184.101562 C 425.851562 184.304688 425.421875 184.5 425.414062 184.722656 C 425.378906 185.269531 425.542969 185.824219 425.617188 186.371094 C 426 186.144531 426.398438 185.921875 426.792969 185.695312 C 426.558594 185.160156 426.320312 184.636719 426.085938 184.101562 Z M 357.3125 225.546875 C 357.109375 225.785156 356.703125 226.039062 356.726562 226.242188 C 356.800781 226.800781 357.058594 227.324219 357.238281 227.871094 C 357.558594 227.527344 357.890625 227.175781 358.210938 226.832031 C 357.921875 226.394531 357.625 225.976562 357.3125 225.546875 Z M 359.882812 219.132812 C 359.636719 219.300781 359.152344 219.589844 359.175781 219.625 C 359.410156 220.074219 359.710938 220.480469 359.988281 220.894531 C 360.117188 220.585938 360.246094 220.285156 360.371094 219.976562 C 360.203125 219.699219 360.042969 219.421875 359.882812 219.132812 Z M 436.664062 236.714844 C 436.417969 236.898438 435.957031 237.078125 435.957031 237.25 C 435.96875 237.761719 436.171875 238.277344 436.300781 238.789062 C 436.707031 238.566406 437.113281 238.339844 437.519531 238.105469 C 437.230469 237.644531 436.953125 237.175781 436.664062 236.714844 Z M 435.253906 288.46875 C 434.984375 288.394531 434.707031 288.308594 434.441406 288.234375 C 434.355469 288.535156 434.183594 288.855469 434.226562 289.132812 C 434.246094 289.25 434.707031 289.316406 434.964844 289.402344 C 435.058594 289.089844 435.15625 288.78125 435.253906 288.46875 Z M 509.128906 294.023438 C 509 294.246094 509.007812 294.554688 508.964844 294.824219 C 509.296875 294.75 509.628906 294.675781 509.972656 294.597656 C 509.886719 294.34375 509.800781 294.097656 509.714844 293.839844 C 509.5 293.894531 509.203125 293.894531 509.128906 294.023438 Z M 415.742188 299.648438 C 415.636719 299.453125 415.21875 299.433594 414.941406 299.335938 C 414.921875 299.796875 414.886719 300.246094 414.867188 300.707031 C 415.125 300.640625 415.378906 300.578125 415.625 300.515625 C 415.679688 300.214844 415.863281 299.839844 415.742188 299.648438 Z M 317.324219 285.078125 C 317.324219 285.003906 316.894531 284.929688 316.660156 284.855469 C 316.585938 285.132812 316.445312 285.410156 316.46875 285.667969 C 316.476562 285.765625 316.863281 285.828125 317.089844 285.914062 C 317.171875 285.636719 317.324219 285.359375 317.324219 285.078125 Z M 391.816406 385.5 C 391.582031 385.574219 391.144531 385.628906 391.144531 385.714844 C 391.121094 385.992188 391.261719 386.28125 391.335938 386.558594 C 391.570312 386.484375 391.808594 386.410156 392.042969 386.347656 C 391.96875 386.066406 391.894531 385.777344 391.816406 385.5 Z M 455.875 385.167969 C 455.851562 385.660156 455.820312 386.152344 455.800781 386.644531 C 455.96875 386.410156 456.140625 386.164062 456.3125 385.929688 C 456.164062 385.671875 456.023438 385.425781 455.875 385.167969 Z M 462.472656 397.160156 C 462.355469 397.105469 461.894531 397.511719 461.863281 397.738281 C 461.832031 397.960938 462.171875 398.472656 462.300781 398.453125 C 462.816406 398.390625 463.316406 398.164062 463.820312 397.992188 C 463.371094 397.703125 462.953125 397.363281 462.472656 397.160156 Z M 444.011719 375.671875 C 443.90625 375.929688 443.808594 376.175781 443.703125 376.429688 C 443.875 376.25 444.054688 376.066406 444.226562 375.886719 Z M 388.738281 376.953125 C 388.546875 376.699219 388.351562 376.453125 388.171875 376.195312 C 387.839844 376.515625 387.507812 376.835938 387.1875 377.160156 C 387.453125 377.277344 387.710938 377.394531 387.976562 377.511719 C 388.222656 377.328125 388.480469 377.136719 388.738281 376.953125 Z M 475.210938 374.953125 C 474.988281 375.199219 474.539062 375.542969 474.589844 375.660156 C 474.773438 376.046875 475.125 376.34375 475.414062 376.675781 C 475.523438 376.378906 475.628906 376.089844 475.726562 375.789062 C 475.554688 375.511719 475.382812 375.234375 475.210938 374.953125 Z M 439.882812 398.1875 L 439.09375 397.777344 L 439.070312 398.515625 Z M 467.328125 363.0625 C 467.050781 363.285156 466.515625 363.574219 466.546875 363.714844 C 466.730469 364.34375 467.0625 364.921875 467.339844 365.519531 C 467.574219 365.265625 467.808594 364.996094 468.066406 364.707031 C 467.84375 364.214844 467.585938 363.640625 467.328125 363.0625 Z M 408.320312 367.832031 C 408.097656 367.800781 407.828125 367.980469 407.582031 368.078125 C 407.765625 368.25 407.9375 368.527344 408.140625 368.558594 C 408.363281 368.601562 408.621094 368.410156 408.867188 368.3125 C 408.683594 368.140625 408.523438 367.863281 408.320312 367.832031 Z M 405.785156 218.480469 L 405.378906 218.46875 L 405.980469 218.628906 Z M 452.867188 197.453125 L 452.527344 197.214844 C 452.527344 197.214844 452.792969 197.527344 452.792969 197.527344 C 452.792969 197.515625 452.867188 197.453125 452.867188 197.453125 Z M 405.777344 218.480469 C 405.765625 218.46875 406.023438 218.929688 406.023438 218.929688 L 405.980469 218.628906 C 405.980469 218.628906 405.785156 218.480469 405.777344 218.480469 Z M 436.933594 209.410156 L 437.027344 208.703125 L 436.246094 208.960938 Z M 331.023438 247.25 L 331.207031 247.101562 Z M 337.484375 239.753906 C 337.28125 239.933594 337.078125 240.125 336.886719 240.308594 C 337.132812 240.191406 337.378906 240.0625 337.625 239.945312 Z M 380.214844 243.410156 L 380 243.59375 Z M 331.011719 247.269531 C 331.003906 247.28125 331.207031 247.101562 331.207031 247.101562 C 331.207031 247.101562 331.023438 247.25 331.011719 247.269531 Z M 337.625 239.945312 L 337.429688 239.421875 C 337.429688 239.421875 337.453125 239.71875 337.472656 239.742188 C 337.496094 239.761719 337.625 239.945312 337.625 239.945312 Z M 379.988281 243.601562 L 380.332031 244.074219 C 380.332031 244.074219 380.191406 243.421875 380.203125 243.421875 C 380.214844 243.421875 379.988281 243.601562 379.988281 243.601562 Z M 487.125 358.28125 L 486.570312 358.121094 L 486.921875 358.472656 Z M 434.546875 356.707031 C 434.320312 356.921875 434.085938 357.136719 433.863281 357.359375 C 434.183594 357.597656 434.503906 357.832031 434.824219 358.066406 C 434.941406 357.84375 435.058594 357.628906 435.179688 357.402344 C 434.976562 357.167969 434.761719 356.933594 434.546875 356.707031 Z M 486.921875 358.472656 C 487.167969 358.65625 487.414062 358.835938 487.660156 359.027344 C 487.480469 358.785156 487.296875 358.539062 487.125 358.28125 C 487.125 358.28125 486.921875 358.472656 486.921875 358.472656 Z M 477.359375 359.15625 C 477.125 359.148438 476.878906 359.53125 476.632812 359.746094 C 476.859375 359.980469 477.0625 360.398438 477.296875 360.410156 C 477.523438 360.417969 477.777344 360.035156 478.011719 359.820312 C 477.800781 359.585938 477.585938 359.167969 477.359375 359.15625 Z M 433.542969 334.964844 C 433.59375 335.273438 433.574219 335.617188 433.722656 335.875 C 433.796875 336 434.171875 335.957031 434.40625 335.992188 C 434.054688 335.714844 433.703125 335.445312 433.347656 335.167969 Z M 457.253906 336.558594 L 456.738281 336.601562 L 457.359375 336.792969 Z M 499.734375 337.222656 C 499.726562 337.222656 499.980469 336.78125 499.980469 336.78125 L 499.695312 337.210938 C 499.695312 337.210938 499.734375 337.210938 499.734375 337.222656 Z M 457.253906 336.570312 C 457.253906 336.570312 457.253906 337.210938 457.253906 337.210938 L 457.359375 336.792969 C 457.359375 336.792969 457.253906 336.558594 457.253906 336.570312 Z M 396.148438 400.625 L 396.222656 400.101562 L 395.679688 400.292969 Z M 467.671875 296.460938 C 467.4375 296.609375 467.15625 296.707031 466.964844 296.898438 C 466.878906 296.996094 466.964844 297.25 466.976562 297.445312 C 467.136719 297.046875 467.296875 296.652344 467.457031 296.257812 C 467.46875 296.269531 467.671875 296.449219 467.671875 296.460938 Z M 444.011719 375.671875 C 444.332031 375.585938 444.695312 375.566406 444.964844 375.394531 C 445.113281 375.296875 445.09375 374.945312 445.144531 374.707031 C 444.835938 375.09375 444.535156 375.488281 444.226562 375.875 C 444.226562 375.875 444.011719 375.671875 444.011719 375.671875 Z M 480.023438 397.917969 L 480.644531 398.003906 L 480.410156 397.371094 Z M 321.121094 305.625 C 320.90625 305.820312 320.519531 306 320.511719 306.203125 C 320.488281 306.40625 320.84375 306.652344 321.023438 306.878906 C 321.238281 306.683594 321.460938 306.492188 321.675781 306.300781 C 321.496094 306.074219 321.300781 305.851562 321.121094 305.625 Z M 448.941406 381.050781 C 448.933594 381.285156 449.339844 381.542969 449.5625 381.789062 C 449.808594 381.566406 450.238281 381.351562 450.246094 381.117188 C 450.257812 380.878906 449.851562 380.625 449.628906 380.386719 C 449.382812 380.601562 448.953125 380.816406 448.941406 381.050781 Z M 479.394531 266.332031 C 479.179688 266.523438 478.804688 266.695312 478.792969 266.910156 C 478.773438 267.113281 479.117188 267.347656 479.296875 267.570312 C 479.511719 267.378906 479.726562 267.195312 479.9375 267.003906 C 479.757812 266.78125 479.574219 266.554688 479.394531 266.332031 Z M 471.019531 221.054688 L 471.082031 220.359375 L 470.386719 220.648438 Z M 462.195312 209.570312 L 462.121094 210.148438 L 462.707031 209.921875 Z M 462.195312 209.570312 " fill-opacity="1" fill-rule="nonzero"/><g fill="#000000" fill-opacity="0.4"><g transform="translate(238.614202, 718.448018)"><g><path d="M 14.453125 0 L 5.734375 0 L 5.734375 -44.09375 L 14.453125 -44.09375 Z M 14.453125 0 "/></g></g></g><g fill="#000000" fill-opacity="0.4"><g transform="translate(258.821392, 718.448018)"><g><path d="M 24.09375 0.640625 C 20.03125 0.640625 16.453125 -0.203125 13.359375 -1.890625 C 10.265625 -3.585938 7.84375 -6.128906 6.09375 -9.515625 C 4.34375 -12.898438 3.46875 -17.078125 3.46875 -22.046875 C 3.46875 -27.015625 4.34375 -31.191406 6.09375 -34.578125 C 7.84375 -37.960938 10.265625 -40.5 13.359375 -42.1875 C 16.453125 -43.875 20.03125 -44.71875 24.09375 -44.71875 C 28.332031 -44.71875 31.9375 -43.890625 34.90625 -42.234375 C 37.875 -40.578125 39.988281 -38.050781 41.25 -34.65625 L 34.890625 -30.765625 L 34.140625 -30.796875 C 33.191406 -33.085938 31.90625 -34.726562 30.28125 -35.71875 C 28.664062 -36.71875 26.601562 -37.21875 24.09375 -37.21875 C 20.4375 -37.21875 17.582031 -36.003906 15.53125 -33.578125 C 13.476562 -31.160156 12.453125 -27.316406 12.453125 -22.046875 C 12.453125 -16.796875 13.476562 -12.957031 15.53125 -10.53125 C 17.582031 -8.113281 20.4375 -6.90625 24.09375 -6.90625 C 29.820312 -6.90625 33.332031 -9.691406 34.625 -15.265625 L 35.375 -15.265625 L 41.796875 -11.90625 C 40.585938 -7.726562 38.523438 -4.59375 35.609375 -2.5 C 32.703125 -0.40625 28.863281 0.640625 24.09375 0.640625 Z M 24.09375 0.640625 "/></g></g></g><g fill="#000000" fill-opacity="0.4"><g transform="translate(302.070811, 718.448018)"><g><path d="M 14.453125 -19.359375 L 14.453125 -7.296875 L 35.5 -7.296875 L 35.5 0 L 5.734375 0 L 5.734375 -44.09375 L 35.015625 -44.09375 L 35.015625 -36.796875 L 14.453125 -36.796875 L 14.453125 -26.484375 L 32.421875 -26.484375 L 32.421875 -19.359375 Z M 14.453125 -19.359375 "/></g></g></g><g fill="#000000" fill-opacity="0.4"><g transform="translate(339.981912, 718.448018)"><g/></g></g><g fill="#000000" fill-opacity="0.4"><g transform="translate(354.549185, 718.448018)"><g><path d="M 24.09375 0.640625 C 20.03125 0.640625 16.453125 -0.203125 13.359375 -1.890625 C 10.265625 -3.585938 7.84375 -6.128906 6.09375 -9.515625 C 4.34375 -12.898438 3.46875 -17.078125 3.46875 -22.046875 C 3.46875 -27.015625 4.34375 -31.191406 6.09375 -34.578125 C 7.84375 -37.960938 10.265625 -40.5 13.359375 -42.1875 C 16.453125 -43.875 20.03125 -44.71875 24.09375 -44.71875 C 28.332031 -44.71875 31.9375 -43.890625 34.90625 -42.234375 C 37.875 -40.578125 39.988281 -38.050781 41.25 -34.65625 L 34.890625 -30.765625 L 34.140625 -30.796875 C 33.191406 -33.085938 31.90625 -34.726562 30.28125 -35.71875 C 28.664062 -36.71875 26.601562 -37.21875 24.09375 -37.21875 C 20.4375 -37.21875 17.582031 -36.003906 15.53125 -33.578125 C 13.476562 -31.160156 12.453125 -27.316406 12.453125 -22.046875 C 12.453125 -16.796875 13.476562 -12.957031 15.53125 -10.53125 C 17.582031 -8.113281 20.4375 -6.90625 24.09375 -6.90625 C 29.820312 -6.90625 33.332031 -9.691406 34.625 -15.265625 L 35.375 -15.265625 L 41.796875 -11.90625 C 40.585938 -7.726562 38.523438 -4.59375 35.609375 -2.5 C 32.703125 -0.40625 28.863281 0.640625 24.09375 0.640625 Z M 24.09375 0.640625 "/></g></g></g><g fill="#000000" fill-opacity="0.4"><g transform="translate(397.798604, 718.448018)"><g><path d="M 5.734375 0 L 5.734375 -44.09375 L 23.4375 -44.09375 C 28 -44.09375 31.441406 -43.039062 33.765625 -40.9375 C 36.085938 -38.84375 37.25 -35.941406 37.25 -32.234375 C 37.25 -29.566406 36.566406 -27.378906 35.203125 -25.671875 C 33.847656 -23.960938 31.828125 -22.65625 29.140625 -21.75 L 29.140625 -21.109375 C 30.523438 -20.503906 31.644531 -19.609375 32.5 -18.421875 C 33.351562 -17.234375 34.160156 -15.476562 34.921875 -13.15625 L 39.328125 0 L 30.375 0 L 26.0625 -13.171875 C 25.613281 -14.503906 25.113281 -15.535156 24.5625 -16.265625 C 24.007812 -17.003906 23.304688 -17.535156 22.453125 -17.859375 C 21.597656 -18.191406 20.488281 -18.359375 19.125 -18.359375 L 14.453125 -18.359375 L 14.453125 0 Z M 22.375 -25.265625 C 26.601562 -25.265625 28.71875 -27.238281 28.71875 -31.1875 C 28.71875 -35.1875 26.601562 -37.1875 22.375 -37.1875 L 14.453125 -37.1875 L 14.453125 -25.265625 Z M 22.375 -25.265625 "/></g></g></g><g fill="#000000" fill-opacity="0.4"><g transform="translate(439.027304, 718.448018)"><g><path d="M 14.453125 -19.359375 L 14.453125 -7.296875 L 35.5 -7.296875 L 35.5 0 L 5.734375 0 L 5.734375 -44.09375 L 35.015625 -44.09375 L 35.015625 -36.796875 L 14.453125 -36.796875 L 14.453125 -26.484375 L 32.421875 -26.484375 L 32.421875 -19.359375 Z M 14.453125 -19.359375 "/></g></g></g><g fill="#000000" fill-opacity="0.4"><g transform="translate(476.938405, 718.448018)"><g><path d="M 42.3125 0 L 33.140625 0 L 29.828125 -10.15625 L 12.9375 -10.15625 L 9.625 0 L 0.65625 0 L 15.890625 -44.09375 L 27.078125 -44.09375 Z M 20.953125 -34.890625 L 15.296875 -17.5 L 27.421875 -17.5 L 21.71875 -34.890625 Z M 20.953125 -34.890625 "/></g></g></g><g fill="#000000" fill-opacity="0.4"><g transform="translate(519.916398, 718.448018)"><g><path d="M 13.71875 0 L 5.734375 0 L 5.734375 -44.09375 L 17.125 -44.09375 L 28.296875 -11.671875 L 28.921875 -11.671875 L 40.015625 -44.09375 L 51.15625 -44.09375 L 51.15625 0 L 42.890625 0 L 42.890625 -29.140625 L 42.125 -29.25 L 31.9375 0 L 24.671875 0 L 14.46875 -29.25 L 13.71875 -29.140625 Z M 13.71875 0 "/></g></g></g><g fill="#ffffff" fill-opacity="1"><g transform="translate(235.883998, 715.71785)"><g><path d="M 14.453125 0 L 5.734375 0 L 5.734375 -44.09375 L 14.453125 -44.09375 Z M 14.453125 0 "/></g></g></g><g fill="#ffffff" fill-opacity="1"><g transform="translate(256.091188, 715.71785)"><g><path d="M 24.09375 0.640625 C 20.03125 0.640625 16.453125 -0.203125 13.359375 -1.890625 C 10.265625 -3.585938 7.84375 -6.128906 6.09375 -9.515625 C 4.34375 -12.898438 3.46875 -17.078125 3.46875 -22.046875 C 3.46875 -27.015625 4.34375 -31.191406 6.09375 -34.578125 C 7.84375 -37.960938 10.265625 -40.5 13.359375 -42.1875 C 16.453125 -43.875 20.03125 -44.71875 24.09375 -44.71875 C 28.332031 -44.71875 31.9375 -43.890625 34.90625 -42.234375 C 37.875 -40.578125 39.988281 -38.050781 41.25 -34.65625 L 34.890625 -30.765625 L 34.140625 -30.796875 C 33.191406 -33.085938 31.90625 -34.726562 30.28125 -35.71875 C 28.664062 -36.71875 26.601562 -37.21875 24.09375 -37.21875 C 20.4375 -37.21875 17.582031 -36.003906 15.53125 -33.578125 C 13.476562 -31.160156 12.453125 -27.316406 12.453125 -22.046875 C 12.453125 -16.796875 13.476562 -12.957031 15.53125 -10.53125 C 17.582031 -8.113281 20.4375 -6.90625 24.09375 -6.90625 C 29.820312 -6.90625 33.332031 -9.691406 34.625 -15.265625 L 35.375 -15.265625 L 41.796875 -11.90625 C 40.585938 -7.726562 38.523438 -4.59375 35.609375 -2.5 C 32.703125 -0.40625 28.863281 0.640625 24.09375 0.640625 Z M 24.09375 0.640625 "/></g></g></g><g fill="#ffffff" fill-opacity="1"><g transform="translate(299.340607, 715.71785)"><g><path d="M 14.453125 -19.359375 L 14.453125 -7.296875 L 35.5 -7.296875 L 35.5 0 L 5.734375 0 L 5.734375 -44.09375 L 35.015625 -44.09375 L 35.015625 -36.796875 L 14.453125 -36.796875 L 14.453125 -26.484375 L 32.421875 -26.484375 L 32.421875 -19.359375 Z M 14.453125 -19.359375 "/></g></g></g><g fill="#ffffff" fill-opacity="1"><g transform="translate(337.251708, 715.71785)"><g/></g></g><g fill="#ffffff" fill-opacity="1"><g transform="translate(351.818981, 715.71785)"><g><path d="M 24.09375 0.640625 C 20.03125 0.640625 16.453125 -0.203125 13.359375 -1.890625 C 10.265625 -3.585938 7.84375 -6.128906 6.09375 -9.515625 C 4.34375 -12.898438 3.46875 -17.078125 3.46875 -22.046875 C 3.46875 -27.015625 4.34375 -31.191406 6.09375 -34.578125 C 7.84375 -37.960938 10.265625 -40.5 13.359375 -42.1875 C 16.453125 -43.875 20.03125 -44.71875 24.09375 -44.71875 C 28.332031 -44.71875 31.9375 -43.890625 34.90625 -42.234375 C 37.875 -40.578125 39.988281 -38.050781 41.25 -34.65625 L 34.890625 -30.765625 L 34.140625 -30.796875 C 33.191406 -33.085938 31.90625 -34.726562 30.28125 -35.71875 C 28.664062 -36.71875 26.601562 -37.21875 24.09375 -37.21875 C 20.4375 -37.21875 17.582031 -36.003906 15.53125 -33.578125 C 13.476562 -31.160156 12.453125 -27.316406 12.453125 -22.046875 C 12.453125 -16.796875 13.476562 -12.957031 15.53125 -10.53125 C 17.582031 -8.113281 20.4375 -6.90625 24.09375 -6.90625 C 29.820312 -6.90625 33.332031 -9.691406 34.625 -15.265625 L 35.375 -15.265625 L 41.796875 -11.90625 C 40.585938 -7.726562 38.523438 -4.59375 35.609375 -2.5 C 32.703125 -0.40625 28.863281 0.640625 24.09375 0.640625 Z M 24.09375 0.640625 "/></g></g></g><g fill="#ffffff" fill-opacity="1"><g transform="translate(395.0684, 715.71785)"><g><path d="M 5.734375 0 L 5.734375 -44.09375 L 23.4375 -44.09375 C 28 -44.09375 31.441406 -43.039062 33.765625 -40.9375 C 36.085938 -38.84375 37.25 -35.941406 37.25 -32.234375 C 37.25 -29.566406 36.566406 -27.378906 35.203125 -25.671875 C 33.847656 -23.960938 31.828125 -22.65625 29.140625 -21.75 L 29.140625 -21.109375 C 30.523438 -20.503906 31.644531 -19.609375 32.5 -18.421875 C 33.351562 -17.234375 34.160156 -15.476562 34.921875 -13.15625 L 39.328125 0 L 30.375 0 L 26.0625 -13.171875 C 25.613281 -14.503906 25.113281 -15.535156 24.5625 -16.265625 C 24.007812 -17.003906 23.304688 -17.535156 22.453125 -17.859375 C 21.597656 -18.191406 20.488281 -18.359375 19.125 -18.359375 L 14.453125 -18.359375 L 14.453125 0 Z M 22.375 -25.265625 C 26.601562 -25.265625 28.71875 -27.238281 28.71875 -31.1875 C 28.71875 -35.1875 26.601562 -37.1875 22.375 -37.1875 L 14.453125 -37.1875 L 14.453125 -25.265625 Z M 22.375 -25.265625 "/></g></g></g><g fill="#ffffff" fill-opacity="1"><g transform="translate(436.2971, 715.71785)"><g><path d="M 14.453125 -19.359375 L 14.453125 -7.296875 L 35.5 -7.296875 L 35.5 0 L 5.734375 0 L 5.734375 -44.09375 L 35.015625 -44.09375 L 35.015625 -36.796875 L 14.453125 -36.796875 L 14.453125 -26.484375 L 32.421875 -26.484375 L 32.421875 -19.359375 Z M 14.453125 -19.359375 "/></g></g></g><g fill="#ffffff" fill-opacity="1"><g transform="translate(474.208201, 715.71785)"><g><path d="M 42.3125 0 L 33.140625 0 L 29.828125 -10.15625 L 12.9375 -10.15625 L 9.625 0 L 0.65625 0 L 15.890625 -44.09375 L 27.078125 -44.09375 Z M 20.953125 -34.890625 L 15.296875 -17.5 L 27.421875 -17.5 L 21.71875 -34.890625 Z M 20.953125 -34.890625 "/></g></g></g><g fill="#ffffff" fill-opacity="1"><g transform="translate(517.186194, 715.71785)"><g><path d="M 13.71875 0 L 5.734375 0 L 5.734375 -44.09375 L 17.125 -44.09375 L 28.296875 -11.671875 L 28.921875 -11.671875 L 40.015625 -44.09375 L 51.15625 -44.09375 L 51.15625 0 L 42.890625 0 L 42.890625 -29.140625 L 42.125 -29.25 L 31.9375 0 L 24.671875 0 L 14.46875 -29.25 L 13.71875 -29.140625 Z M 13.71875 0 "/></g></g></g></svg>