<svg id="visual" viewBox="0 0 900 600" width="900" height="600" xmlns="http://www.w3.org/2000/svg" xmlns:xlink="http://www.w3.org/1999/xlink" version="1.1"><path d="M0 87L21.5 84.5C43 82 86 77 128.8 89C171.7 101 214.3 130 257.2 134.8C300 139.7 343 120.3 385.8 105.5C428.7 90.7 471.3 80.3 514.2 83.3C557 86.3 600 102.7 642.8 108.3C685.7 114 728.3 109 771.2 117C814 125 857 146 878.5 156.5L900 167L900 0L878.5 0C857 0 814 0 771.2 0C728.3 0 685.7 0 642.8 0C600 0 557 0 514.2 0C471.3 0 428.7 0 385.8 0C343 0 300 0 257.2 0C214.3 0 171.7 0 128.8 0C86 0 43 0 21.5 0L0 0Z" fill="#B78568" stroke-linecap="round" stroke-linejoin="miter"></path></svg>