<svg id="visual" viewBox="0 0 900 600" width="900" height="600" xmlns="http://www.w3.org/2000/svg" xmlns:xlink="http://www.w3.org/1999/xlink" version="1.1"><path d="M0 147L9.3 149C18.7 151 37.3 155 56.2 143.2C75 131.3 94 103.7 112.8 90C131.7 76.3 150.3 76.7 169 84.5C187.7 92.3 206.3 107.7 225 109.8C243.7 112 262.3 101 281.2 91.7C300 82.3 319 74.7 337.8 86.3C356.7 98 375.3 129 394 139.2C412.7 149.3 431.3 138.7 450 131.8C468.7 125 487.3 122 506.2 128.3C525 134.7 544 150.3 562.8 140.7C581.7 131 600.3 96 619 90.5C637.7 85 656.3 109 675 109.7C693.7 110.3 712.3 87.7 731.2 79C750 70.3 769 75.7 787.8 84.8C806.7 94 825.3 107 844 112.7C862.7 118.3 881.3 116.7 890.7 115.8L900 115L900 0L890.7 0C881.3 0 862.7 0 844 0C825.3 0 806.7 0 787.8 0C769 0 750 0 731.2 0C712.3 0 693.7 0 675 0C656.3 0 637.7 0 619 0C600.3 0 581.7 0 562.8 0C544 0 525 0 506.2 0C487.3 0 468.7 0 450 0C431.3 0 412.7 0 394 0C375.3 0 356.7 0 337.8 0C319 0 300 0 281.2 0C262.3 0 243.7 0 225 0C206.3 0 187.7 0 169 0C150.3 0 131.7 0 112.8 0C94 0 75 0 56.2 0C37.3 0 18.7 0 9.3 0L0 0Z" fill="#fffbe9" stroke-linecap="round" stroke-linejoin="miter"></path></svg>